<?xml version="1.0" encoding="UTF-8"?>
<!DOCTYPE svg PUBLIC "-//W3C//DTD SVG 1.1//EN" "http://www.w3.org/Graphics/SVG/1.1/DTD/svg11.dtd">
<!-- Creator: CorelDRAW -->
<svg xmlns="http://www.w3.org/2000/svg" xml:space="preserve" width="1.35417in" height="0.916669in" version="1.1" style="shape-rendering:geometricPrecision; text-rendering:geometricPrecision; image-rendering:optimizeQuality; fill-rule:evenodd; clip-rule:evenodd"
viewBox="0 0 56.84 38.48"
 xmlns:xlink="http://www.w3.org/1999/xlink"
 xmlns:xodm="http://www.corel.com/coreldraw/odm/2003">
 <defs>
  <style type="text/css">
   <![CDATA[
    .fil0 {fill:url(#id0);fill-rule:nonzero}
   ]]>
  </style>
  <radialGradient id="id0" gradientUnits="objectBoundingBox" cx="49.9999%" cy="50%" r="50.0001%" fx="49.9999%" fy="50%">
   <stop offset="0" style="stop-opacity:1; stop-color:#1A1A1A"/>
   <stop offset="1" style="stop-opacity:1; stop-color:#0D0D0D"/>
  </radialGradient>
 </defs>
 <g id="Layer_x0020_1">
  <metadata id="CorelCorpID_0Corel-Layer"/>
  <path class="fil0" d="M0.44 1.75l-0.44 0 0 0.44 0 0.44 0.44 0 0.44 0 0 0.44 0 0.44 0.44 0 0.44 0 0 -0.44 0 -0.44 0.44 0 0.44 0 0 0.44 0 0.44 0 0.44 0 0.44 0 0.44 0 0.44 -0.44 0 -0.44 0 0 -0.44 0 -0.44 -0.44 0 -0.44 0 -0.44 0 -0.44 0 0 0.44 0 0.44 0.44 0 0.44 0 0.44 0 0.44 0 0 0.44 0 0.44 -0.44 0 -0.44 0 -0.44 0 -0.44 0 0 0.44 0 0.44 0 0.44 0 0.44 0 0 0 0.44 0 0.44 0 0.44 0 0.44 0.44 0 0.44 0 0 -0.44 0 -0.44 0 -0.44 0 -0.44 0 -0 0 -0.44 0 -0.44 0.44 0 0.44 0 0 0.44 0 0.44 0.44 0 0.44 0 0.44 0 0.44 0 0.44 0 0.44 0 0 0.44 0 0.44 0.44 0 0.44 0 0.44 0 0.44 0 0 0.44 0 0.44 -0.44 0 -0.44 0 -0.44 0 -0.44 0 -0 0 -0.44 0 -0.44 0 -0.44 0 -0.44 0 0 0.44 0 0.44 0.44 0 0.44 0 0 0.44 0 0.44 -0.44 0 -0.44 0 0 0.44 0 0.44 -0.44 0 -0.44 0 0 0.44 0 0.44 -0.44 0 -0.44 0 0 0.44 0 0.44 0 0.44 0 0.44 0 0.44 0 0.44 0.44 0 0.44 0 0 0.44 0 0.44 0.44 0 0.44 0 0.44 0 0.44 0 0 0.44 0 0.44 0 0.44 0 0.44 0 0 0 0.44 0 0.44 0 0.44 0 0.44 -0.44 0 -0.44 0 0 -0.44 0 -0.44 0 -0.44 0 -0.44 -0.44 0 -0.44 0 0 0.44 0 0.44 -0.44 0 -0.44 0 0 -0.44 0 -0.44 -0.44 0 -0.44 0 0 0.44 0 0.44 0 0.44 0 0.44 0.44 0 0.44 0 0 0.44 0 0.44 -0.44 0 -0.44 0 0 0.44 0 0.44 0.44 0 0.44 0 0.44 0 0.44 0 0 0 0.44 0 0.44 0 0 -0.44 0 -0.44 0.44 0 0.44 0 0.44 0 0.44 0 0 0.44 0 0.44 -0.44 0 -0.44 0 0 0.44 0 0.44 0 0.44 0 0.44 -0.44 0 -0.44 0 -0.44 0 -0.44 0 0 0.44 0 0.44 -0.44 0 -0.44 0 0 -0.44 0 -0.44 -0.44 0 -0.44 0 0 0.44 0 0.44 0 0.44 0 0.44 0 0.44 0 0.44 0.44 0 0.44 0 0 -0.44 0 -0.44 0.44 0 0.44 0 0 0.44 0 0.44 0.44 0 0.44 0 0 -0.44 0 -0.44 0 -0.44 0 -0.44 0.44 0 0.44 0 0 0.44 0 0.44 0.44 0 0.44 0 0 0 0.44 0 0.44 0 0 0.44 0 0.44 -0.44 0 -0.44 0 0 0.44 0 0.44 0.44 0 0.44 0 0 0.44 0 0.44 -0.44 0 -0.44 0 0 0.44 0 0.44 0 0 0 0.44 0 0.44 0.44 0 0.44 0 0.44 0 0.44 0 0.44 0 0.44 0 0 0.44 0 0.44 0.44 0 0.44 0 0 0.44 0 0.44 -0.44 0 -0.44 0 -0 0 -0.44 0 -0.44 0 0 -0.44 0 -0.44 -0.44 0 -0.44 0 0 0.44 0 0.44 -0.44 0 -0.44 0 0 -0.44 0 -0.44 -0.44 0 -0.44 0 0 -0.44 0 -0.44 0 -0.44 0 -0.44 0 -0 0 -0.44 0 -0.44 -0.44 0 -0.44 0 -0.44 0 -0.44 0 0 0.44 0 0.44 -0.44 0 -0.44 0 -0.44 0 -0.44 0 0 0.44 0 0.44 0.44 0 0.44 0 0.44 0 0.44 0 0 0.44 0 0.44 -0.44 0 -0.44 0 -0.44 0 -0.44 0 0 0.44 0 0.44 0 0 0 0.44 0 0.44 0 0.44 0 0.44 0.44 0 0.44 0 0 -0.44 0 -0.44 0 -0.44 0 -0.44 0.44 0 0.44 0 0 0.44 0 0.44 0 0.44 0 0.44 0.44 0 0.44 0 0.44 0 0.44 0 0.44 0 0.44 0 0 -0.44 0 -0.44 0.44 0 0.44 0 0 0.44 0 0.44 0.44 0 0.44 0 0 0.44 0 0.44 -0.44 0 -0.44 0 -0.44 0 -0.44 0 -0 0 -0.44 0 -0.44 0 0 0.44 0 0.44 0 0.44 0 0.44 -0.44 0 -0.44 0 0 -0.44 0 -0.44 -0.44 0 -0.44 0 0 -0.44 0 -0.44 -0.44 0 -0.44 0 0 0.44 0 0.44 -0.44 0 -0.44 0 0 0.44 0 0.44 0 0.44 0 0.44 0.44 0 0.44 0 0 -0.44 0 -0.44 0.44 0 0.44 0 0 0.44 0 0.44 0.44 0 0.44 0 0.44 0 0.44 0 0 0.44 0 0.44 -0.44 0 -0.44 0 -0.44 0 -0.44 0 0 0.44 0 0.44 0.44 0 0.44 0 0.44 0 0.44 0 0 -0.44 0 -0.44 0.44 0 0.44 0 0 0.44 0 0.44 0.44 0 0.44 0 0.44 0 0.44 0 0.44 0 0.44 0 0 0 0.44 0 0.44 0 0 -0.44 0 -0.44 0 -0.44 0 -0.44 0.44 0 0.44 0 0 -0.44 0 -0.44 0.44 0 0.44 0 0 0.44 0 0.44 0.44 0 0.44 0 0 -0.44 0 -0.44 0.44 0 0.44 0 0 0.44 0 0.44 0.44 0 0.44 0 0 0.44 0 0.44 -0.44 0 -0.44 0 -0.44 0 -0.44 0 0 0.44 0 0.44 0.44 0 0.44 0 0.44 0 0.44 0 0 -0.44 0 -0.44 0.44 0 0.44 0 0.44 0 0.44 0 0 0.44 0 0.44 0.44 0 0.44 0 0 -0.44 0 -0.44 0.44 0 0.44 0 0.44 0 0.44 0 0 -0.44 0 -0.44 0 -0 0 -0.44 0 -0.44 -0.44 0 -0.44 0 0 0.44 0 0.44 -0.44 0 -0.44 0 0 -0.44 0 -0.44 -0.44 0 -0.44 0 0 -0.44 0 -0.44 0 -0.44 0 -0.44 -0.44 0 -0.44 0 0 0.44 0 0.44 -0.44 0 -0.44 0 0 -0.44 0 -0.44 0 -0 0 -0.44 0 -0.44 0 -0.44 0 -0.44 0.44 0 0.44 0 0.44 0 0.44 0 0 0.44 0 0.44 0.44 0 0.44 0 0 0.44 0 0.44 0 0 0 0.44 0 0.44 0.44 0 0.44 0 0 -0.44 0 -0.44 0 -0 0 -0.44 0 -0.44 0.44 0 0.44 0 0.44 0 0.44 0 0 0.44 0 0.44 -0.44 0 -0.44 0 0 0.44 0 0.44 0.44 0 0.44 0 0 0 0.44 0 0.44 0 0 -0.44 0 -0.44 0 -0 0 -0.44 0 -0.44 -0.44 0 -0.44 0 0 -0.44 0 -0.44 0 -0.44 0 -0.44 0 -0 0 -0.44 0 -0.44 0.44 0 0.44 0 0 -0.44 0 -0.44 0.44 0 0.44 0 0 0.44 0 0.44 0 0.44 0 0.44 0 0 0 0.44 0 0.44 0.44 0 0.44 0 0 -0.44 0 -0.44 0 -0 0 -0.44 0 -0.44 0 -0.44 0 -0.44 -0.44 0 -0.44 0 0 -0.44 0 -0.44 -0.44 0 -0.44 0 0 0.44 0 0.44 -0.44 0 -0.44 0 0 -0.44 0 -0.44 -0.44 0 -0.44 0 0 -0.44 0 -0.44 0.44 0 0.44 0 0 0 0.44 0 0.44 0 0 -0.44 0 -0.44 0.44 0 0.44 0 0.44 0 0.44 0 0 0.44 0 0.44 0.44 0 0.44 0 0 0.44 0 0.44 0.44 0 0.44 0 0.44 0 0.44 0 0 0.44 0 0.44 0.44 0 0.44 0 0 0.44 0 0.44 -0.44 0 -0.44 0 -0 0 -0.44 0 -0.44 0 0 -0.44 0 -0.44 -0.44 0 -0.44 0 0 0.44 0 0.44 0 0.44 0 0.44 0 0 0 0.44 0 0.44 0.44 0 0.44 0 0 0.44 0 0.44 -0.44 0 -0.44 0 -0.44 0 -0.44 0 -0 0 -0.44 0 -0.44 0 0 0.44 0 0.44 0 0 0 0.44 0 0.44 0 0.44 0 0.44 -0.44 0 -0.44 0 0 0.44 0 0.44 -0.44 0 -0.44 0 0 0.44 0 0.44 0.44 0 0.44 0 0 -0.44 0 -0.44 0.44 0 0.44 0 0 0.44 0 0.44 0 0.44 0 0.44 0.44 0 0.44 0 0 0 0.44 0 0.44 0 0 -0.44 0 -0.44 0.44 0 0.44 0 0 -0.44 0 -0.44 0.44 0 0.44 0 0 0 0.44 0 0.44 0 0 0.44 0 0.44 0 0.44 0 0.44 0.44 0 0.44 0 0.44 0 0.44 0 0 -0.44 0 -0.44 -0.44 0 -0.44 0 0 -0.44 0 -0.44 0.44 0 0.44 0 0 0 0.44 0 0.44 0 0 0.44 0 0.44 0.44 0 0.44 0 0 -0.44 0 -0.44 0.44 0 0.44 0 0 0.44 0 0.44 0 0.44 0 0.44 0.44 0 0.44 0 0 -0.44 0 -0.44 0 -0.44 0 -0.44 0.44 0 0.44 0 0 -0.44 0 -0.44 0 -0.44 0 -0.44 0.44 0 0.44 0 0 0.44 0 0.44 0.44 0 0.44 0 0 0.44 0 0.44 0.44 0 0.44 0 0 -0.44 0 -0.44 0.44 0 0.44 0 0 0.44 0 0.44 0 0 0 0.44 0 0.44 -0.44 0 -0.44 0 -0.44 0 -0.44 0 -0.44 0 -0.44 0 -0 0 -0.44 0 -0.44 0 0 0.44 0 0.44 0.44 0 0.44 0 0 0 0.44 0 0.44 0 0.44 0 0.44 0 0.44 0 0.44 0 0 0 0.44 0 0.44 0 0.44 0 0.44 0 0.44 0 0.44 0 0 -0.44 0 -0.44 0.44 0 0.44 0 0 0.44 0 0.44 0.44 0 0.44 0 0 -0.44 0 -0.44 0 -0.44 0 -0.44 0 -0 0 -0.44 0 -0.44 -0.44 0 -0.44 0 0 0.44 0 0.44 -0.44 0 -0.44 0 -0 0 -0.44 0 -0.44 0 0 -0.44 0 -0.44 0 -0.44 0 -0.44 0.44 0 0.44 0 0 0 0.44 0 0.44 0 0.44 0 0.44 0 0.44 0 0.44 0 0 0.44 0 0.44 0 0.44 0 0.44 0 0 0 0.44 0 0.44 0 0.44 0 0.44 0.44 0 0.44 0 0.44 0 0.44 0 0 -0.44 0 -0.44 0 -0.44 0 -0.44 0.44 0 0.44 0 0 0 0.44 0 0.44 0 0 0.44 0 0.44 -0.44 0 -0.44 0 0 0.44 0 0.44 0.44 0 0.44 0 0.44 0 0.44 0 0 -0.44 0 -0.44 0.44 0 0.44 0 0 0.44 0 0.44 0.44 0 0.44 0 0 -0.44 0 -0.44 0 -0.44 0 -0.44 0.44 0 0.44 0 0 -0.44 0 -0.44 -0.44 0 -0.44 0 0 -0.44 0 -0.44 0 -0.44 0 -0.44 0.44 0 0.44 0 0.44 0 0.44 0 0 0 0.44 0 0.44 0 0 0.44 0 0.44 -0.44 0 -0.44 0 0 0.44 0 0.44 0 0.44 0 0.44 0 0 0 0.44 0 0.44 -0.44 0 -0.44 0 0 0.44 0 0.44 0.44 0 0.44 0 0 0 0.44 0 0.44 0 0.44 0 0.44 0 0.44 0 0.44 0 0 0 0.44 0 0.44 0 0.44 0 0.44 0 0.44 0 0.44 0 0 0 0.44 0 0.44 0 0 -0.44 0 -0.44 0.44 0 0.44 0 0.44 0 0.44 0 0 -0.44 0 -0.44 -0.44 0 -0.44 0 -0.44 0 -0.44 0 0 -0.44 0 -0.44 0.44 0 0.44 0 0.44 0 0.44 0 0 -0.44 0 -0.44 -0.44 0 -0.44 0 0 -0.44 0 -0.44 0.44 0 0.44 0 0 0 0.44 0 0.44 0 0 -0.44 0 -0.44 -0.44 0 -0.44 0 0 -0.44 0 -0.44 0 -0.44 0 -0.44 0.44 0 0.44 0 0 -0.44 0 -0.44 0 -0.44 0 -0.44 0.44 0 0.44 0 0 0.44 0 0.44 0 0.44 0 0.44 0 0 0 0.44 0 0.44 0.44 0 0.44 0 0 -0.44 0 -0.44 0 -0 0 -0.44 0 -0.44 0 -0.44 0 -0.44 -0.44 0 -0.44 0 0 -0.44 0 -0.44 0.44 0 0.44 0 0 -0.44 0 -0.44 0 -0.44 0 -0.44 0 -0.44 0 -0.44 -0.44 0 -0.44 0 0 -0.44 0 -0.44 0.44 0 0.44 0 0 -0.44 0 -0.44 0 -0.44 0 -0.44 0 -0 0 -0.44 0 -0.44 0 -0.44 0 -0.44 -0.44 0 -0.44 0 -0.44 0 -0.44 0 0 0.44 0 0.44 0 0.44 0 0.44 0.44 0 0.44 0 0 0.44 0 0.44 -0.44 0 -0.44 0 0 0.44 0 0.44 0 0.44 0 0.44 0.44 0 0.44 0 0 0.44 0 0.44 -0.44 0 -0.44 0 -0.44 0 -0.44 0 0 0.44 0 0.44 -0.44 0 -0.44 0 0 -0.44 0 -0.44 0 -0.44 0 -0.44 0.44 0 0.44 0 0 -0.44 0 -0.44 0 -0.44 0 -0.44 0 -0.44 0 -0.44 -0.44 0 -0.44 0 0 -0.44 0 -0.44 -0.44 0 -0.44 0 0 -0.44 0 -0.44 0.44 0 0.44 0 0.44 0 0.44 0 0 -0.44 0 -0.44 -0.44 0 -0.44 0 0 -0.44 0 -0.44 0 -0.44 0 -0.44 0.44 0 0.44 0 0 0.44 0 0.44 0.44 0 0.44 0 0.44 0 0.44 0 0 0.44 0 0.44 0.44 0 0.44 0 0 -0.44 0 -0.44 0 -0.44 0 -0.44 0 -0.44 0 -0.44 0 -0 0 -0.44 0 -0.44 0 -0.44 0 -0.44 0 -0.44 0 -0.44 0 -0 0 -0.44 0 -0.44 -0.44 0 -0.44 0 0 -0.44 0 -0.44 0.44 0 0.44 0 0 -0.44 0 -0.44 0 -0 0 -0.44 0 -0.44 -0.44 0 -0.44 0 0 -0.44 0 -0.44 0.44 0 0.44 0 0 -0.44 0 -0.44 0 -0 0 -0.44 0 -0.44 0 -0.44 0 -0.44 -0.44 0 -0.44 0 0 -0.44 0 -0.44 0.44 0 0.44 0 0 -0.44 0 -0.44 0 -0.44 0 -0.44 0 -0.44 0 -0.44 0 -0 0 -0.44 0 -0.44 0 -0.44 0 -0.44 0 -0.44 0 -0.44 0 -0 0 -0.44 0 -0.44 -0.44 0 -0.44 0 -0.44 0 -0.44 0 -0.44 0 -0.44 0 0 -0.44 0 -0.44 0 -0.44 0 -0.44 -0.44 0 -0.44 0 -0.44 0 -0.44 0 0 0.44 0 0.44 -0.44 0 -0.44 0 -0 0 -0.44 0 -0.44 0 -0.44 0 -0.44 0 0 0.44 0 0.44 -0.44 0 -0.44 0 0 -0.44 0 -0.44 -0.44 0 -0.44 0 0 -0.44 0 -0.44 -0.44 0 -0.44 0 0 0.44 0 0.44 -0.44 0 -0.44 0 0 0.44 0 0.44 0 0.44 0 0.44 -0.44 0 -0.44 0 0 0.44 0 0.44 0.44 0 0.44 0 0 0.44 0 0.44 0.44 0 0.44 0 0.44 0 0.44 0 0.44 0 0.44 0 0 0 0.44 0 0.44 0 0 0.44 0 0.44 -0.44 0 -0.44 0 0 0.44 0 0.44 -0.44 0 -0.44 0 0 -0.44 0 -0.44 -0.44 0 -0.44 0 0 0.44 0 0.44 -0.44 0 -0.44 0 -0 0 -0.44 0 -0.44 0 0 0.44 0 0.44 -0.44 0 -0.44 0 0 -0.44 0 -0.44 0 -0.44 0 -0.44 0.44 0 0.44 0 0 -0.44 0 -0.44 -0.44 0 -0.44 0 0 0.44 0 0.44 -0.44 0 -0.44 0 0 -0.44 0 -0.44 -0.44 0 -0.44 0 0 -0.44 0 -0.44 0 -0.44 0 -0.44 -0.44 0 -0.44 0 0 -0.44 0 -0.44 0.44 0 0.44 0 0.44 0 0.44 0 0 0.44 0 0.44 0 0 0 0.44 0 0.44 0.44 0 0.44 0 0 -0.44 0 -0.44 0 -0 0 -0.44 0 -0.44 0.44 0 0.44 0 0 -0.44 0 -0.44 -0.44 0 -0.44 0 0 -0.44 0 -0.44 -0.44 0 -0.44 0 -0 0 -0.44 0 -0.44 0 -0.44 0 -0.44 0 0 0.44 0 0.44 -0.44 0 -0.44 0 0 -0.44 0 -0.44 -0.44 0 -0.44 0 -0.44 0 -0.44 0 -0.44 0 -0.44 0 0 0.44 0 0.44 0 0.44 0 0.44 0.44 0 0.44 0 0.44 0 0.44 0 0.44 0 0.44 0 0 0.44 0 0.44 0.44 0 0.44 0 0 0.44 0 0.44 0 0.44 0 0.44 -0.44 0 -0.44 0 0 -0.44 0 -0.44 -0.44 0 -0.44 0 0 0.44 0 0.44 0.44 0 0.44 0 0 0.44 0 0.44 0.44 0 0.44 0 0 0.44 0 0.44 -0.44 0 -0.44 0 0 0.44 0 0.44 -0.44 0 -0.44 0 0 0.44 0 0.44 0.44 0 0.44 0 0 0.44 0 0.44 0.44 0 0.44 0 0 0.44 0 0.44 0.44 0 0.44 0 0 0.44 0 0.44 -0.44 0 -0.44 0 -0.44 0 -0.44 0 0 0.44 0 0.44 0.44 0 0.44 0 0 0.44 0 0.44 0.44 0 0.44 0 0.44 0 0.44 0 0 0.44 0 0.44 -0.44 0 -0.44 0 -0.44 0 -0.44 0 -0.44 0 -0.44 0 0 0.44 0 0.44 0 0.44 0 0.44 -0.44 0 -0.44 0 0 -0.44 0 -0.44 0 -0.44 0 -0.44 0 -0 0 -0.44 0 -0.44 0 -0.44 0 -0.44 0 -0.44 0 -0.44 -0.44 0 -0.44 0 -0.44 0 -0.44 0 0 -0.44 0 -0.44 0.44 0 0.44 0 0.44 0 0.44 0 0 -0.44 0 -0.44 -0.44 0 -0.44 0 0 -0.44 0 -0.44 0 -0 0 -0.44 0 -0.44 0 -0.44 0 -0.44 0.44 0 0.44 0 0 -0.44 0 -0.44 -0.44 0 -0.44 0 0 -0.44 0 -0.44 0 -0.44 0 -0.44 0 -0.44 0 -0.44 -0.44 0 -0.44 0 -0 0 -0.44 0 -0.44 0 0 -0.44 0 -0.44 0 -0.44 0 -0.44 -0.44 0 -0.44 0 -0.44 0 -0.44 0 0 0.44 0 0.44 -0.44 0 -0.44 0 -0.44 0 -0.44 0 0 -0.44 0 -0.44 0.44 0 0.44 0 0 -0.44 0 -0.44 -0.44 0 -0.44 0 0 0.44 0 0.44 -0.44 0 -0.44 0 0 -0.44 0 -0.44 -0.44 0 -0.44 0 -0.44 0 -0.44 0 -0.44 0 -0.44 0 -0 0 -0.44 0 -0.44 0 0 0.44 0 0.44 -0.44 0 -0.44 0 0 -0.44 0 -0.44 -0.44 0 -0.44 0 0 0.44 0 0.44 -0.44 0 -0.44 0 0 0.44 0 0.44 -0.44 0 -0.44 0 0 0.44 0 0.44 -0.44 0 -0.44 0 -0 0 -0.44 0 -0.44 0 0 -0.44 0 -0.44 0.44 0 0.44 0 0 -0.44 0 -0.44 -0.44 0 -0.44 0 -0.44 0 -0.44 0 0 -0.44 0 -0.44 -0.44 0 -0.44 0 -0 0 -0.44 0 -0.44 0 -0.44 0 -0.44 0 0 0.44 0 0.44 0.44 0 0.44 0 0.44 0 0.44 0 0 0.44 0 0.44 0.44 0 0.44 0 0 0.44 0 0.44 0 0 0 0.44 0 0.44 -0.44 0 -0.44 0 -0 0 -0.44 0 -0.44 0 -0.44 0 -0.44 0 -0.44 0 -0.44 0 0 -0.44 0 -0.44 0.44 0 0.44 0 0.44 0 0.44 0 0 -0.44 0 -0.44 -0.44 0 -0.44 0 -0.44 0 -0.44 0 -0 0 -0.44 0 -0.44 0 0 -0.44 0 -0.44 0 -0.44 0 -0.44 -0.44 0 -0.44 0 -0.44 0 -0.44 0 -0 0 -0.44 0 -0.44 0 -0.44 0 -0.44 0 0 0.44 0 0.44 0 0.44 0 0.44 -0.44 0 -0.44 0 -0 0 -0.44 0 -0.44 0 -0.44 0 -0.44 0 -0.44 0 -0.44 0 -0 0 -0.44 0 -0.44 0 0 -0.44 0 -0.44 0 -0.44 0 -0.44 -0.44 0 -0.44 0 0 0.44 0 0.44 0 0.44 0 0.44 -0.44 0 -0.44 0 -0 0 -0.44 0 -0.44 0 0 -0.44 0 -0.44 0.44 0 0.44 0 0 -0.44 0 -0.44 -0.44 0 -0.44 0 0 0.44 0 0.44 -0.44 0 -0.44 0 0 -0.44 0 -0.44 -0.44 0 -0.44 0 -0 0 -0.44 0 -0.44 0 0 0.44 0 0.44 -0.44 0 -0.44 0 0 -0.44 0 -0.44 -0.44 0 -0.44 0 -0 0 -0.44 0 -0.44 0 0 0.44 0 0.44 -0.44 0 -0.44 0 0 -0.44 0 -0.44 -0.44 0 -0.44 0 0 0.44 0 0.44 0.44 0 0.44 0 0 0.44 0 0.44 -0.44 0 -0.44 0 -0 0 -0.44 0 -0.44 0 -0.44 0zm55.97 36.73l0.44 0 0 -0.44 0 -0.44 0 -0.44 0 -0.44 0 -0 0 -0.44 0 -0.44 0 -0.44 0 -0.44 0 -0.44 0 -0.44 0 -0 0 -0.44 0 -0.44 -0.44 0 -0.44 0 0 0.44 0 0.44 0 0 0 0.44 0 0.44 0 0.44 0 0.44 0 0.44 0 0.44 -0.44 0 -0.44 0 0 0.44 0 0.44 0.44 0 0.44 0 0 0.44 0 0.44 0.44 0zm-0.44 -9.62l-0.44 0 -0.44 0 0 0.44 0 0.44 -0.44 0 -0.44 0 0 -0.44 0 -0.44 0 -0 0 -0.44 0 -0.44 0.44 0 0.44 0 0.44 0 0.44 0 0 0.44 0 0.44zm0 -9.62l-0.44 0 -0.44 0 -0.44 0 -0.44 0 0 -0.44 0 -0.44 0 -0 0 -0.44 0 -0.44 0 -0.44 0 -0.44 0.44 0 0.44 0 0 -0.44 0 -0.44 0.44 0 0.44 0 0 0.44 0 0.44 0 0.44 0 0.44 0 0.44 0 0.44 0 0 0 0.44 0 0.44zm0 -5.25l-0.44 0 -0.44 0 0 0.44 0 0.44 0 0.44 0 0.44 -0.44 0 -0.44 0 0 -0.44 0 -0.44 -0.44 0 -0.44 0 0 -0.44 0 -0.44 0.44 0 0.44 0 0 -0.44 0 -0.44 0.44 0 0.44 0 0 -0.44 0 -0.44 0.44 0 0.44 0 0 0.44 0 0.44 0 0 0 0.44 0 0.44zm0 -2.62l-0.44 0 -0.44 0 0 0.44 0 0.44 -0.44 0 -0.44 0 0 -0.44 0 -0.44 0 -0.44 0 -0.44 0.44 0 0.44 0 0 -0.44 0 -0.44 -0.44 0 -0.44 0 -0 0 -0.44 0 -0.44 0 -0.44 0 -0.44 0 0 -0.44 0 -0.44 0.44 0 0.44 0 0 -0.44 0 -0.44 0.44 0 0.44 0 0 -0.44 0 -0.44 -0.44 0 -0.44 0 -0.44 0 -0.44 0 0 -0.44 0 -0.44 0.44 0 0.44 0 0 -0.44 0 -0.44 0 -0 0 -0.44 0 -0.44 0.44 0 0.44 0 0 -0.44 0 -0.44 -0.44 0 -0.44 0 0 -0.44 0 -0.44 0 -0 0 -0.44 0 -0.44 0.44 0 0.44 0 0 0.44 0 0.44 0.44 0 0.44 0 0.44 0 0.44 0 0 0.44 0 0.44 -0.44 0 -0.44 0 0 0.44 0 0.44 0.44 0 0.44 0 0 0.44 0 0.44 -0.44 0 -0.44 0 -0.44 0 -0.44 0 0 0.44 0 0.44 0.44 0 0.44 0 0.44 0 0.44 0 0 0.44 0 0.44 0 0.44 0 0.44 -0.44 0 -0.44 0 0 0.44 0 0.44 0.44 0 0.44 0 0 0.44 0 0.44 0 0.44 0 0.44 0 0 0 0.44 0 0.44zm-1.75 20.11l-0.44 0 -0.44 0 0 -0.44 0 -0.44 0.44 0 0.44 0 0 0.44 0 0.44zm0 -14.87l-0.44 0 -0.44 0 0 -0.44 0 -0.44 0.44 0 0.44 0 0 0.44 0 0.44zm0 -3.5l-0.44 0 -0.44 0 0 0.44 0 0.44 -0.44 0 -0.44 0 0 -0.44 0 -0.44 0 -0 0 -0.44 0 -0.44 0.44 0 0.44 0 0.44 0 0.44 0 0 0.44 0 0.44zm-0.87 20.11l-0.44 0 -0.44 0 -0.44 0 -0.44 0 0 -0.44 0 -0.44 -0.44 0 -0.44 0 -0.44 0 -0.44 0 0 0.44 0 0.44 -0.44 0 -0.44 0 0 -0.44 0 -0.44 0 -0.44 0 -0.44 0.44 0 0.44 0 0 -0.44 0 -0.44 -0.44 0 -0.44 0 0 -0.44 0 -0.44 0.44 0 0.44 0 0 -0.44 0 -0.44 0 -0 0 -0.44 0 -0.44 0 -0.44 0 -0.44 -0.44 0 -0.44 0 0 -0.44 0 -0.44 0.44 0 0.44 0 0.44 0 0.44 0 0 -0.44 0 -0.44 0 -0.44 0 -0.44 0.44 0 0.44 0 0 0 0.44 0 0.44 0 0 -0.44 0 -0.44 0.44 0 0.44 0 0 0.44 0 0.44 0 0.44 0 0.44 0 0.44 0 0.44 -0.44 0 -0.44 0 0 0.44 0 0.44 -0.44 0 -0.44 0 -0 0 -0.44 0 -0.44 0 0 0.44 0 0.44 0.44 0 0.44 0 0 0.44 0 0.44 -0.44 0 -0.44 0 0 0.44 0 0.44 0.44 0 0.44 0 0 0.44 0 0.44 -0.44 0 -0.44 0 0 0.44 0 0.44 0.44 0 0.44 0 0 0 0.44 0 0.44 0 0 0.44 0 0.44 0.44 0 0.44 0 0 0.44 0 0.44zm0 -3.5l-0.44 0 -0.44 0 -0.44 0 -0.44 0 0 -0.44 0 -0.44 0.44 0 0.44 0 0.44 0 0.44 0 0 0.44 0 0.44zm-0.87 6.12l-0.44 0 -0.44 0 -0 0 -0.44 0 -0.44 0 -0.44 0 -0.44 0 0 -0.44 0 -0.44 0 -0.44 0 -0.44 0.44 0 0.44 0 0 0.44 0 0.44 0.44 0 0.44 0 0 -0.44 0 -0.44 0.44 0 0.44 0 0 0.44 0 0.44 0 0.44 0 0.44zm0 -13.99l-0.44 0 -0.44 0 -0 0 -0.44 0 -0.44 0 0 -0.44 0 -0.44 0.44 0 0.44 0 0 0 0.44 0 0.44 0 0 0.44 0 0.44zm0 -1.75l-0.44 0 -0.44 0 -0 0 -0.44 0 -0.44 0 -0.44 0 -0.44 0 0 -0.44 0 -0.44 0 -0.44 0 -0.44 0 -0 0 -0.44 0 -0.44 0.44 0 0.44 0 0.44 0 0.44 0 0 0 0.44 0 0.44 0 0 0.44 0 0.44 0 0 0 0.44 0 0.44 0 0.44 0 0.44zm0 -9.62l-0.44 0 -0.44 0 0 0.44 0 0.44 0 0.44 0 0.44 0 0.44 0 0.44 0 0 0 0.44 0 0.44 0 0.44 0 0.44 0 0.44 0 0.44 0 0 0 0.44 0 0.44 -0.44 0 -0.44 0 0 -0.44 0 -0.44 0 -0 0 -0.44 0 -0.44 0 -0.44 0 -0.44 0 -0.44 0 -0.44 0 -0 0 -0.44 0 -0.44 0 -0.44 0 -0.44 -0.44 0 -0.44 0 0 0.44 0 0.44 -0.44 0 -0.44 0 0 0.44 0 0.44 0.44 0 0.44 0 0 0.44 0 0.44 0 0.44 0 0.44 0 0.44 0 0.44 -0.44 0 -0.44 0 0 -0.44 0 -0.44 -0.44 0 -0.44 0 0 -0.44 0 -0.44 0 -0.44 0 -0.44 0 -0 0 -0.44 0 -0.44 0 -0.44 0 -0.44 0.44 0 0.44 0 0 -0.44 0 -0.44 0 -0 0 -0.44 0 -0.44 0.44 0 0.44 0 0.44 0 0.44 0 0 -0.44 0 -0.44 -0.44 0 -0.44 0 -0.44 0 -0.44 0 0 -0.44 0 -0.44 0.44 0 0.44 0 0 -0.44 0 -0.44 0 -0.44 0 -0.44 0 -0.44 0 -0.44 0.44 0 0.44 0 0.44 0 0.44 0 0 0 0.44 0 0.44 0 0 0.44 0 0.44 -0.44 0 -0.44 0 0 0.44 0 0.44 -0.44 0 -0.44 0 0 0.44 0 0.44 0.44 0 0.44 0 0 0 0.44 0 0.44 0 0 0.44 0 0.44 -0.44 0 -0.44 0 0 0.44 0 0.44 0.44 0 0.44 0 0 0.44 0 0.44zm0 -6.12l-0.44 0 -0.44 0 0 -0.44 0 -0.44 0.44 0 0.44 0 0 0.44 0 0.44zm0 -1.75l-0.44 0 -0.44 0 0 0.44 0 0.44 -0.44 0 -0.44 0 -0.44 0 -0.44 0 0 -0.44 0 -0.44 0.44 0 0.44 0 0 -0.44 0 -0.44 0.44 0 0.44 0 0 0 0.44 0 0.44 0 0 0.44 0 0.44zm-1.31 16.61l0.44 0 0 -0.44 0 -0.44 -0.44 0 -0.44 0 0 0.44 0 0.44 0.44 0zm-0.44 4.37l-0.44 0 -0.44 0 0 -0.44 0 -0.44 -0.44 0 -0.44 0 0 -0.44 0 -0.44 0.44 0 0.44 0 0.44 0 0.44 0 0 0.44 0 0.44 0 0.44 0 0.44zm-0.87 13.99l-0.44 0 -0.44 0 -0 0 -0.44 0 -0.44 0 0 -0.44 0 -0.44 0.44 0 0.44 0 0 -0.44 0 -0.44 0.44 0 0.44 0 0 0.44 0 0.44 0 0 0 0.44 0 0.44zm-0.87 -2.62l-0.44 0 -0.44 0 0 -0.44 0 -0.44 0 -0 0 -0.44 0 -0.44 0.44 0 0.44 0 0 0.44 0 0.44 0 0 0 0.44 0 0.44zm0 -3.5l-0.44 0 -0.44 0 0 -0.44 0 -0.44 0.44 0 0.44 0 0 0.44 0 0.44zm0 -3.5l-0.44 0 -0.44 0 0 -0.44 0 -0.44 0.44 0 0.44 0 0 0.44 0 0.44zm0 -7l-0.44 0 -0.44 0 0 -0.44 0 -0.44 0 -0.44 0 -0.44 0.44 0 0.44 0 0 0.44 0 0.44 0 0.44 0 0.44zm0 -3.5l-0.44 0 -0.44 0 0 -0.44 0 -0.44 0.44 0 0.44 0 0 0.44 0 0.44zm0 -7.87l-0.44 0 -0.44 0 0 -0.44 0 -0.44 0.44 0 0.44 0 0 0.44 0 0.44zm-0.87 27.11l-0.44 0 -0.44 0 0 -0.44 0 -0.44 0 -0.44 0 -0.44 0.44 0 0.44 0 0 0.44 0 0.44 0 0.44 0 0.44zm0 -3.5l-0.44 0 -0.44 0 0 -0.44 0 -0.44 0.44 0 0.44 0 0 0.44 0 0.44zm0 -3.5l-0.44 0 -0.44 0 0 -0.44 0 -0.44 0.44 0 0.44 0 0 0.44 0 0.44zm0 -4.37l-0.44 0 -0.44 0 -0.44 0 -0.44 0 0 0.44 0 0.44 -0.44 0 -0.44 0 0 -0.44 0 -0.44 0 -0.44 0 -0.44 0.44 0 0.44 0 0 0 0.44 0 0.44 0 0.44 0 0.44 0 0 0.44 0 0.44zm0 -2.62l-0.44 0 -0.44 0 -0.44 0 -0.44 0 0 0.44 0 0.44 -0.44 0 -0.44 0 0 -0.44 0 -0.44 0 -0.44 0 -0.44 0 -0.44 0 -0.44 0.44 0 0.44 0 0 0 0.44 0 0.44 0 0 0.44 0 0.44 0.44 0 0.44 0 0 0.44 0 0.44zm0 -3.5l-0.44 0 -0.44 0 0 -0.44 0 -0.44 0.44 0 0.44 0 0 0.44 0 0.44zm0 -7.87l-0.44 0 -0.44 0 0 0.44 0 0.44 -0.44 0 -0.44 0 -0 0 -0.44 0 -0.44 0 0 -0.44 0 -0.44 0 -0.44 0 -0.44 0.44 0 0.44 0 0 0 0.44 0 0.44 0 0.44 0 0.44 0 0 0.44 0 0.44zm0 -3.5l-0.44 0 -0.44 0 -0.44 0 -0.44 0 0 0.44 0 0.44 -0.44 0 -0.44 0 0 -0.44 0 -0.44 0 -0 0 -0.44 0 -0.44 0.44 0 0.44 0 0 0 0.44 0 0.44 0 0.44 0 0.44 0 0 0.44 0 0.44zm0 -6.56l0 0.44 -0.44 0 -0.44 0 0 -0.44 0 -0.44 0.44 0 0.44 0 0 0.44zm-0.87 31.04l-0.44 0 -0.44 0 0 0.44 0 0.44 -0.44 0 -0.44 0 0 -0.44 0 -0.44 -0.44 0 -0.44 0 0 -0.44 0 -0.44 0 -0 0 -0.44 0 -0.44 0.44 0 0.44 0 0 -0.44 0 -0.44 0 -0.44 0 -0.44 0 -0 0 -0.44 0 -0.44 -0.44 0 -0.44 0 0 -0.44 0 -0.44 0 -0.44 0 -0.44 0.44 0 0.44 0 0 0.44 0 0.44 0.44 0 0.44 0 0 0.44 0 0.44 0.44 0 0.44 0 0 0.44 0 0.44 -0.44 0 -0.44 0 0 0.44 0 0.44 0 0.44 0 0.44 0.44 0 0.44 0 0 0.44 0 0.44 0 0 0 0.44 0 0.44zm0 -12.24l-0.44 0 -0.44 0 -0 0 -0.44 0 -0.44 0 0 -0.44 0 -0.44 0 -0.44 0 -0.44 -0.44 0 -0.44 0 -0.44 0 -0.44 0 0 -0.44 0 -0.44 0.44 0 0.44 0 0.44 0 0.44 0 0 -0.44 0 -0.44 -0.44 0 -0.44 0 0 -0.44 0 -0.44 0.44 0 0.44 0 0 -0.44 0 -0.44 -0.44 0 -0.44 0 0 0.44 0 0.44 -0.44 0 -0.44 0 0 0.44 0 0.44 0 0.44 0 0.44 -0.44 0 -0.44 0 0 -0.44 0 -0.44 0 -0.44 0 -0.44 0 -0 0 -0.44 0 -0.44 0 -0.44 0 -0.44 0.44 0 0.44 0 0 0 0.44 0 0.44 0 0.44 0 0.44 0 0.44 0 0.44 0 0 0.44 0 0.44 0 0.44 0 0.44 0 0 0 0.44 0 0.44 0 0.44 0 0.44 0.44 0 0.44 0 0 0.44 0 0.44 -0.44 0 -0.44 0 0 0.44 0 0.44 0.44 0 0.44 0 0 0.44 0 0.44zm0 -6.12l-0.44 0 -0.44 0 0 -0.44 0 -0.44 0.44 0 0.44 0 0 0.44 0 0.44zm0 -4.37l-0.44 0 -0.44 0 0 -0.44 0 -0.44 0.44 0 0.44 0 0 0.44 0 0.44zm0 -6.56l0 0.44 -0.44 0 -0.44 0 0 -0.44 0 -0.44 0.44 0 0.44 0 0 0.44zm-1.75 21.42l-0.44 0 -0.44 0 0 -0.44 0 -0.44 0.44 0 0.44 0 0 0.44 0 0.44zm0 -3.5l-0.44 0 -0.44 0 0 -0.44 0 -0.44 0.44 0 0.44 0 0 0.44 0 0.44zm0 -11.37l-0.44 0 -0.44 0 0 -0.44 0 -0.44 0.44 0 0.44 0 0 0.44 0 0.44zm-0.87 27.11l-0.44 0 -0.44 0 0 -0.44 0 -0.44 0.44 0 0.44 0 0 0.44 0 0.44zm0 -3.5l-0.44 0 -0.44 0 0 -0.44 0 -0.44 0.44 0 0.44 0 0 0.44 0 0.44zm0 -3.5l-0.44 0 -0.44 0 0 0.44 0 0.44 0 0.44 0 0.44 -0.44 0 -0.44 0 0 -0.44 0 -0.44 -0.44 0 -0.44 0 0 -0.44 0 -0.44 0.44 0 0.44 0 0 -0.44 0 -0.44 0.44 0 0.44 0 0 0 0.44 0 0.44 0 0 0.44 0 0.44zm0 -4.37l-0.44 0 -0.44 0 0 -0.44 0 -0.44 0.44 0 0.44 0 0 0.44 0 0.44zm0 -2.62l-0.44 0 -0.44 0 -0 0 -0.44 0 -0.44 0 0 -0.44 0 -0.44 0 -0.44 0 -0.44 0 -0 0 -0.44 0 -0.44 0.44 0 0.44 0 0 0.44 0 0.44 0.44 0 0.44 0 0 0.44 0 0.44 0 0.44 0 0.44zm0 -14.87l-0.44 0 -0.44 0 -0 0 -0.44 0 -0.44 0 0 -0.44 0 -0.44 0 -0.44 0 -0.44 0 -0.44 0 -0.44 0.44 0 0.44 0 0 0.44 0 0.44 0 0.44 0 0.44 0.44 0 0.44 0 0 0.44 0 0.44zm0 -6.12l-0.44 0 -0.44 0 0 -0.44 0 -0.44 0.44 0 0.44 0 0 0.44 0 0.44zm-0.87 34.1l-0.44 0 -0.44 0 0 -0.44 0 -0.44 0 -0.44 0 -0.44 -0.44 0 -0.44 0 0 -0.44 0 -0.44 0.44 0 0.44 0 0.44 0 0.44 0 0 0.44 0 0.44 0 0 0 0.44 0 0.44 0 0.44 0 0.44zm0 -8.74l-0.44 0 -0.44 0 0 0.44 0 0.44 -0.44 0 -0.44 0 0 -0.44 0 -0.44 0 -0.44 0 -0.44 0.44 0 0.44 0 0.44 0 0.44 0 0 0.44 0 0.44zm0 -7.87l-0.44 0 -0.44 0 0 -0.44 0 -0.44 0.44 0 0.44 0 0 0.44 0 0.44zm0 -8.31l0 0.44 -0.44 0 -0.44 0 0 -0.44 0 -0.44 0.44 0 0.44 0 0 0.44zm0 -1.75l0 0.44 -0.44 0 -0.44 0 0 -0.44 0 -0.44 0.44 0 0.44 0 0 0.44zm-0.87 15.3l-0.44 0 -0.44 0 0 0.44 0 0.44 0 0.44 0 0.44 -0.44 0 -0.44 0 0 -0.44 0 -0.44 -0.44 0 -0.44 0 -0.44 0 -0.44 0 0 -0.44 0 -0.44 0.44 0 0.44 0 0 -0.44 0 -0.44 0 -0 0 -0.44 0 -0.44 0 -0.44 0 -0.44 0.44 0 0.44 0 0 0.44 0 0.44 0.44 0 0.44 0 0 0.44 0 0.44 0.44 0 0.44 0 0 0.44 0 0.44zm-0.87 11.37l-0.44 0 -0.44 0 0 -0.44 0 -0.44 -0.44 0 -0.44 0 -0.44 0 -0.44 0 0 -0.44 0 -0.44 -0.44 0 -0.44 0 -0 0 -0.44 0 -0.44 0 0 -0.44 0 -0.44 0.44 0 0.44 0 0 0 0.44 0 0.44 0 0.44 0 0.44 0 0.44 0 0.44 0 0 0.44 0 0.44 0.44 0 0.44 0 0 0.44 0 0.44 0 0.44 0 0.44zm0 -4.37l-0.44 0 -0.44 0 -0 0 -0.44 0 -0.44 0 0 -0.44 0 -0.44 -0.44 0 -0.44 0 -0.44 0 -0.44 0 0 -0.44 0 -0.44 0.44 0 0.44 0 0.44 0 0.44 0 0.44 0 0.44 0 0 0.44 0 0.44 0.44 0 0.44 0 0 0.44 0 0.44zm0 -2.62l-0.44 0 -0.44 0 -0 0 -0.44 0 -0.44 0 -0.44 0 -0.44 0 0 -0.44 0 -0.44 -0.44 0 -0.44 0 0 -0.44 0 -0.44 0.44 0 0.44 0 0.44 0 0.44 0 0 -0.44 0 -0.44 0.44 0 0.44 0 0 0.44 0 0.44 0 0.44 0 0.44 0.44 0 0.44 0 0 0.44 0 0.44zm0 -7l-0.44 0 -0.44 0 0 -0.44 0 -0.44 -0.44 0 -0.44 0 0 0.44 0 0.44 -0.44 0 -0.44 0 0 -0.44 0 -0.44 0 -0 0 -0.44 0 -0.44 0.44 0 0.44 0 0 -0.44 0 -0.44 -0.44 0 -0.44 0 0 -0.44 0 -0.44 0.44 0 0.44 0 0.44 0 0.44 0 0 0.44 0 0.44 0 0.44 0 0.44 0.44 0 0.44 0 0 0.44 0 0.44 0 0 0 0.44 0 0.44zm0 -14.43l0 0.44 -0.44 0 -0.44 0 0 -0.44 0 -0.44 0.44 0 0.44 0 0 0.44zm-0.87 10.06l-0.44 0 -0.44 0 0 -0.44 0 -0.44 -0.44 0 -0.44 0 0 0.44 0 0.44 -0.44 0 -0.44 0 -0 0 -0.44 0 -0.44 0 0 -0.44 0 -0.44 0 -0.44 0 -0.44 -0.44 0 -0.44 0 -0.44 0 -0.44 0 -0 0 -0.44 0 -0.44 0 0 0.44 0 0.44 -0.44 0 -0.44 0 0 -0.44 0 -0.44 0 -0 0 -0.44 0 -0.44 0.44 0 0.44 0 0 -0.44 0 -0.44 0.44 0 0.44 0 0 0.44 0 0.44 0.44 0 0.44 0 0 -0.44 0 -0.44 0.44 0 0.44 0 0 -0.44 0 -0.44 0.44 0 0.44 0 0 -0.44 0 -0.44 0.44 0 0.44 0 0 0.44 0 0.44 0 0 0 0.44 0 0.44 -0.44 0 -0.44 0 0 0.44 0 0.44 0 0.44 0 0.44 0.44 0 0.44 0 0 -0.44 0 -0.44 0.44 0 0.44 0 0 0.44 0 0.44 0.44 0 0.44 0 0 0.44 0 0.44 0 0.44 0 0.44zm-0.87 19.24l-0.44 0 -0.44 0 0 -0.44 0 -0.44 0.44 0 0.44 0 0 0.44 0 0.44zm-0.87 -13.12l-0.44 0 -0.44 0 -0 0 -0.44 0 -0.44 0 0 -0.44 0 -0.44 0 -0.44 0 -0.44 0.44 0 0.44 0 0 0.44 0 0.44 0.44 0 0.44 0 0 0.44 0 0.44zm0 -3.5l-0.44 0 -0.44 0 -0 0 -0.44 0 -0.44 0 0 -0.44 0 -0.44 0 -0.44 0 -0.44 0.44 0 0.44 0 0 0.44 0 0.44 0.44 0 0.44 0 0 0.44 0 0.44zm-0.87 12.24l-0.44 0 -0.44 0 -0.44 0 -0.44 0 -0.44 0 -0.44 0 0 0.44 0 0.44 0 0.44 0 0.44 -0.44 0 -0.44 0 0 -0.44 0 -0.44 -0.44 0 -0.44 0 0 -0.44 0 -0.44 0.44 0 0.44 0 0 -0.44 0 -0.44 0.44 0 0.44 0 0 0 0.44 0 0.44 0 0.44 0 0.44 0 0.44 0 0.44 0 0 0.44 0 0.44zm0 -2.62l-0.44 0 -0.44 0 0 -0.44 0 -0.44 -0.44 0 -0.44 0 -0.44 0 -0.44 0 0 0.44 0 0.44 -0.44 0 -0.44 0 -0.44 0 -0.44 0 0 -0.44 0 -0.44 -0.44 0 -0.44 0 -0 0 -0.44 0 -0.44 0 0 -0.44 0 -0.44 0 -0.44 0 -0.44 0.44 0 0.44 0 0 0.44 0 0.44 0.44 0 0.44 0 0 -0.44 0 -0.44 0 -0.44 0 -0.44 0.44 0 0.44 0 0 -0.44 0 -0.44 -0.44 0 -0.44 0 0 -0.44 0 -0.44 0 -0.44 0 -0.44 0.44 0 0.44 0 0.44 0 0.44 0 0 0 0.44 0 0.44 0 0 0.44 0 0.44 0 0.44 0 0.44 -0.44 0 -0.44 0 0 0.44 0 0.44 0 0 0 0.44 0 0.44 -0.44 0 -0.44 0 0 0.44 0 0.44 0.44 0 0.44 0 0 0 0.44 0 0.44 0 0.44 0 0.44 0 0.44 0 0.44 0 0 0.44 0 0.44 0 0 0 0.44 0 0.44zm0 -2.62l-0.44 0 -0.44 0 0 -0.44 0 -0.44 -0.44 0 -0.44 0 0 -0.44 0 -0.44 0.44 0 0.44 0 0 -0.44 0 -0.44 0.44 0 0.44 0 0 0.44 0 0.44 0 0.44 0 0.44 0 0 0 0.44 0 0.44zm0 -14.87l-0.44 0 -0.44 0 -0.44 0 -0.44 0 0 -0.44 0 -0.44 0 -0.44 0 -0.44 0.44 0 0.44 0 0.44 0 0.44 0 0 0.44 0 0.44 0 0.44 0 0.44zm0 -2.62l-0.44 0 -0.44 0 0 -0.44 0 -0.44 0 -0.44 0 -0.44 0.44 0 0.44 0 0 0.44 0 0.44 0 0.44 0 0.44zm0 -2.62l-0.44 0 -0.44 0 0 -0.44 0 -0.44 0 -0.44 0 -0.44 0 -0 0 -0.44 0 -0.44 -0.44 0 -0.44 0 -0.44 0 -0.44 0 0 0.44 0 0.44 -0.44 0 -0.44 0 0 -0.44 0 -0.44 0 -0.44 0 -0.44 -0.44 0 -0.44 0 0 -0.44 0 -0.44 0.44 0 0.44 0 0.44 0 0.44 0 0 0.44 0 0.44 0.44 0 0.44 0 0.44 0 0.44 0 0.44 0 0.44 0 0 0.44 0 0.44 0 0.44 0 0.44 0 0 0 0.44 0 0.44 0 0.44 0 0.44zm-0.87 14.87l-0.44 0 -0.44 0 0 0.44 0 0.44 -0.44 0 -0.44 0 -0 0 -0.44 0 -0.44 0 0 -0.44 0 -0.44 0 -0.44 0 -0.44 -0.44 0 -0.44 0 0 -0.44 0 -0.44 0 -0.44 0 -0.44 0.44 0 0.44 0 0 0.44 0 0.44 0.44 0 0.44 0 0 0 0.44 0 0.44 0 0 0.44 0 0.44 0.44 0 0.44 0 0 0.44 0 0.44zm0 -3.5l-0.44 0 -0.44 0 0 0.44 0 0.44 -0.44 0 -0.44 0 -0 0 -0.44 0 -0.44 0 0 -0.44 0 -0.44 0 -0 0 -0.44 0 -0.44 0 -0.44 0 -0.44 0.44 0 0.44 0 0 0.44 0 0.44 0.44 0 0.44 0 0.44 0 0.44 0 0 0.44 0 0.44zm-0.87 12.24l-0.44 0 -0.44 0 0 -0.44 0 -0.44 0.44 0 0.44 0 0 0.44 0 0.44zm0 -20.11l-0.44 0 -0.44 0 0 0.44 0 0.44 0 0.44 0 0.44 0 0.44 0 0.44 -0.44 0 -0.44 0 0 0.44 0 0.44 -0.44 0 -0.44 0 0 -0.44 0 -0.44 0 -0 0 -0.44 0 -0.44 0.44 0 0.44 0 0 -0.44 0 -0.44 -0.44 0 -0.44 0 0 -0.44 0 -0.44 0 -0 0 -0.44 0 -0.44 0.44 0 0.44 0 0 -0.44 0 -0.44 0 -0.44 0 -0.44 0 -0 0 -0.44 0 -0.44 0.44 0 0.44 0 0 0.44 0 0.44 0.44 0 0.44 0 0 0.44 0 0.44 -0.44 0 -0.44 0 0 0.44 0 0.44 0.44 0 0.44 0 0 0.44 0 0.44zm0 -3.5l-0.44 0 -0.44 0 0 -0.44 0 -0.44 0.44 0 0.44 0 0 0.44 0 0.44zm-1.75 27.98l-0.44 0 -0.44 0 0 -0.44 0 -0.44 0.44 0 0.44 0 0 0.44 0 0.44zm-0.87 0.87l-0.44 0 -0.44 0 0 -0.44 0 -0.44 0.44 0 0.44 0 0 0.44 0 0.44zm0 -3.5l-0.44 0 -0.44 0 0 -0.44 0 -0.44 0.44 0 0.44 0 0 0.44 0 0.44zm0 -6.12l-0.44 0 -0.44 0 -0 0 -0.44 0 -0.44 0 0 -0.44 0 -0.44 0.44 0 0.44 0 0 0 0.44 0 0.44 0 0 0.44 0 0.44zm0 -3.5l-0.44 0 -0.44 0 0 0.44 0 0.44 -0.44 0 -0.44 0 -0.44 0 -0.44 0 0 -0.44 0 -0.44 0.44 0 0.44 0 0 -0.44 0 -0.44 0.44 0 0.44 0 0 0 0.44 0 0.44 0 0 0.44 0 0.44zm0 -7.87l-0.44 0 -0.44 0 0 -0.44 0 -0.44 0.44 0 0.44 0 0 0.44 0 0.44zm0 -2.62l-0.44 0 -0.44 0 0 -0.44 0 -0.44 0.44 0 0.44 0 0 0.44 0 0.44zm-0.87 21.86l-0.44 0 -0.44 0 0 -0.44 0 -0.44 0.44 0 0.44 0 0 0.44 0 0.44zm0 -3.5l-0.44 0 -0.44 0 0 -0.44 0 -0.44 0.44 0 0.44 0 0 0.44 0 0.44zm0 -10.49l-0.44 0 -0.44 0 0 0.44 0 0.44 -0.44 0 -0.44 0 0 -0.44 0 -0.44 0 -0.44 0 -0.44 0.44 0 0.44 0 0.44 0 0.44 0 0 0.44 0 0.44zm0 -1.75l-0.44 0 -0.44 0 0 -0.44 0 -0.44 0.44 0 0.44 0 0 0.44 0 0.44zm0 -1.75l-0.44 0 -0.44 0 0 0.44 0 0.44 -0.44 0 -0.44 0 0 -0.44 0 -0.44 -0.44 0 -0.44 0 -0 0 -0.44 0 -0.44 0 0 -0.44 0 -0.44 0.44 0 0.44 0 0 0 0.44 0 0.44 0 0.44 0 0.44 0 0.44 0 0.44 0 0 0.44 0 0.44zm0 -2.62l-0.44 0 -0.44 0 -0.44 0 -0.44 0 -0.44 0 -0.44 0 -0 0 -0.44 0 -0.44 0 0 -0.44 0 -0.44 0 -0 0 -0.44 0 -0.44 0.44 0 0.44 0 0 0.44 0 0.44 0.44 0 0.44 0 0.44 0 0.44 0 0.44 0 0.44 0 0 0.44 0 0.44zm0 -2.62l-0.44 0 -0.44 0 0 -0.44 0 -0.44 0 -0 0 -0.44 0 -0.44 -0.44 0 -0.44 0 0 -0.44 0 -0.44 0.44 0 0.44 0 0 -0.44 0 -0.44 0 -0 0 -0.44 0 -0.44 0 -0.44 0 -0.44 -0.44 0 -0.44 0 -0.44 0 -0.44 0 0 0.44 0 0.44 0.44 0 0.44 0 0 0.44 0 0.44 -0.44 0 -0.44 0 -0 0 -0.44 0 -0.44 0 -0.44 0 -0.44 0 0 -0.44 0 -0.44 0 -0.44 0 -0.44 0.44 0 0.44 0 0 -0.44 0 -0.44 0.44 0 0.44 0 0 -0.44 0 -0.44 0.44 0 0.44 0 0 0.44 0 0.44 0.44 0 0.44 0 0 -0.44 0 -0.44 0.44 0 0.44 0 0 0.44 0 0.44 0 0 0 0.44 0 0.44 0 0.44 0 0.44 0 0.44 0 0.44 0 0 0 0.44 0 0.44 0 0.44 0 0.44 0 0.44 0 0.44 0 0 0 0.44 0 0.44zm0 -8.74l-0.44 0 -0.44 0 0 -0.44 0 -0.44 0.44 0 0.44 0 0 0.44 0 0.44zm-0.87 32.35l-0.44 0 -0.44 0 0 -0.44 0 -0.44 0.44 0 0.44 0 0 0.44 0 0.44zm0 -3.5l-0.44 0 -0.44 0 0 0.44 0 0.44 -0.44 0 -0.44 0 0 0.44 0 0.44 0.44 0 0.44 0 0 0.44 0 0.44 -0.44 0 -0.44 0 -0 0 -0.44 0 -0.44 0 0 -0.44 0 -0.44 0 -0.44 0 -0.44 0 -0.44 0 -0.44 0.44 0 0.44 0 0 -0.44 0 -0.44 0.44 0 0.44 0 0.44 0 0.44 0 0 0.44 0 0.44zm0 -4.37l-0.44 0 -0.44 0 0 -0.44 0 -0.44 0.44 0 0.44 0 0 0.44 0 0.44zm0 -23.61l-0.44 0 -0.44 0 -0.44 0 -0.44 0 0 0.44 0 0.44 -0.44 0 -0.44 0 -0.44 0 -0.44 0 0 -0.44 0 -0.44 0.44 0 0.44 0 0 -0.44 0 -0.44 0 -0 0 -0.44 0 -0.44 0 -0.44 0 -0.44 0.44 0 0.44 0 0 0 0.44 0 0.44 0 0 0.44 0 0.44 -0.44 0 -0.44 0 0 0.44 0 0.44 0.44 0 0.44 0 0.44 0 0.44 0 0 0.44 0 0.44zm-0.87 24.48l-0.44 0 -0.44 0 0 -0.44 0 -0.44 0.44 0 0.44 0 0 0.44 0 0.44zm0 -2.62l-0.44 0 -0.44 0 -0 0 -0.44 0 -0.44 0 0 0.44 0 0.44 -0.44 0 -0.44 0 -0.44 0 -0.44 0 0 0.44 0 0.44 0.44 0 0.44 0 0.44 0 0.44 0 0 0.44 0 0.44 -0.44 0 -0.44 0 -0.44 0 -0.44 0 0 0.44 0 0.44 0.44 0 0.44 0 0 0.44 0 0.44 -0.44 0 -0.44 0 0 0.44 0 0.44 -0.44 0 -0.44 0 -0.44 0 -0.44 0 0 0.44 0 0.44 0.44 0 0.44 0 0 0.44 0 0.44 0 0.44 0 0.44 -0.44 0 -0.44 0 0 -0.44 0 -0.44 -0.44 0 -0.44 0 -0 0 -0.44 0 -0.44 0 -0.44 0 -0.44 0 0 -0.44 0 -0.44 0 -0 0 -0.44 0 -0.44 0.44 0 0.44 0 0 -0.44 0 -0.44 0.44 0 0.44 0 0 0 0.44 0 0.44 0 0 -0.44 0 -0.44 0.44 0 0.44 0 0 -0.44 0 -0.44 0 -0.44 0 -0.44 0 -0.44 0 -0.44 -0.44 0 -0.44 0 0 0.44 0 0.44 0 0.44 0 0.44 0 0.44 0 0.44 -0.44 0 -0.44 0 -0 0 -0.44 0 -0.44 0 0 0.44 0 0.44 -0.44 0 -0.44 0 0 -0.44 0 -0.44 0 -0 0 -0.44 0 -0.44 0 -0.44 0 -0.44 0.44 0 0.44 0 0 -0.44 0 -0.44 0.44 0 0.44 0 0 -0.44 0 -0.44 0.44 0 0.44 0 0.44 0 0.44 0 0 -0.44 0 -0.44 0.44 0 0.44 0 0 0 0.44 0 0.44 0 0 -0.44 0 -0.44 0.44 0 0.44 0 0 0.44 0 0.44 0.44 0 0.44 0 0 -0.44 0 -0.44 0.44 0 0.44 0 0 0.44 0 0.44 0 0.44 0 0.44zm0 -2.62l-0.44 0 -0.44 0 0 0.44 0 0.44 -0.44 0 -0.44 0 0 -0.44 0 -0.44 0 -0.44 0 -0.44 0 -0.44 0 -0.44 0.44 0 0.44 0 0 0.44 0 0.44 0.44 0 0.44 0 0 0.44 0 0.44zm0 -3.5l-0.44 0 -0.44 0 0 -0.44 0 -0.44 0 -0 0 -0.44 0 -0.44 0.44 0 0.44 0 0 0.44 0 0.44 0 0 0 0.44 0 0.44zm0 -7.87l-0.44 0 -0.44 0 0 -0.44 0 -0.44 -0.44 0 -0.44 0 -0.44 0 -0.44 0 -0.44 0 -0.44 0 0 -0.44 0 -0.44 0.44 0 0.44 0 0.44 0 0.44 0 0 -0.44 0 -0.44 0.44 0 0.44 0 0 0.44 0 0.44 0.44 0 0.44 0 0 0.44 0 0.44 0 0 0 0.44 0 0.44zm-0.87 17.49l-0.44 0 -0.44 0 0 -0.44 0 -0.44 0.44 0 0.44 0 0 0.44 0 0.44zm0 -1.75l-0.44 0 -0.44 0 0 -0.44 0 -0.44 0.44 0 0.44 0 0 0.44 0 0.44zm-0.87 4.37l-0.44 0 -0.44 0 0 0.44 0 0.44 0 0.44 0 0.44 -0.44 0 -0.44 0 0 -0.44 0 -0.44 0 -0.44 0 -0.44 0 -0 0 -0.44 0 -0.44 0.44 0 0.44 0 0.44 0 0.44 0 0 0.44 0 0.44zm0 -11.37l-0.44 0 -0.44 0 -0.44 0 -0.44 0 -0 0 -0.44 0 -0.44 0 0 -0.44 0 -0.44 0 -0.44 0 -0.44 0 -0 0 -0.44 0 -0.44 0.44 0 0.44 0 0 0 0.44 0 0.44 0 0.44 0 0.44 0 0 0.44 0 0.44 0 0 0 0.44 0 0.44 0 0.44 0 0.44zm0 -4.37l-0.44 0 -0.44 0 0 -0.44 0 -0.44 0.44 0 0.44 0 0 0.44 0 0.44zm-0.87 20.99l-0.44 0 -0.44 0 0 -0.44 0 -0.44 0 -0.44 0 -0.44 0 -0.44 0 -0.44 0.44 0 0.44 0 0 0.44 0 0.44 0 0.44 0 0.44 0 0.44 0 0.44zm0 -13.99l-0.44 0 -0.44 0 0 -0.44 0 -0.44 -0.44 0 -0.44 0 -0.44 0 -0.44 0 0 -0.44 0 -0.44 0.44 0 0.44 0 0.44 0 0.44 0 0 0 0.44 0 0.44 0 0 0.44 0 0.44 0 0.44 0 0.44zm0 -6.12l-0.44 0 -0.44 0 0 -0.44 0 -0.44 0.44 0 0.44 0 0 0.44 0 0.44zm0 -2.62l-0.44 0 -0.44 0 0 -0.44 0 -0.44 0.44 0 0.44 0 0 0.44 0 0.44zm0 -7.87l-0.44 0 -0.44 0 -0 0 -0.44 0 -0.44 0 0 -0.44 0 -0.44 -0.44 0 -0.44 0 0 0.44 0 0.44 -0.44 0 -0.44 0 -0 0 -0.44 0 -0.44 0 0 -0.44 0 -0.44 0.44 0 0.44 0 0 -0.44 0 -0.44 -0.44 0 -0.44 0 0 -0.44 0 -0.44 0.44 0 0.44 0 0 0 0.44 0 0.44 0 0.44 0 0.44 0 0.44 0 0.44 0 0 0.44 0 0.44 0 0.44 0 0.44 0.44 0 0.44 0 0 0.44 0 0.44zm0 -2.62l-0.44 0 -0.44 0 0 -0.44 0 -0.44 0.44 0 0.44 0 0 0.44 0 0.44zm-0.44 15.74l0.44 0 0 -0.44 0 -0.44 -0.44 0 -0.44 0 0 0.44 0 0.44 0.44 0zm-0.44 14.87l-0.44 0 -0.44 0 0 -0.44 0 -0.44 0.44 0 0.44 0 0 0.44 0 0.44zm0 -10.49l-0.44 0 -0.44 0 0 0.44 0 0.44 -0.44 0 -0.44 0 -0.44 0 -0.44 0 -0 0 -0.44 0 -0.44 0 -0.44 0 -0.44 0 0 0.44 0 0.44 -0.44 0 -0.44 0 0 -0.44 0 -0.44 0 -0.44 0 -0.44 -0.44 0 -0.44 0 0 -0.44 0 -0.44 -0.44 0 -0.44 0 -0.44 0 -0.44 0 -0 0 -0.44 0 -0.44 0 0 -0.44 0 -0.44 0.44 0 0.44 0 0 -0.44 0 -0.44 0 -0 0 -0.44 0 -0.44 0.44 0 0.44 0 0 0.44 0 0.44 0 0 0 0.44 0 0.44 0.44 0 0.44 0 0 -0.44 0 -0.44 0 -0 0 -0.44 0 -0.44 0.44 0 0.44 0 0 -0.44 0 -0.44 0.44 0 0.44 0 0 0.44 0 0.44 0 0.44 0 0.44 0.44 0 0.44 0 0 0.44 0 0.44 -0.44 0 -0.44 0 -0.44 0 -0.44 0 0 0.44 0 0.44 0.44 0 0.44 0 0.44 0 0.44 0 0.44 0 0.44 0 0 0 0.44 0 0.44 0 0.44 0 0.44 0 0.44 0 0.44 0 0 0.44 0 0.44zm0 -7.87l-0.44 0 -0.44 0 -0.44 0 -0.44 0 -0.44 0 -0.44 0 0 -0.44 0 -0.44 -0.44 0 -0.44 0 0 -0.44 0 -0.44 0.44 0 0.44 0 0 -0.44 0 -0.44 -0.44 0 -0.44 0 0 -0.44 0 -0.44 0.44 0 0.44 0 0 0 0.44 0 0.44 0 0 0.44 0 0.44 0 0 0 0.44 0 0.44 0.44 0 0.44 0 0.44 0 0.44 0 0 0.44 0 0.44 0 0.44 0 0.44zm0 -3.5l-0.44 0 -0.44 0 -0.44 0 -0.44 0 0 -0.44 0 -0.44 -0.44 0 -0.44 0 -0 0 -0.44 0 -0.44 0 0 -0.44 0 -0.44 0 -0 0 -0.44 0 -0.44 -0.44 0 -0.44 0 0 0.44 0 0.44 0 0 0 0.44 0 0.44 -0.44 0 -0.44 0 0 0.44 0 0.44 0.44 0 0.44 0 0 0.44 0 0.44 -0.44 0 -0.44 0 0 0.44 0 0.44 -0.44 0 -0.44 0 0 -0.44 0 -0.44 0 -0 0 -0.44 0 -0.44 -0.44 0 -0.44 0 -0.44 0 -0.44 0 -0 0 -0.44 0 -0.44 0 0 -0.44 0 -0.44 0.44 0 0.44 0 0 0 0.44 0 0.44 0 0 -0.44 0 -0.44 0.44 0 0.44 0 0.44 0 0.44 0 0 -0.44 0 -0.44 -0.44 0 -0.44 0 0 -0.44 0 -0.44 -0.44 0 -0.44 0 -0.44 0 -0.44 0 -0 0 -0.44 0 -0.44 0 0 -0.44 0 -0.44 0.44 0 0.44 0 0 -0.44 0 -0.44 0 -0.44 0 -0.44 0.44 0 0.44 0 0.44 0 0.44 0 0 0.44 0 0.44 0.44 0 0.44 0 0 -0.44 0 -0.44 -0.44 0 -0.44 0 0 -0.44 0 -0.44 0.44 0 0.44 0 0 0 0.44 0 0.44 0 0 0.44 0 0.44 0 0.44 0 0.44 0.44 0 0.44 0 0 0.44 0 0.44 0 0 0 0.44 0 0.44 0.44 0 0.44 0 0 0 0.44 0 0.44 0 0 -0.44 0 -0.44 -0.44 0 -0.44 0 0 -0.44 0 -0.44 0.44 0 0.44 0 0 -0.44 0 -0.44 0.44 0 0.44 0 0 0.44 0 0.44 0 0.44 0 0.44 0.44 0 0.44 0 0 0.44 0 0.44 -0.44 0 -0.44 0 0 0.44 0 0.44 0 0.44 0 0.44 0 0 0 0.44 0 0.44 0.44 0 0.44 0 0 0.44 0 0.44zm0 -9.62l-0.44 0 -0.44 0 0 -0.44 0 -0.44 0.44 0 0.44 0 0 0.44 0 0.44zm-0.87 33.23l-0.44 0 -0.44 0 -0.44 0 -0.44 0 -0 0 -0.44 0 -0.44 0 0 -0.44 0 -0.44 0.44 0 0.44 0 0 -0.44 0 -0.44 -0.44 0 -0.44 0 0 -0.44 0 -0.44 0.44 0 0.44 0 0 0 0.44 0 0.44 0 0 0.44 0 0.44 0 0 0 0.44 0 0.44 0.44 0 0.44 0 0 0.44 0 0.44zm-0.87 -14.87l-0.44 0 -0.44 0 0 -0.44 0 -0.44 -0.44 0 -0.44 0 0 -0.44 0 -0.44 0.44 0 0.44 0 0 -0.44 0 -0.44 -0.44 0 -0.44 0 -0.44 0 -0.44 0 0 -0.44 0 -0.44 0 -0.44 0 -0.44 0.44 0 0.44 0 0 0.44 0 0.44 0.44 0 0.44 0 0 0 0.44 0 0.44 0 0 0.44 0 0.44 0 0 0 0.44 0 0.44 0 0.44 0 0.44 0 0.44 0 0.44zm-0.44 -10.49l0.44 0 0 -0.44 0 -0.44 -0.44 0 -0.44 0 0 0.44 0 0.44 0.44 0zm-0.44 6.12l-0.44 0 -0.44 0 0 -0.44 0 -0.44 0.44 0 0.44 0 0 0.44 0 0.44zm-0.87 -0.87l-0.44 0 -0.44 0 0 -0.44 0 -0.44 0.44 0 0.44 0 0 0.44 0 0.44zm0 -1.75l-0.44 0 -0.44 0 0 -0.44 0 -0.44 0.44 0 0.44 0 0 0.44 0 0.44zm0 -1.75l-0.44 0 -0.44 0 0 -0.44 0 -0.44 0.44 0 0.44 0 0 0.44 0 0.44zm-0.87 22.74l-0.44 0 -0.44 0 -0 0 -0.44 0 -0.44 0 -0.44 0 -0.44 0 -0.44 0 -0.44 0 0 -0.44 0 -0.44 0.44 0 0.44 0 0.44 0 0.44 0 0.44 0 0.44 0 0 -0.44 0 -0.44 0.44 0 0.44 0 0 0.44 0 0.44 0 0 0 0.44 0 0.44zm0 -7.87l-0.44 0 -0.44 0 0 -0.44 0 -0.44 0.44 0 0.44 0 0 0.44 0 0.44zm0 -10.49l-0.44 0 -0.44 0 0 -0.44 0 -0.44 0.44 0 0.44 0 0 0.44 0 0.44zm0 -1.75l-0.44 0 -0.44 0 0 -0.44 0 -0.44 0.44 0 0.44 0 0 0.44 0 0.44zm-0.44 -6.12l0.44 0 0 -0.44 0 -0.44 -0.44 0 -0.44 0 0 0.44 0 0.44 0.44 0zm-0.44 17.49l-0.44 0 -0.44 0 -0.44 0 -0.44 0 -0.44 0 -0.44 0 -0 0 -0.44 0 -0.44 0 0 -0.44 0 -0.44 0.44 0 0.44 0 0 -0.44 0 -0.44 0 -0.44 0 -0.44 0.44 0 0.44 0 0.44 0 0.44 0 0 0.44 0 0.44 0 0.44 0 0.44 0.44 0 0.44 0 0 0.44 0 0.44zm0 -7.87l-0.44 0 -0.44 0 0 -0.44 0 -0.44 0 -0.44 0 -0.44 0.44 0 0.44 0 0 0.44 0 0.44 0 0.44 0 0.44zm0 -2.62l-0.44 0 -0.44 0 -0.44 0 -0.44 0 0 -0.44 0 -0.44 0 -0.44 0 -0.44 0.44 0 0.44 0 0 0.44 0 0.44 0.44 0 0.44 0 0 0.44 0 0.44zm-0.87 20.55l0 0.44 -0.44 0 -0.44 0 0 -0.44 0 -0.44 0.44 0 0.44 0 0 0.44zm0 -17.05l-0.44 0 -0.44 0 0 -0.44 0 -0.44 0.44 0 0.44 0 0 0.44 0 0.44zm0 -13.99l-0.44 0 -0.44 0 0 -0.44 0 -0.44 0.44 0 0.44 0 0 0.44 0 0.44zm-0.87 13.12l-0.44 0 -0.44 0 0 0.44 0 0.44 -0.44 0 -0.44 0 0 -0.44 0 -0.44 0 -0 0 -0.44 0 -0.44 0.44 0 0.44 0 0 -0.44 0 -0.44 0.44 0 0.44 0 0 0.44 0 0.44 0 0.44 0 0.44zm0 -4.37l-0.44 0 -0.44 0 0 -0.44 0 -0.44 0.44 0 0.44 0 0 0.44 0 0.44zm-0.87 22.3l0 0.44 -0.44 0 -0.44 0 0 -0.44 0 -0.44 0.44 0 0.44 0 0 0.44zm0 -20.55l-0.44 0 -0.44 0 0 -0.44 0 -0.44 -0.44 0 -0.44 0 0 -0.44 0 -0.44 0.44 0 0.44 0 0.44 0 0.44 0 0 0.44 0 0.44 0 0.44 0 0.44zm0 -5.25l-0.44 0 -0.44 0 0 -0.44 0 -0.44 0.44 0 0.44 0 0 0.44 0 0.44zm0 -5.25l-0.44 0 -0.44 0 0 -0.44 0 -0.44 0.44 0 0.44 0 0 0.44 0 0.44zm-0.87 19.24l-0.44 0 -0.44 0 0 0.44 0 0.44 0 0.44 0 0.44 -0.44 0 -0.44 0 -0 0 -0.44 0 -0.44 0 0 -0.44 0 -0.44 0.44 0 0.44 0 0 -0.44 0 -0.44 -0.44 0 -0.44 0 0 -0.44 0 -0.44 0 -0 0 -0.44 0 -0.44 -0.44 0 -0.44 0 0 -0.44 0 -0.44 0.44 0 0.44 0 0.44 0 0.44 0 0 0 0.44 0 0.44 0 0 0.44 0 0.44 -0.44 0 -0.44 0 0 0.44 0 0.44 0.44 0 0.44 0 0.44 0 0.44 0 0 0.44 0 0.44zm0 -3.5l-0.44 0 -0.44 0 0 -0.44 0 -0.44 0 -0.44 0 -0.44 0.44 0 0.44 0 0 0.44 0 0.44 0 0.44 0 0.44zm0 -4.37l-0.44 0 -0.44 0 0 -0.44 0 -0.44 0.44 0 0.44 0 0 0.44 0 0.44zm0 -8.74l-0.44 0 -0.44 0 0 -0.44 0 -0.44 -0.44 0 -0.44 0 0 -0.44 0 -0.44 0.44 0 0.44 0 0 -0.44 0 -0.44 0.44 0 0.44 0 0 0.44 0 0.44 0 0.44 0 0.44 0 0.44 0 0.44zm0 -3.5l-0.44 0 -0.44 0 0 0.44 0 0.44 -0.44 0 -0.44 0 0 -0.44 0 -0.44 -0.44 0 -0.44 0 -0.44 0 -0.44 0 0 -0.44 0 -0.44 -0.44 0 -0.44 0 -0 0 -0.44 0 -0.44 0 0 -0.44 0 -0.44 0.44 0 0.44 0 0 0 0.44 0 0.44 0 0 -0.44 0 -0.44 0.44 0 0.44 0 0.44 0 0.44 0 0 0.44 0 0.44 -0.44 0 -0.44 0 0 0.44 0 0.44 0.44 0 0.44 0 0 0 0.44 0 0.44 0 0 -0.44 0 -0.44 0 -0 0 -0.44 0 -0.44 0.44 0 0.44 0 0 0.44 0 0.44 0 0 0 0.44 0 0.44 0 0.44 0 0.44zm-0.87 14.87l-0.44 0 -0.44 0 0 -0.44 0 -0.44 0.44 0 0.44 0 0 0.44 0 0.44zm0 -3.5l-0.44 0 -0.44 0 0 -0.44 0 -0.44 0.44 0 0.44 0 0 0.44 0 0.44zm0 -3.5l-0.44 0 -0.44 0 0 -0.44 0 -0.44 0 -0.44 0 -0.44 -0.44 0 -0.44 0 0 -0.44 0 -0.44 0 -0.44 0 -0.44 0 -0.44 0 -0.44 0.44 0 0.44 0 0 0 0.44 0 0.44 0 0 0.44 0 0.44 -0.44 0 -0.44 0 0 0.44 0 0.44 0.44 0 0.44 0 0 0.44 0 0.44 0 0 0 0.44 0 0.44 0 0.44 0 0.44zm0 -10.49l-0.44 0 -0.44 0 0 -0.44 0 -0.44 0.44 0 0.44 0 0 0.44 0 0.44zm-0.87 18.36l-0.44 0 -0.44 0 -0.44 0 -0.44 0 0 -0.44 0 -0.44 0.44 0 0.44 0 0.44 0 0.44 0 0 0.44 0 0.44zm0 -2.62l-0.44 0 -0.44 0 0 0.44 0 0.44 -0.44 0 -0.44 0 0 -0.44 0 -0.44 -0.44 0 -0.44 0 0 0.44 0 0.44 -0.44 0 -0.44 0 0 0.44 0 0.44 0.44 0 0.44 0 0 0.44 0 0.44 0.44 0 0.44 0 0 0.44 0 0.44 -0.44 0 -0.44 0 0 0.44 0 0.44 -0.44 0 -0.44 0 -0.44 0 -0.44 0 0 0.44 0 0.44 -0.44 0 -0.44 0 0 -0.44 0 -0.44 0 -0.44 0 -0.44 0.44 0 0.44 0 0 -0.44 0 -0.44 -0.44 0 -0.44 0 0 -0.44 0 -0.44 0 -0.44 0 -0.44 0.44 0 0.44 0 0 -0.44 0 -0.44 0.44 0 0.44 0 0 -0.44 0 -0.44 0.44 0 0.44 0 0 -0.44 0 -0.44 -0.44 0 -0.44 0 -0.44 0 -0.44 0 0 -0.44 0 -0.44 0 -0.44 0 -0.44 0 -0.44 0 -0.44 0.44 0 0.44 0 0 -0.44 0 -0.44 0.44 0 0.44 0 0 0 0.44 0 0.44 0 0.44 0 0.44 0 0 0.44 0 0.44 -0.44 0 -0.44 0 -0.44 0 -0.44 0 0 0.44 0 0.44 0 0.44 0 0.44 0.44 0 0.44 0 0 0.44 0 0.44 0.44 0 0.44 0 0.44 0 0.44 0 0 0.44 0 0.44 0 0.44 0 0.44zm0 -2.62l-0.44 0 -0.44 0 0 -0.44 0 -0.44 0 -0.44 0 -0.44 0.44 0 0.44 0 0 0.44 0 0.44 0 0.44 0 0.44zm0 -8.74l-0.44 0 -0.44 0 -0.44 0 -0.44 0 0 -0.44 0 -0.44 0.44 0 0.44 0 0.44 0 0.44 0 0 0.44 0 0.44zm-0.87 26.23l-0.44 0 -0.44 0 0 -0.44 0 -0.44 0 -0 0 -0.44 0 -0.44 -0.44 0 -0.44 0 -0 0 -0.44 0 -0.44 0 0 0.44 0 0.44 -0.44 0 -0.44 0 0 -0.44 0 -0.44 -0.44 0 -0.44 0 0 -0.44 0 -0.44 -0.44 0 -0.44 0 -0.44 0 -0.44 0 -0.44 0 -0.44 0 0 -0.44 0 -0.44 0.44 0 0.44 0 0.44 0 0.44 0 0.44 0 0.44 0 0 0 0.44 0 0.44 0 0 0.44 0 0.44 0.44 0 0.44 0 0 -0.44 0 -0.44 0.44 0 0.44 0 0 -0.44 0 -0.44 0 -0.44 0 -0.44 0.44 0 0.44 0 0 0.44 0 0.44 0 0.44 0 0.44 0 0 0 0.44 0 0.44 0.44 0 0.44 0 0 0.44 0 0.44 0 0.44 0 0.44 0 0 0 0.44 0 0.44zm0 -5.25l-0.44 0 -0.44 0 0 -0.44 0 -0.44 0.44 0 0.44 0 0 0.44 0 0.44zm0 -15.74l-0.44 0 -0.44 0 -0.44 0 -0.44 0 0 -0.44 0 -0.44 0.44 0 0.44 0 0.44 0 0.44 0 0 0.44 0 0.44zm0 -3.5l-0.44 0 -0.44 0 0 0.44 0 0.44 0 0.44 0 0.44 -0.44 0 -0.44 0 -0 0 -0.44 0 -0.44 0 0 0.44 0 0.44 -0.44 0 -0.44 0 0 -0.44 0 -0.44 -0.44 0 -0.44 0 0 -0.44 0 -0.44 0.44 0 0.44 0 0.44 0 0.44 0 0 -0.44 0 -0.44 0.44 0 0.44 0 0 -0.44 0 -0.44 0 -0.44 0 -0.44 0.44 0 0.44 0 0 0.44 0 0.44 0.44 0 0.44 0 0 0.44 0 0.44zm-0.87 17.49l-0.44 0 -0.44 0 -0 0 -0.44 0 -0.44 0 0 0.44 0 0.44 -0.44 0 -0.44 0 0 -0.44 0 -0.44 -0.44 0 -0.44 0 0 -0.44 0 -0.44 -0.44 0 -0.44 0 -0.44 0 -0.44 0 0 -0.44 0 -0.44 0.44 0 0.44 0 0 -0.44 0 -0.44 0.44 0 0.44 0 0 0.44 0 0.44 0.44 0 0.44 0 0.44 0 0.44 0 0 -0.44 0 -0.44 0.44 0 0.44 0 0 0 0.44 0 0.44 0 0 0.44 0 0.44 0 0 0 0.44 0 0.44 0 0.44 0 0.44zm-0.87 12.24l-0.44 0 -0.44 0 0 -0.44 0 -0.44 0.44 0 0.44 0 0 0.44 0 0.44zm0 -10.49l-0.44 0 -0.44 0 0 -0.44 0 -0.44 0.44 0 0.44 0 0 0.44 0 0.44zm0 -20.99l-0.44 0 -0.44 0 0 0.44 0 0.44 0 0.44 0 0.44 -0.44 0 -0.44 0 -0.44 0 -0.44 0 -0 0 -0.44 0 -0.44 0 -0.44 0 -0.44 0 0 0.44 0 0.44 0 0.44 0 0.44 0.44 0 0.44 0 0.44 0 0.44 0 0 0.44 0 0.44 -0.44 0 -0.44 0 0 0.44 0 0.44 0 0.44 0 0.44 -0.44 0 -0.44 0 0 0.44 0 0.44 0.44 0 0.44 0 0 -0.44 0 -0.44 0.44 0 0.44 0 0 -0.44 0 -0.44 0 -0.44 0 -0.44 0.44 0 0.44 0 0 0.44 0 0.44 0 0.44 0 0.44 0 0.44 0 0.44 -0.44 0 -0.44 0 0 0.44 0 0.44 -0.44 0 -0.44 0 0 0.44 0 0.44 0 0.44 0 0.44 0 0 0 0.44 0 0.44 0 0.44 0 0.44 0 0.44 0 0.44 0 0 0 0.44 0 0.44 0 0.44 0 0.44 -0.44 0 -0.44 0 0 -0.44 0 -0.44 0 -0.44 0 -0.44 -0.44 0 -0.44 0 0 0.44 0 0.44 0 0.44 0 0.44 -0.44 0 -0.44 0 0 0.44 0 0.44 -0.44 0 -0.44 0 0 -0.44 0 -0.44 0 -0.44 0 -0.44 0.44 0 0.44 0 0 -0.44 0 -0.44 0 -0 0 -0.44 0 -0.44 0.44 0 0.44 0 0 0 0.44 0 0.44 0 0 -0.44 0 -0.44 0 -0.44 0 -0.44 -0.44 0 -0.44 0 0 0.44 0 0.44 -0.44 0 -0.44 0 0 -0.44 0 -0.44 0 -0 0 -0.44 0 -0.44 0 -0.44 0 -0.44 -0.44 0 -0.44 0 0 0.44 0 0.44 -0.44 0 -0.44 0 0 -0.44 0 -0.44 0 -0.44 0 -0.44 0 -0 0 -0.44 0 -0.44 0.44 0 0.44 0 0 0.44 0 0.44 0.44 0 0.44 0 0.44 0 0.44 0 0 -0.44 0 -0.44 -0.44 0 -0.44 0 0 -0.44 0 -0.44 0.44 0 0.44 0 0 -0.44 0 -0.44 -0.44 0 -0.44 0 0 -0.44 0 -0.44 0 -0.44 0 -0.44 0 -0.44 0 -0.44 0.44 0 0.44 0 0 -0.44 0 -0.44 0.44 0 0.44 0 0 -0.44 0 -0.44 0 -0.44 0 -0.44 -0.44 0 -0.44 0 0 -0.44 0 -0.44 0.44 0 0.44 0 0.44 0 0.44 0 0 -0.44 0 -0.44 0.44 0 0.44 0 0 0.44 0 0.44 0 0.44 0 0.44 0 0 0 0.44 0 0.44 0 0.44 0 0.44 0.44 0 0.44 0 0 -0.44 0 -0.44 0 -0.44 0 -0.44 0 -0 0 -0.44 0 -0.44 0.44 0 0.44 0 0 0.44 0 0.44 0.44 0 0.44 0 0 0.44 0 0.44zm-0.87 30.61l-0.44 0 -0.44 0 0 -0.44 0 -0.44 0.44 0 0.44 0 0 0.44 0 0.44zm0 -7.87l-0.44 0 -0.44 0 0 -0.44 0 -0.44 -0.44 0 -0.44 0 -0 0 -0.44 0 -0.44 0 0 -0.44 0 -0.44 0.44 0 0.44 0 0 -0.44 0 -0.44 0.44 0 0.44 0 0 0.44 0 0.44 0.44 0 0.44 0 0 0.44 0 0.44 0 0.44 0 0.44zm-0.87 -25.36l-0.44 0 -0.44 0 0 -0.44 0 -0.44 0.44 0 0.44 0 0 0.44 0 0.44zm-0.87 28.86l-0.44 0 -0.44 0 0 0.44 0 0.44 0 0.44 0 0.44 -0.44 0 -0.44 0 0 -0.44 0 -0.44 -0.44 0 -0.44 0 0 -0.44 0 -0.44 0.44 0 0.44 0 0 -0.44 0 -0.44 0 -0 0 -0.44 0 -0.44 0.44 0 0.44 0 0.44 0 0.44 0 0 0.44 0 0.44 0 0 0 0.44 0 0.44zm0 -6.12l-0.44 0 -0.44 0 0 -0.44 0 -0.44 0.44 0 0.44 0 0 0.44 0 0.44zm0 -5.25l-0.44 0 -0.44 0 0 -0.44 0 -0.44 0.44 0 0.44 0 0 0.44 0 0.44zm-0.87 -18.36l-0.44 0 -0.44 0 0 -0.44 0 -0.44 0.44 0 0.44 0 0 0.44 0 0.44zm-0.87 33.23l-0.44 0 -0.44 0 0 -0.44 0 -0.44 0 -0.44 0 -0.44 0.44 0 0.44 0 0 0.44 0 0.44 0 0.44 0 0.44zm0 -9.62l-0.44 0 -0.44 0 0 -0.44 0 -0.44 0.44 0 0.44 0 0 0.44 0 0.44zm0 -4.37l-0.44 0 -0.44 0 -0 0 -0.44 0 -0.44 0 0 -0.44 0 -0.44 0.44 0 0.44 0 0 -0.44 0 -0.44 0.44 0 0.44 0 0 0.44 0 0.44 0 0 0 0.44 0 0.44zm0 -18.36l-0.44 0 -0.44 0 0 0.44 0 0.44 -0.44 0 -0.44 0 0 -0.44 0 -0.44 -0.44 0 -0.44 0 0 -0.44 0 -0.44 0 -0 0 -0.44 0 -0.44 0.44 0 0.44 0 0 0.44 0 0.44 0.44 0 0.44 0 0 0 0.44 0 0.44 0 0 0.44 0 0.44zm-0.87 30.61l-0.44 0 -0.44 0 -0.44 0 -0.44 0 0 0.44 0 0.44 -0.44 0 -0.44 0 -0 0 -0.44 0 -0.44 0 0 -0.44 0 -0.44 0.44 0 0.44 0 0 -0.44 0 -0.44 0 -0.44 0 -0.44 0.44 0 0.44 0 0 -0.44 0 -0.44 0.44 0 0.44 0 0.44 0 0.44 0 0 0.44 0 0.44 -0.44 0 -0.44 0 0 0.44 0 0.44 0.44 0 0.44 0 0 0.44 0 0.44zm0 -3.5l-0.44 0 -0.44 0 -0.44 0 -0.44 0 0 -0.44 0 -0.44 0.44 0 0.44 0 0.44 0 0.44 0 0 0.44 0 0.44zm0 -3.5l-0.44 0 -0.44 0 0 -0.44 0 -0.44 0.44 0 0.44 0 0 0.44 0 0.44zm0 -3.5l-0.44 0 -0.44 0 -0.44 0 -0.44 0 -0.44 0 -0.44 0 -0 0 -0.44 0 -0.44 0 -0.44 0 -0.44 0 0 -0.44 0 -0.44 0.44 0 0.44 0 0 -0.44 0 -0.44 -0.44 0 -0.44 0 0 -0.44 0 -0.44 0.44 0 0.44 0 0.44 0 0.44 0 0 0 0.44 0 0.44 0 0 0.44 0 0.44 -0.44 0 -0.44 0 0 0.44 0 0.44 0.44 0 0.44 0 0 -0.44 0 -0.44 0.44 0 0.44 0 0 0.44 0 0.44 0.44 0 0.44 0 0 0.44 0 0.44zm0 -16.61l-0.44 0 -0.44 0 0 -0.44 0 -0.44 0.44 0 0.44 0 0 0.44 0 0.44zm-0.44 31.48l0.44 0 0 -0.44 0 -0.44 -0.44 0 -0.44 0 0 0.44 0 0.44 0.44 0zm-0.44 -10.49l-0.44 0 -0.44 0 -0.44 0 -0.44 0 -0 0 -0.44 0 -0.44 0 0 -0.44 0 -0.44 -0.44 0 -0.44 0 0 -0.44 0 -0.44 0.44 0 0.44 0 0.44 0 0.44 0 0 -0.44 0 -0.44 -0.44 0 -0.44 0 -0.44 0 -0.44 0 0 -0.44 0 -0.44 0.44 0 0.44 0 0.44 0 0.44 0 0 0 0.44 0 0.44 0 0 0.44 0 0.44 0.44 0 0.44 0 0 0.44 0 0.44 -0.44 0 -0.44 0 0 0.44 0 0.44 0.44 0 0.44 0 0 0.44 0 0.44zm0 -10.49l-0.44 0 -0.44 0 0 -0.44 0 -0.44 0.44 0 0.44 0 0 0.44 0 0.44zm0 -6.12l-0.44 0 -0.44 0 -0.44 0 -0.44 0 0 0.44 0 0.44 -0.44 0 -0.44 0 0 -0.44 0 -0.44 -0.44 0 -0.44 0 0 0.44 0 0.44 -0.44 0 -0.44 0 0 -0.44 0 -0.44 0 -0.44 0 -0.44 0.44 0 0.44 0 0.44 0 0.44 0 0.44 0 0.44 0 0 -0.44 0 -0.44 0.44 0 0.44 0 0 0.44 0 0.44 0.44 0 0.44 0 0 0.44 0 0.44zm0 -3.5l-0.44 0 -0.44 0 0 0.44 0 0.44 -0.44 0 -0.44 0 -0 0 -0.44 0 -0.44 0 0 -0.44 0 -0.44 -0.44 0 -0.44 0 0 -0.44 0 -0.44 0.44 0 0.44 0 0 -0.44 0 -0.44 -0.44 0 -0.44 0 0 0.44 0 0.44 -0.44 0 -0.44 0 -0 0 -0.44 0 -0.44 0 0 -0.44 0 -0.44 0.44 0 0.44 0 0 -0.44 0 -0.44 0.44 0 0.44 0 0.44 0 0.44 0 0 -0.44 0 -0.44 0.44 0 0.44 0 0 -0.44 0 -0.44 0.44 0 0.44 0 0 0.44 0 0.44 0 0.44 0 0.44 -0.44 0 -0.44 0 0 0.44 0 0.44 0 0.44 0 0.44 0.44 0 0.44 0 0.44 0 0.44 0 0 0.44 0 0.44zm0 -1.75l-0.44 0 -0.44 0 0 -0.44 0 -0.44 0.44 0 0.44 0 0 0.44 0 0.44zm-0.87 30.61l-0.44 0 -0.44 0 -0 0 -0.44 0 -0.44 0 0 -0.44 0 -0.44 0.44 0 0.44 0 0 0 0.44 0 0.44 0 0 0.44 0 0.44zm0 -7l-0.44 0 -0.44 0 0 -0.44 0 -0.44 0.44 0 0.44 0 0 0.44 0 0.44zm0 -13.12l-0.44 0 -0.44 0 0 -0.44 0 -0.44 0.44 0 0.44 0 0 0.44 0 0.44zm-0.87 3.5l-0.44 0 -0.44 0 -0.44 0 -0.44 0 -0.44 0 -0.44 0 0 -0.44 0 -0.44 0 -0.44 0 -0.44 0 -0 0 -0.44 0 -0.44 0.44 0 0.44 0 0.44 0 0.44 0 0.44 0 0.44 0 0 0.44 0 0.44 0 0 0 0.44 0 0.44 0 0.44 0 0.44zm0 -4.37l-0.44 0 -0.44 0 0 -0.44 0 -0.44 0.44 0 0.44 0 0 0.44 0 0.44zm0 -13.12l-0.44 0 -0.44 0 -0.44 0 -0.44 0 0 0.44 0 0.44 0.44 0 0.44 0 0 0.44 0 0.44 -0.44 0 -0.44 0 -0.44 0 -0.44 0 -0 0 -0.44 0 -0.44 0 0 -0.44 0 -0.44 0 -0.44 0 -0.44 0.44 0 0.44 0 0 -0.44 0 -0.44 0.44 0 0.44 0 0.44 0 0.44 0 0 -0.44 0 -0.44 0.44 0 0.44 0 0 0.44 0 0.44 0 0.44 0 0.44zm-0.87 34.54l0 0.44 -0.44 0 -0.44 0 0 -0.44 0 -0.44 0.44 0 0.44 0 0 0.44zm0 -1.75l0 0.44 -0.44 0 -0.44 0 0 -0.44 0 -0.44 0.44 0 0.44 0 0 0.44zm0 -3.5l0 0.44 -0.44 0 -0.44 0 0 -0.44 0 -0.44 0.44 0 0.44 0 0 0.44zm0 -3.06l-0.44 0 -0.44 0 0 -0.44 0 -0.44 0.44 0 0.44 0 0 0.44 0 0.44zm0 -12.24l-0.44 0 -0.44 0 -0.44 0 -0.44 0 -0 0 -0.44 0 -0.44 0 0 -0.44 0 -0.44 0 -0 0 -0.44 0 -0.44 -0.44 0 -0.44 0 0 -0.44 0 -0.44 0.44 0 0.44 0 0.44 0 0.44 0 0 0.44 0 0.44 0 0.44 0 0.44 0.44 0 0.44 0 0.44 0 0.44 0 0 0.44 0 0.44zm0 -1.75l-0.44 0 -0.44 0 0 -0.44 0 -0.44 0.44 0 0.44 0 0 0.44 0 0.44zm0 -1.75l-0.44 0 -0.44 0 0 -0.44 0 -0.44 0.44 0 0.44 0 0 0.44 0 0.44zm-0.44 6.12l0.44 0 0 -0.44 0 -0.44 -0.44 0 -0.44 0 0 0.44 0 0.44 0.44 0zm-0.44 17.05l0 0.44 -0.44 0 -0.44 0 -0 0 -0.44 0 -0.44 0 0 -0.44 0 -0.44 0.44 0 0.44 0 0 0 0.44 0 0.44 0 0 0.44zm0 -22.74l0 0.44 -0.44 0 -0.44 0 0 -0.44 0 -0.44 0.44 0 0.44 0 0 0.44zm-0.87 10.49l0 0.44 -0.44 0 -0.44 0 0 -0.44 0 -0.44 0.44 0 0.44 0 0 0.44zm0 -22.3l-0.44 0 -0.44 0 0 -0.44 0 -0.44 0.44 0 0.44 0 0 0.44 0 0.44zm-0.87 30.17l0 0.44 -0.44 0 -0.44 0 0 -0.44 0 -0.44 0.44 0 0.44 0 0 0.44zm0 -19.24l0 0.44 -0.44 0 -0.44 0 0 -0.44 0 -0.44 0.44 0 0.44 0 0 0.44zm0 -10.06l-0.44 0 -0.44 0 0 -0.44 0 -0.44 0.44 0 0.44 0 0 0.44 0 0.44zm-0.87 4.37l-0.44 0 -0.44 0 0 -0.44 0 -0.44 0.44 0 0.44 0 0 0.44 0 0.44zm-1.31 4.37l0.44 0 0 -0.44 0 -0.44 -0.44 0 -0.44 0 0 0.44 0 0.44 0.44 0zm-0.87 6.12l0.44 0 0 -0.44 0 -0.44 -0.44 0 -0.44 0 0 0.44 0 0.44 0.44 0z"/>
 </g>
</svg>
