<?xml version="1.0" encoding="UTF-8"?>
<!DOCTYPE svg PUBLIC "-//W3C//DTD SVG 1.1//EN" "http://www.w3.org/Graphics/SVG/1.1/DTD/svg11.dtd">
<!-- Creator: CorelDRAW -->
<svg xmlns="http://www.w3.org/2000/svg" xml:space="preserve" width="1.99304in" height="0.591232in" version="1.1" style="shape-rendering:geometricPrecision; text-rendering:geometricPrecision; image-rendering:optimizeQuality; fill-rule:evenodd; clip-rule:evenodd"
viewBox="0 0 104.28 30.94"
 xmlns:xlink="http://www.w3.org/1999/xlink"
 xmlns:xodm="http://www.corel.com/coreldraw/odm/2003">
 <defs>
  <style type="text/css">
   <![CDATA[
    .fil0 {fill:white}
   ]]>
  </style>
 </defs>
 <g id="Layer_x0020_1">
  <metadata id="CorelCorpID_0Corel-Layer"/>
  <path class="fil0" d="M3.86 21.54l1.02 0c0.22,0 0.58,0.05 1.09,0.16 0.91,0 1.84,0.61 2.8,1.82 0.21,0.35 0.38,0.69 0.49,1.02l0.3 0c0.07,0 0.1,0.01 0.1,0.04l0.16 -0.04 0.36 0c0.05,0 0.08,0.06 0.1,0.17l-0.23 0.06 -0.19 -0.04 -0.13 0.04c-0.02,0 -0.04,-0.01 -0.04,-0.04l-0.16 0.04 -0.06 0 -0.06 -0.04c-0.02,0.04 -0.03,0.08 -0.03,0.1l0.03 0.23 -0.23 0.07c-0.04,-0.02 -0.08,-0.04 -0.1,-0.04l-0.03 0.06 0.06 0.04 0.3 0c0.1,0.13 0.24,0.2 0.43,0.2l0.04 0.33 0 0.59c0,0.05 -0.01,0.1 -0.04,0.13 0.02,0.04 0.04,0.08 0.04,0.13 -0.11,0.62 -0.2,0.93 -0.27,0.93l-0.2 0 -0.03 0.16 0 0.03 0.16 0.13 -0.29 0.6 0 0.03 0.66 0.7 0 0.06 -0.2 0 0.3 0.33c-0.55,0.54 -0.82,0.83 -0.83,0.86l0 0.03 0.1 0 0 0.06c-0.26,0.27 -0.39,0.42 -0.39,0.43l-0.33 -0.04 -0.13 0c-0.32,-0.31 -0.49,-0.46 -0.53,-0.46 -0.05,0 -0.1,0.01 -0.13,0.03l-0.46 -0.4c-0.4,0.23 -0.93,0.41 -1.58,0.56l0 -0.04c-0.14,0.05 -0.4,0.07 -0.79,0.07 -0.92,0 -1.64,-0.12 -2.18,-0.36 -0.45,-0.18 -0.96,-0.53 -1.52,-1.06l0 -0.03 0.07 -0.04 0.16 0 0 -0.03 -0.46 -0.63 0.04 -0.07c-0.03,0 -0.07,-0.03 -0.1,-0.1l-0.13 0.03c-0.02,0 -0.28,-0.01 -0.79,-0.03l0 -0.1 0.79 0c0,-0.06 -0.12,-0.36 -0.36,-0.92 -0.09,-0.54 -0.13,-0.85 -0.13,-0.93l0 -0.69c0,-0.04 0.13,-0.08 0.39,-0.1l0 -0.1c0,-0.04 -0.11,-0.08 -0.33,-0.1 0,-0.03 -0.03,-0.06 -0.1,-0.1l-0.2 0.03c0,-0.02 -0.01,-0.03 -0.03,-0.03 0,-0.04 0.04,-0.23 0.13,-0.56 0.46,-0.02 0.78,-0.04 0.95,-0.04l0.04 -0.06 0 -0.1 -0.89 0 0 -0.04c0.07,-0.41 0.41,-0.96 1.03,-1.65 0.5,-0.5 1.06,-0.87 1.68,-1.09l0.03 -0.06 -0.06 0 0 -0.06c0.38,-0.09 0.69,-0.13 0.93,-0.13zm-3.86 -19.68c0,1.5 0,3 0,4.49 1.5,0 3,0 4.49,0 0,-1.5 0,-3 0,-4.49 -1.5,0 -3,0 -4.49,0zm22.48 16.05c1.39,0 2.84,-0.53 4.33,-1.6 0.41,-0.36 0.65,-0.53 0.71,-0.53 0,-0.07 -0.04,-0.11 -0.12,-0.12l-1.54 0 0 -0.06c0,-0.19 0.3,-0.29 0.89,-0.29l1.13 0 0.88 -1.08 1.02 0c0.1,0 0.22,-0.04 0.35,-0.11 0,-0.07 -0.04,-0.11 -0.11,-0.12l-1.13 0 0 -0.05c0,-0.07 0.04,-0.11 0.12,-0.12 0.67,-1.4 1.01,-2.52 1.01,-3.39l0 -0.11c0,-0.07 -0.04,-0.11 -0.12,-0.12l-0.65 0 0 -0.47 0.65 0c0.08,0 0.12,-0.04 0.12,-0.12l0 -0.29 0.47 0 0.3 0.05c0.08,-0.1 0.12,-0.16 0.12,-0.18l0 -0.12c0,-0.88 -0.36,-1.93 -1.07,-3.14l-0.83 0c-0.47,-0.81 -1.2,-1.62 -2.2,-2.43 -1.35,-1.11 -3.24,-1.66 -5.65,-1.66l-3.38 0c-0.39,0 -0.97,0.02 -1.74,0.06l0 -0.03 -0.11 0c-1.43,0 -2.85,0 -4.28,0l-0.11 0c0,1.46 0,2.93 0,4.39l0 0.11 0.11 0c1.46,0 2.93,0 4.39,0l0 -0.11 0 -0.11 0 -0.11 0 -0.11 0 -0.11 0 -0.01c0.57,0.07 0.85,0.14 0.85,0.23l0 3.14c0,0.12 -0.26,0.18 -0.77,0.18l-0.24 0.2 -0.05 0 -0.11 0 -0.11 0 -0.11 0 -0.11 0 0 -0.11 0 -0.11 0 -0.11 0 -0.11 0 -0.11 0 -0.11c0.21,0 0.43,0 0.64,0 0,-0.43 0,-0.86 0,-1.28l-0.11 0 -0.11 0 -0.11 0 -0.11 0 -0.11 0 -0.11 0c0,0.21 0,0.43 0,0.64 -0.43,0 -0.86,0 -1.28,0 0,0.18 0,0.36 0,0.54l0 0.11 0.11 0 0.11 0 0.11 0 0.11 0 0.11 0 0.11 0 0 0.11 0 0.11 0 0.11 0 0.11 0 0.11 0 0.11 0 0.11 0 0.01c-0.02,-0.01 -0.04,-0.02 -0.06,-0.02l-0.12 0c-0.07,0 -0.1,0.04 -0.11,0.12l0 0.41 0.24 0c0.03,0 0.05,-0 0.06,-0.01l0 0.03 0.11 0 0.11 0 0.11 0 0.11 0 0.11 0 0.11 0 0 0.11 0 0.11 0 0.11 0 0.11 0 0.11 0 0.11c-0.21,0 -0.43,0 -0.64,0 -0.18,0 -0.36,0 -0.53,0l-0.11 0c0,-0.43 0,-0.86 0,-1.28 -0.21,0 -0.43,0 -0.64,0 0,0.43 0,0.86 0,1.28 0.21,0 0.43,0 0.64,0l0 0.11 0 0.11 0 0.11 0 0.11 0 0.11 0 0.11 0.11 0c0.18,0 0.36,0 0.53,0l0 0.11 0 0.11 0 0.11 0 0.11 0 0.11 0 0.11c0.21,0 0.43,0 0.64,0l0 -0.11 0 -0.11 0 -0.11 0 -0.11 0 -0.11 0 -0.11 0.11 0 0.11 0 0.11 0 0.11 0 0.11 0 0 0 0 1.28 -0 0c-0.39,0 -0.78,0 -1.18,0 0,0.84 0,1.69 0,2.53l-0.48 0c-0.04,0 -0.07,0.01 -0.09,0.04l-0.07 0c0,-1.07 0,-2.14 0,-3.21 -0.21,0 -0.43,0 -0.64,0l0 -0.11 0 -0.11 0 -0.11 0 -0.11 0 -0.11 0 -0.11 -0.11 0 -0.11 0 -0.11 0 -0.11 0 -0.11 0 -0.11 0 0 -0.11 0 -0.11 0 -0.11 0 -0.11 0 -0.11 0 -0.11c-0.21,0 -0.43,0 -0.64,0l0 -0.11 0 -0.11 0 -0.11 0 -0.11 0 -0.11 0 -0.11c0.21,0 0.43,0 0.64,0 0,-0.39 0,-0.78 0,-1.18l0 -0.11 0.11 0 0.11 0 0.11 0 0.11 0 0.11 0 0.11 0 0 -0.11c0,-0.18 0,-0.36 0,-0.54 -0.43,0 -0.86,0 -1.28,0 0,-0.43 0,-0.86 0,-1.28 -0.64,0 -1.28,0 -1.93,0 0,-0.21 0,-0.43 0,-0.64l0.11 0 0.11 0 0.11 0 0.11 0 0.11 0 0.11 0c0,-0.64 0,-1.28 0,-1.93 -0.43,0 -0.86,0 -1.28,0 0,-0.21 0,-0.43 0,-0.64 0.21,0 0.43,0 0.64,0 0,-0.61 0,-1.21 0,-1.82l0 -0.11c-0.21,0 -0.43,0 -0.64,0 0,0.43 0,0.86 0,1.28 -0.21,0 -0.43,0 -0.64,0 0,-0.43 0,-0.86 0,-1.28 -0.21,0 -0.43,0 -0.64,0 0,0.43 0,0.86 0,1.28 0.21,0 0.43,0 0.64,0 0,0.43 0,0.86 0,1.28 -0.21,0 -0.43,0 -0.64,0l0 -0.11 0 -0.11 0 -0.11 0 -0.11 0 -0.11 0 -0.11 -0.11 0 -0.11 0 -0.11 0 -0.11 0 -0.11 0 -0.11 0c0,-0.21 0,-0.43 0,-0.64 -0.21,0 -0.43,0 -0.64,0 0,0.21 0,0.43 0,0.64 0.21,0 0.43,0 0.64,0 0,0.43 0,0.86 0,1.28 -0.43,0 -0.86,0 -1.28,0 0,-0.43 0,-0.86 0,-1.28 -0.21,0 -0.43,0 -0.64,0 0,-0.21 0,-0.43 0,-0.64 0.21,0 0.43,0 0.64,0 0,-0.21 0,-0.43 0,-0.64 0.21,0 0.43,0 0.64,0 0,-0.21 0,-0.43 0,-0.64 -0.21,0 -0.43,0 -0.64,0 0,0.21 0,0.43 0,0.64 -0.21,0 -0.43,0 -0.64,0 0,0.21 0,0.43 0,0.64 -0.21,0 -0.43,0 -0.64,0 0,0.21 0,0.43 0,0.64 0.21,0 0.43,0 0.64,0 0,0.43 0,0.86 0,1.28 0.21,0 0.43,0 0.64,0 0,0.43 0,0.86 0,1.28 0.21,0 0.43,0 0.64,0 0,0.21 0,0.43 0,0.64 0.21,0 0.43,0 0.64,0l0 0.11c0,0.18 0,0.36 0,0.53 -0.21,0 -0.43,0 -0.64,0 0,0.21 0,0.43 0,0.64l-0.11 0 -0.11 0 -0.11 0 -0.11 0 -0.11 0 -0.11 0c0,-0.21 0,-0.43 0,-0.64 -0.21,0 -0.43,0 -0.64,0 0,-0.64 0,-1.28 0,-1.93 -0.21,0 -0.43,0 -0.64,0 0,0.43 0,0.86 0,1.28 -0.86,0 -1.71,0 -2.57,0 0,0.21 0,0.43 0,0.64 -0.21,0 -0.43,0 -0.64,0 0,-0.21 0,-0.43 0,-0.64 -0.61,0 -1.21,0 -1.82,0l-0.11 0c0,0.43 0,0.86 0,1.28 0.21,0 0.43,0 0.64,0 0,0.21 0,0.43 0,0.64 -0.21,0 -0.43,0 -0.64,0 0,0.21 0,0.43 0,0.64 0.21,0 0.43,0 0.64,0 0,0.21 0,0.43 0,0.64 0,0.21 0,0.43 0,0.64 -0.21,0 -0.43,0 -0.64,0 0,0.21 0,0.43 0,0.64 0.21,0 0.43,0 0.64,0 0,0.21 0,0.43 0,0.64 -0.21,0 -0.43,0 -0.64,0 0,0.21 0,0.43 0,0.64 0.21,0 0.43,0 0.64,0 0,-0.21 0,-0.43 0,-0.64 0.21,0 0.43,0 0.64,0 0,0.21 0,0.43 0,0.64 0.21,0 0.43,0 0.64,0 0,-0.21 0,-0.43 0,-0.64 0.21,0 0.43,0 0.64,0 0,0.21 0,0.43 0,0.64 0.21,0 0.43,0 0.64,0 0,-0.21 0,-0.43 0,-0.64 -0.21,0 -0.43,0 -0.64,0 0,-0.21 0,-0.43 0,-0.64 0.21,0 0.43,0 0.64,0 0,-0.21 0,-0.43 0,-0.64 0.21,0 0.43,0 0.64,0 0,0.21 0,0.43 0,0.64 0.21,0 0.43,0 0.64,0 0,0.21 0,0.43 0,0.64 -0.21,0 -0.43,0 -0.64,0 0,0.21 0,0.43 0,0.64 0.21,0 0.43,0 0.64,0 0,-0.21 0,-0.43 0,-0.64 0.21,0 0.43,0 0.64,0 0,1.07 0,2.14 0,3.21 0.21,0 0.43,0 0.64,0 0,0.21 0,0.43 0,0.64 -0.21,0 -0.43,0 -0.64,0 0,0.64 0,1.28 0,1.93 0.43,0 0.86,0 1.28,0 0,-0.43 0,-0.86 0,-1.28 0.21,0 0.43,0 0.64,0 0,0.21 0,0.43 0,0.64 0.21,0 0.43,0 0.64,0 0,0.21 0,0.43 0,0.64 0.21,0 0.43,0 0.64,0 0,-0.21 0,-0.43 0,-0.64 -0.21,0 -0.43,0 -0.64,0 0,-0.21 0,-0.43 0,-0.64 -0.21,0 -0.43,0 -0.64,0 0,-0.21 0,-0.43 0,-0.64l0.11 0 0.11 0 0.11 0 0.11 0 0.11 0 0.11 0c0,-0.43 0,-0.86 0,-1.28 0.43,0 0.86,0 1.28,0 0,0.43 0,0.86 0,1.28 -0.21,0 -0.43,0 -0.64,0 0,0.21 0,0.43 0,0.64 0.21,0 0.43,0 0.64,0 0,-0.21 0,-0.43 0,-0.64l0.11 0 0.11 0 0.11 0 0.11 0 0.11 0 0.11 0c0,0.64 0,1.28 0,1.93 0.43,0 0.86,0 1.28,0 0,-0.43 0,-0.86 0,-1.28 -0.21,0 -0.43,0 -0.64,0l0 -0.11 0 -0.11 0 -0.11 0 -0.11 0 -0.11 0 -0.11c0.21,0 0.43,0 0.64,0 0,-0.21 0,-0.43 0,-0.64 0.43,0 0.86,0 1.28,0 0,0.21 0,0.43 0,0.64 0.21,0 0.43,0 0.64,0 0,0.43 0,0.86 0,1.28 -0.43,0 -0.86,0 -1.28,0 0,0.21 0,0.43 0,0.64 0.43,0 0.86,0 1.28,0 0,-0.21 0,-0.43 0,-0.64 0.43,0 0.86,0 1.28,0l0 -0.11 0 -0.11 0 -0.11 0 -0.11 0 -0.11 0 -0.11c-0.21,0 -0.43,0 -0.64,0 0,-0.21 0,-0.43 0,-0.64 0.21,0 0.43,0 0.64,0l0.11 0 0.11 0 0.11 0 0.11 0 0.11 0 0.11 0 0 -0.11 0 -0.11 0 -0.11 0 -0.04c0.21,0.01 1.18,-0.08 1.18,0.15l0 0.21 -0 0c-0.18,0 -0.36,0 -0.53,0 0,0.21 0,0.43 0,0.64 -0.21,0 -0.43,0 -0.64,0 0,0.43 0,0.86 0,1.28 2.57,0 5.14,-0 7.72,-0zm-6.54 -0.64l-0 0c-0.18,0 -0.36,0 -0.53,0 0,-0.21 0,-0.43 0,-0.64 0.18,0 0.36,0 0.53,0l0 0 0 0.64zm0 -2.57l-0 0c-0.18,0 -0.36,0 -0.53,0l0 -0.11c0,-0.18 0,-0.36 0,-0.54 0.18,0 0.36,0 0.53,0l0.11 0 0 -0.07c0.22,0 0.58,0.02 1.08,0.06l0 0.12c-0.53,0.04 -0.93,0.05 -1.19,0.05l0 0.47zm-0.54 -9.1l0 0.11c-1.03,0 -2.07,0 -3.1,0l-0.11 0 0 -0.11c0,-1.03 0,-2.07 0,-3.1 1.07,0 2.14,0 3.21,0l0 0.11c0,1 0,2 0,3zm-0.75 2.03l0.11 0c0,-0.18 0,-0.36 0,-0.53l0 -0.11 -0.11 0c-0.18,0 -0.36,0 -0.53,0l0 0.11c0,0.18 0,0.36 0,0.53 0.18,0 0.36,0 0.53,0zm0.11 -2.57l0 -0.11c0,-0.57 0,-1.14 0,-1.71l0 -0.11 -0.11 0c-0.57,0 -1.14,0 -1.71,0l-0.11 0 0 0.11c0,0.57 0,1.14 0,1.71l0 0.11 0.11 0 0.11 0c0.57,0 1.14,0 1.71,0zm-1.93 9.63c-0.64,0 -1.28,0 -1.93,0 0,-0.64 0,-1.28 0,-1.93 0.64,0 1.28,0 1.93,0 0,0.64 0,1.28 0,1.93zm0 -2.68l0 0.11c-0.21,0 -0.43,0 -0.64,0l0 -0.11 0 -0.11 0 -0.11 0 -0.11 0 -0.11 0 -0.11c0.21,0 0.43,0 0.64,0l0 0.11 0 0.11 0 0.11 0 0.11 0 0.11zm-0.64 -0.64l0 0.11c-0.21,0 -0.43,0 -0.64,0l0 -0.11 0 -0.11 0 -0.11 0 -0.11 0 -0.11 0 -0.11c0.21,0 0.43,0 0.64,0l0 0.11 0 0.11 0 0.11 0 0.11 0 0.11zm0 2.68c0,-0.21 0,-0.43 0,-0.64 -0.21,0 -0.43,0 -0.64,0 0,0.21 0,0.43 0,0.64 0.21,0 0.43,0 0.64,0zm-0.64 -3.96l0 0.11c-0.43,0 -0.86,0 -1.28,0l0 -0.11 0 -0.11 0 -0.11 0 -0.11 0 -0.11 0 -0.11c-0.43,0 -0.86,0 -1.28,0l0 -0.11 0 -0.11 0 -0.11 0 -0.11 0 -0.11 0 -0.11c0.21,0 0.43,0 0.64,0 0,-0.43 0,-0.86 0,-1.28 -0.21,0 -0.43,0 -0.64,0 0,-0.18 0,-0.36 0,-0.53l0 -0.11c0.21,0 0.43,0 0.64,0 0.21,0 0.43,0 0.64,0 0,0.64 0,1.28 0,1.93l0.11 0 0.11 0 0.11 0 0.11 0 0.11 0 0.11 0 0 0.11 0 0.11 0 0.11 0 0.11 0 0.11 0 0.11 0.11 0 0.11 0 0.11 0 0.11 0 0.11 0 0.11 0 0 0.11 0 0.11 0 0.11 0 0.11 0 0.11zm0 -1.18c-0.21,0 -0.43,0 -0.64,0 0,-0.43 0,-0.86 0,-1.28 0.21,0 0.43,0 0.64,0 0,0.43 0,0.86 0,1.28zm-0.64 2.46l0 0.11c-0.43,0 -0.86,0 -1.28,0 0,0.64 0,1.28 0,1.93l-0.11 0 -0.11 0 -0.11 0 -0.11 0 -0.11 0 -0.11 0c0,-0.21 0,-0.43 0,-0.64 -0.21,0 -0.43,0 -0.64,0 0,-0.21 0,-0.43 0,-0.64 -0.21,0 -0.43,0 -0.64,0 0,-0.21 0,-0.43 0,-0.64 -0.21,0 -0.43,0 -0.64,0 0,0.21 0,0.43 0,0.64 0.21,0 0.43,0 0.64,0 0,0.21 0,0.43 0,0.64 -0.43,0 -0.86,0 -1.28,0 0,-0.21 0,-0.43 0,-0.64 -0.43,0 -0.86,0 -1.28,0 0,-0.21 0,-0.43 0,-0.64 -0.21,0 -0.43,0 -0.64,0 0,-0.21 0,-0.43 0,-0.64 -0.21,0 -0.43,0 -0.64,0 0,-0.21 0,-0.43 0,-0.64 0.43,0 0.86,0 1.28,0 0,-0.21 0,-0.43 0,-0.64 -0.64,0 -1.28,0 -1.93,0 0,0.21 0,0.43 0,0.64 0,0.21 0,0.43 0,0.64 -0.21,0 -0.43,0 -0.64,0 0,-0.21 0,-0.43 0,-0.64 0,-0.21 0,-0.43 0,-0.64 0,-0.21 0,-0.43 0,-0.64 -0.43,0 -0.86,0 -1.28,0 0,-0.21 0,-0.43 0,-0.64 -0.21,0 -0.43,0 -0.64,0 0,-0.21 0,-0.43 0,-0.64 0.43,0 0.86,0 1.28,0 0,0.21 0,0.43 0,0.64 0.64,0 1.28,0 1.93,0 0,0.21 0,0.43 0,0.64 0.21,0 0.43,0 0.64,0 0,-0.21 0,-0.43 0,-0.64 0.21,0 0.43,0 0.64,0 0,0.21 0,0.43 0,0.64 0.21,0 0.43,0 0.64,0 0,0.21 0,0.43 0,0.64 0.21,0 0.43,0 0.64,0 0,0.21 0,0.43 0,0.64 0,0.21 0,0.43 0,0.64 -0.21,0 -0.43,0 -0.64,0 0,0.21 0,0.43 0,0.64 0.21,0 0.43,0 0.64,0 0,-0.21 0,-0.43 0,-0.64 0.43,0 0.86,0 1.28,0 0,-0.21 0,-0.43 0,-0.64 0,-0.21 0,-0.43 0,-0.64l0.11 0 0.11 0 0.11 0 0.11 0 0.11 0 0.11 0c0.21,0 0.43,0 0.64,0l0 0.11 0 0.11 0 0.11 0 0.11 0 0.11 0 0.11c0.43,0 0.86,0 1.28,0l0 0.21 0 0.11 0 0.11 0 0.11 0 0.11 0.11 0 0.11 0 0.11 0 0.11 0 0.11 0 0.11 0 0 0.11 0 0.11 0 0.11 0 0.11 0 0.11zm-0.64 4.6c-0.21,0 -0.43,0 -0.64,0 0,-0.64 0,-1.28 0,-1.93l0.11 0 0.11 0 0.11 0 0.11 0 0.11 0 0.11 0c0,0.64 0,1.28 0,1.93zm0 -9.63c-0.21,0 -0.43,0 -0.64,0 0,-0.21 0,-0.43 0,-0.64 0.21,0 0.43,0 0.64,0 0,0.21 0,0.43 0,0.64zm-0.64 -0.64c-0.21,0 -0.43,0 -0.64,0 0,-0.43 0,-0.86 0,-1.28 0.21,0 0.43,0 0.64,0 0,0.43 0,0.86 0,1.28zm-0.64 8.35c-0.21,0 -0.43,0 -0.64,0 0,-0.21 0,-0.43 0,-0.64 0.21,0 0.43,0 0.64,0 0,0.21 0,0.43 0,0.64zm0 -5.89l0 0.11c-0.21,0 -0.43,0 -0.64,0l0 -0.11c0,-0.18 0,-0.36 0,-0.53 0.21,0 0.43,0 0.64,0 0,0.18 0,0.36 0,0.53zm0 -1.82c-0.21,0 -0.43,0 -0.64,0 0,-0.21 0,-0.43 0,-0.64 0.21,0 0.43,0 0.64,0 0,0.21 0,0.43 0,0.64zm0 5.14c0,-0.21 0,-0.43 0,-0.64 -0.21,0 -0.43,0 -0.64,0 0,0.21 0,0.43 0,0.64 0.21,0 0.43,0 0.64,0zm-0.64 -4.49l-0.11 0 -0.11 0 -0.11 0 -0.11 0 -0.11 0 -0.11 0c0,-0.21 0,-0.43 0,-0.64l0.11 0 0.11 0 0.11 0 0.11 0 0.11 0 0.11 0c0,0.21 0,0.43 0,0.64zm-0.64 7.6l0 0.11 -0.11 0 -0.11 0 -0.11 0 -0.11 0 -0.11 0 -0.11 0 0 -0.11 0 -0.11 0 -0.11 0 -0.11 0 -0.11 0 -0.11 0.11 0 0.11 0 0.11 0 0.11 0 0.11 0 0.11 0 0 0.11 0 0.11 0 0.11 0 0.11 0 0.11zm0 -5.03c-0.21,0 -0.43,0 -0.64,0 0,-0.21 0,-0.43 0,-0.64 0.21,0 0.43,0 0.64,0 0,0.21 0,0.43 0,0.64zm0 -3.21c-0.21,0 -0.43,0 -0.64,0 0,-0.21 0,-0.43 0,-0.64 0.21,0 0.43,0 0.64,0 0,0.21 0,0.43 0,0.64zm-0.64 9.63c-0.21,0 -0.43,0 -0.64,0 0,-0.43 0,-0.86 0,-1.28 0.21,0 0.43,0 0.64,0 0,0.43 0,0.86 0,1.28zm0 -1.93c-0.21,0 -0.43,0 -0.64,0l0 0.11 0 0.11 0 0.11 0 0.11 0 0.11 0 0.11c-0.21,0 -0.43,0 -0.64,0 0,-0.64 0,-1.28 0,-1.93 0.21,0 0.43,0 0.64,0 0,0.21 0,0.43 0,0.64 0.21,0 0.43,0 0.64,0 0,0.21 0,0.43 0,0.64zm-0.64 -5.14c-0.21,0 -0.43,0 -0.64,0 0,-0.21 0,-0.43 0,-0.64 0.21,0 0.43,0 0.64,0 0,0.21 0,0.43 0,0.64zm-0.64 -0.64c-0.21,0 -0.43,0 -0.64,0 0,-0.21 0,-0.43 0,-0.64 0.21,0 0.43,0 0.64,0 0,0.21 0,0.43 0,0.64zm-1.28 0c-0.21,0 -0.43,0 -0.64,0 0,-0.21 0,-0.43 0,-0.64 0.21,0 0.43,0 0.64,0 0,0.21 0,0.43 0,0.64zm0 9.63c0,-1.5 0,-3 0,-4.49 -1.5,0 -3,0 -4.49,0 0,1.5 0,3 0,4.49 1.5,0 3,0 4.49,0zm-0.64 -0.75l0 0.11c-1.07,0 -2.14,0 -3.21,0 0,-1.07 0,-2.14 0,-3.21 1.07,0 2.14,0 3.21,0 0,1.03 0,2.07 0,3.1zm0 -11.45c-1.07,0 -2.14,0 -3.21,0 0,-1.07 0,-2.14 0,-3.21 1.07,0 2.14,0 3.21,0 0,1.07 0,2.14 0,3.21zm-0.64 10.91c0,-0.64 0,-1.28 0,-1.93 -0.64,0 -1.28,0 -1.93,0 0,0.64 0,1.28 0,1.93 0.64,0 1.28,0 1.93,0zm0 -11.56c0,-0.64 0,-1.28 0,-1.93 -0.64,0 -1.28,0 -1.93,0 0,0.64 0,1.28 0,1.93 0.64,0 1.28,0 1.93,0zm-0.64 6.42c-0.21,0 -0.43,0 -0.64,0 0,-0.21 0,-0.43 0,-0.64 0.21,0 0.43,0 0.64,0 0,0.21 0,0.43 0,0.64zm-0.64 0.64c-0.21,0 -0.43,0 -0.64,0 0,-0.21 0,-0.43 0,-0.64 0.21,0 0.43,0 0.64,0 0,0.21 0,0.43 0,0.64zm0 -1.28c-0.21,0 -0.43,0 -0.64,0 0,-0.21 0,-0.43 0,-0.64 0,-0.21 0,-0.43 0,-0.64 0.21,0 0.43,0 0.64,0 0,0.21 0,0.43 0,0.64 0,0.21 0,0.43 0,0.64zm-0.64 0.64c-0.21,0 -0.43,0 -0.64,0 0,-0.21 0,-0.43 0,-0.64 0.21,0 0.43,0 0.64,0 0,0.21 0,0.43 0,0.64zm1.59 13.02l0 0.03 0.36 0c0.02,0 0.03,0.01 0.03,0.04l0.07 -0.04 0.36 0c0.04,0.01 0.06,0.03 0.06,0.07 -0.03,0.09 -0.07,0.13 -0.1,0.13l-0.23 0c-0.12,0 -0.28,0.01 -0.46,0.04 -0.04,-0.02 -0.08,-0.04 -0.1,-0.04 -0.18,0.02 -0.26,0.11 -0.26,0.26 -0.05,0 -0.09,0.11 -0.13,0.33 0.2,0.01 0.3,0.05 0.3,0.13l0.26 0c0.04,0.01 0.06,0.03 0.06,0.06l0 0.07c0,0.06 -0.14,0.11 -0.43,0.13l0 0.76c0.12,0.6 0.34,1.07 0.66,1.42 0.01,0 0.12,0.1 0.33,0.29l0 0.07 -0.69 0 0 0.06 0.16 0.04 0.56 0c0.12,0 0.47,0.11 1.05,0.33l0.39 0.03c0.12,0 0.42,-0.06 0.89,-0.19l0 -0.07c-0.46,-0.48 -0.74,-0.72 -0.82,-0.72 -0.15,0 -0.23,-0.03 -0.23,-0.1 0,-0.08 0.13,-0.14 0.4,-0.17 0.79,-0.81 1.2,-1.22 1.22,-1.22l0.4 0 0.43 0.4c0.07,0 0.1,-0.22 0.1,-0.66 0,-0.24 -0.05,-0.46 -0.13,-0.66l-0.06 0.03c-0.2,0 -0.3,-0.05 -0.3,-0.16l-0.36 0c-0.04,0 -0.06,-0.02 -0.06,-0.06l0.06 -0.04 0.3 0 0 -0.13c-0.07,-0.09 -0.1,-0.15 -0.1,-0.2l0.04 0c0.42,-0.02 0.7,-0.04 0.83,-0.04l0.03 -0.06c-0.02,-0.07 -0.09,-0.1 -0.2,-0.1l-0.36 0c-0.05,0 -0.09,-0.01 -0.13,-0.04 -0.04,0.02 -0.08,0.04 -0.13,0.04l-0.16 0c-0.5,-0.57 -0.97,-0.9 -1.38,-0.99 0,-0.03 -0.12,-0.08 -0.36,-0.13 -0.74,0 -1.33,0.22 -1.75,0.66 -0.07,0 -0.2,0.13 -0.39,0.4zm1.78 0.59l0.13 0 0 0.1 -0.13 0c-0.04,0 -0.06,-0.02 -0.06,-0.06l0.06 -0.04zm0.46 0l0.39 0 0 0.1 -0.39 0 0 -0.1zm0.79 0l0.36 0 0 0.1 -0.36 0c-0.04,0 -0.06,-0.02 -0.06,-0.06l0.06 -0.04zm-1.42 2.41l0.03 0 0 0.04 -0.06 0.1c0.02,0.04 0.04,0.07 0.04,0.1l-0.07 0c-0.04,0 -0.06,-0.02 -0.06,-0.07l0 -0.03c0,-0.04 0.04,-0.08 0.13,-0.13zm0.29 0l0 0.04 -0.06 0.1c0.02,0.04 0.03,0.07 0.03,0.1l-0.06 0c-0.05,0 -0.07,-0.02 -0.07,-0.07l0 -0.06c0,-0.05 0.05,-0.08 0.16,-0.1zm-3.49 1.25c0.01,0.04 0.03,0.07 0.06,0.07l0 -0.07 -0.06 0zm0.09 0.07l0 0.03c0.01,0.04 0.03,0.06 0.07,0.06l0.03 0c0,-0.03 -0.03,-0.06 -0.1,-0.1zm0.1 0.13l0 0.06 0.07 0 0 -0.06 -0.07 0zm9.4 -7.42c0.04,0 0.06,0.01 0.06,0.03 0.34,-0.02 0.59,-0.03 0.75,-0.03l2.36 0c0.86,0 1.43,0.08 1.72,0.23 0.2,0.06 0.33,0.13 0.37,0.2 -0.02,0.04 -0.04,0.08 -0.04,0.14 0.35,0.17 0.66,0.54 0.91,1.11 0.16,0.48 0.24,0.84 0.24,1.08 0,0.08 -0.03,0.35 -0.1,0.81 0.13,0 0.2,0.02 0.2,0.07 -0.26,0.7 -0.66,1.22 -1.21,1.55l-0.51 0.2 0 0.04c0.05,0.05 0.18,0.23 0.37,0.54 -0.07,0.04 -0.13,0.06 -0.17,0.06l0.04 0.07 0 0.04c-0.41,0.02 -0.68,0.03 -0.81,0.03l0 0.04c0.01,0.05 0.03,0.07 0.07,0.07l0.84 0 0.3 0.37c0.22,0 0.37,0.11 0.44,0.34l0 0.03c-0.11,0 -0.17,0.02 -0.17,0.07 0.7,1.01 1.05,1.52 1.05,1.55 -0.09,0.02 -0.13,0.04 -0.13,0.07 0.16,0.23 0.23,0.37 0.23,0.41l-0.06 0.03 -1.69 0c-0.19,0 -0.49,-0.01 -0.91,-0.03 -0.18,-0.26 -0.27,-0.39 -0.27,-0.41 0.04,-0.02 0.09,-0.04 0.17,-0.04l0 -0.03c-0.65,-0.99 -0.98,-1.53 -0.98,-1.62l0.13 0 0 -0.07c-0.07,-0.22 -0.2,-0.33 -0.4,-0.33 -0.18,-0.23 -0.31,-0.34 -0.41,-0.34l-0.61 0 0 0.17c0,0.02 -0.01,0.03 -0.03,0.03l0.03 0.07 0 1.55 0.37 0c0.05,0.01 0.07,0.03 0.07,0.07 0,0.04 -0.02,0.06 -0.07,0.06l-0.37 0c0,0.11 -0.01,0.17 -0.03,0.17l0.03 0.07 0 0.4c0,0.05 -0.01,0.09 -0.03,0.13 0.02,0.04 0.03,0.08 0.03,0.11l-0.06 0.03 -1.38 0c-0.22,0 -0.56,-0.01 -1.01,-0.03l0 -0.81c0.01,-0.05 0.03,-0.07 0.07,-0.07l0.37 0 0 -0.1 -0.37 0c-0.05,0 -0.07,-0.02 -0.07,-0.07l0 -1.75 -0.17 -0.03 -0.67 0c-0.05,0 -0.07,-0.02 -0.07,-0.07l0.07 -0.04c0.56,-0.01 0.84,-0.03 0.84,-0.06 0,-0.07 0.02,-0.1 0.07,-0.1 0.04,0.02 0.08,0.03 0.1,0.03l0.04 -0.06 0 -2.3c0.01,-0.04 0.03,-0.07 0.06,-0.07l0.17 0 0.04 -0.2c-0.04,-0.02 -0.08,-0.03 -0.1,-0.03 -0.2,0.02 -0.31,0.03 -0.34,0.03 0,-0.18 -0.09,-0.27 -0.27,-0.27l0 -0.17 0.23 -0.14 0 -2.26 0.2 -0.14 0 -0.34c0.01,-0.04 0.03,-0.06 0.06,-0.06l0.24 0c0.07,0 0.13,-0.01 0.17,-0.03zm1.79 1.79c0,0.02 -0.01,0.03 -0.03,0.03 0.02,0.23 0.03,0.39 0.03,0.51l0 0.2c0,0.02 -0.01,0.03 -0.03,0.03l0.03 0.06 0 0.04c0,0.2 -0.09,0.3 -0.27,0.3l0 0.2c0.18,0.01 0.27,0.05 0.27,0.1l-0.03 0c0.02,0.04 0.03,0.08 0.03,0.1l0.81 0 0 0.07 -0.3 0 -0.13 0.17 -0.17 0 0 0.34 1.04 0c0.45,0 0.76,-0.11 0.92,-0.34 0.22,0 0.33,-0.08 0.33,-0.24l-0.3 0 -0.06 -0.03c0.04,-0.15 0.06,-0.29 0.06,-0.41l0 -0.27c0,-0.24 -0.2,-0.49 -0.61,-0.78 -0.05,-0.05 -0.27,-0.08 -0.67,-0.1l-0.07 0.03 -0.07 -0.03c-0.02,0 -0.03,0.01 -0.03,0.03 -0.08,-0.02 -0.13,-0.03 -0.14,-0.03 -0.2,0.02 -0.31,0.03 -0.33,0.03 -0.13,-0.02 -0.22,-0.03 -0.27,-0.03zm-1.92 1.62l0 0.04 0.06 0 0 -0.04 -0.06 0zm0.17 0l0 0.04 0.06 0 0 -0.04 -0.06 0zm6.38 -0.03l0.1 0 0 0.07 -0.1 0 0 -0.07zm0.23 0l0.11 0 0 0.07 -0.11 0 0 -0.07zm0.17 0l0.3 0 0 0.07 -0.3 0 0 -0.07zm-4.93 2.67l-0.07 -0.03c0,0.05 -0.02,0.07 -0.06,0.07 0.02,0.04 0.03,0.08 0.03,0.1 0.23,-0.02 0.39,-0.03 0.51,-0.03l0.03 0 0.06 0.03 0.14 -0.23c-0.09,-0.2 -0.15,-0.3 -0.17,-0.3l-0.3 0c-0.05,0 -0.08,0.13 -0.1,0.4l-0.07 0zm-1.01 0.13l0 0.04c0.01,0.05 0.03,0.07 0.07,0.07l0.61 0c0.04,0 0.06,-0.02 0.06,-0.07l0 -0.04 -0.74 0zm2.7 2.53l0.06 0c0,0.04 0.02,0.08 0.07,0.13l0 0.07c-0.03,-0 -0.07,-0.06 -0.13,-0.17l0 -0.03zm0.23 0.34l0.04 0 0 0.07 -0.04 0 0 -0.07zm13.67 -9.02c0.78,0 1.49,0.19 2.15,0.56l0 0.03c-0.12,0 -0.21,0.01 -0.29,0.03l0 0.03c0.49,0.23 1,0.71 1.53,1.44 0.21,0 0.34,0.06 0.39,0.19 0,0.03 -0.06,0.06 -0.19,0.1 0,0.1 -0.36,0.31 -1.08,0.62 -0.32,0.22 -0.55,0.32 -0.69,0.32l-0.26 0 -0.62 -0.75c-0.16,-0.08 -0.25,-0.15 -0.26,-0.2l0 -0.03 0.13 0 0 -0.07c-0.03,0 -0.17,-0.06 -0.42,-0.19l-0.13 0c-0.2,0 -0.36,-0.04 -0.49,-0.13l-0.52 0c-0.05,0 -0.09,0.01 -0.13,0.03l-0.06 -0.03c-0.75,0.23 -1.24,0.54 -1.47,0.92 -0.05,0.06 -0.19,0.11 -0.42,0.13l0 0.03c0.01,0.05 0.03,0.07 0.06,0.07 0.04,0 0.06,-0.01 0.06,-0.03l0.33 0.03 0.59 0 0 0.03c0,0.04 -0.02,0.06 -0.06,0.06l-0.79 0c-0.13,0.09 -0.26,0.46 -0.39,1.11l0 0.26c0,0.26 0.06,0.61 0.19,1.04l-0.06 0.03 -0.33 0 -0.2 0.04c-0.04,-0.02 -0.07,-0.04 -0.1,-0.04l-0.06 0.04c-0.04,-0.02 -0.08,-0.04 -0.1,-0.04l0 0.04c0.15,0.41 0.44,0.76 0.88,1.04 0.22,0.15 0.37,0.23 0.46,0.23l0.82 0c0.51,0.15 0.88,0.23 1.11,0.23 0.45,-0.15 0.73,-0.23 0.85,-0.23 0.04,0.02 0.08,0.03 0.1,0.03 0.49,-0.33 0.75,-0.54 0.78,-0.62 0.13,-0.09 0.3,-0.32 0.52,-0.69l0 -0.04 -2.61 0c-0.04,0 -0.06,-0.02 -0.06,-0.06l0 -0.91c0.11,-0.07 0.16,-0.12 0.16,-0.16l-0.03 -0.07c0.02,-0.04 0.03,-0.08 0.03,-0.13 -0.11,-0.03 -0.16,-0.06 -0.16,-0.09 0.04,-0.06 0.06,-0.09 0.06,-0.1 0.05,0 0.07,0.01 0.07,0.04 0.25,-0.02 0.44,-0.04 0.55,-0.04l3.4 0c0.05,0 0.09,0.01 0.13,0.04 0.04,-0.02 0.08,-0.04 0.13,-0.04l0.59 0 0.2 0.23 0 0.19c-0.11,0.06 -0.18,0.2 -0.2,0.43 -0.02,0.32 -0.03,0.53 -0.03,0.65 0.11,0 0.16,0.02 0.16,0.06l0 0.03c-0.25,0.85 -0.47,1.27 -0.66,1.27 -0.04,-0.02 -0.08,-0.03 -0.13,-0.03 -0.51,0.92 -1.42,1.6 -2.74,2.02 -0.37,0.07 -0.64,0.1 -0.81,0.1l-0.62 0c-1.67,0 -2.99,-0.71 -3.95,-2.12l-0.88 0c-0.11,-0.06 -0.3,-0.43 -0.56,-1.11l0 -0.2 0.88 0 -0.13 -1.04 0 -0.16c0.1,-0.83 0.18,-1.24 0.26,-1.24 0.42,-0.02 0.7,-0.03 0.82,-0.03l0 -0.06 -0.04 0c-0.23,0 -0.58,-0.01 -1.04,-0.03 0,-0.03 0.11,-0.08 0.33,-0.13 0.42,-1.06 1.07,-1.83 1.95,-2.32 0.34,0 0.64,-0.08 0.88,-0.23 0.58,-0.26 1.32,-0.39 2.22,-0.39zm-5.65 2.97l0.1 0 0 0.1c-0.07,0.02 -0.12,0.03 -0.13,0.03l-0.03 -0.07c0.01,-0.04 0.03,-0.06 0.06,-0.06zm4.31 1.14c0.22,0.02 0.32,0.05 0.32,0.1 0,0.04 -0.02,0.06 -0.06,0.06l-0.29 0c-0.04,0 -0.06,-0.02 -0.06,-0.06 0,-0.03 0.03,-0.07 0.1,-0.1zm-0.43 0.04l0.07 0c0.04,0.01 0.06,0.03 0.06,0.06l0 0.06 -0.13 0c-0.04,0 -0.06,-0.02 -0.06,-0.06 0.01,-0.04 0.03,-0.06 0.06,-0.06zm7.3 -4.17l4.78 0c0.03,0 0.06,0.03 0.1,0.1l0 1.15c0,0.03 0.03,0.06 0.1,0.1l0.13 0c0.05,0 0.1,-0.01 0.14,-0.04 0.11,0.03 0.16,0.06 0.16,0.1l0 0.07c0,0.04 -0.02,0.06 -0.06,0.06l-0.17 0 0 0.17c0,0.05 -0.02,0.07 -0.07,0.07l-2.32 0c-0.24,0 -0.59,0.01 -1.07,0.04l0 0.3c0.01,0.04 0.03,0.06 0.06,0.06l0.3 0c0.05,0.01 0.07,0.03 0.07,0.07l0 1.45 2.93 0c0.04,0.01 0.06,0.03 0.06,0.06l0 0.51c0,0.04 -0.12,0.08 -0.37,0.1l-0.07 -0.04 -0.2 0.04c-0.05,-0.02 -0.08,-0.04 -0.1,-0.04l-0.04 0.17 0 0.57 0.04 0.34 -0.1 0.07 -2.86 0c0,0.08 -0.08,0.12 -0.23,0.13l-0.2 -0.03 -0.06 0c-0.05,0.01 -0.07,0.03 -0.07,0.07l0 0.03 0.2 0 0.34 0.04 0 1.11c0,0.12 0.07,0.18 0.2,0.2 0,0.05 0.01,0.1 0.04,0.13 -0.02,0.04 -0.04,0.08 -0.04,0.13l0 0.04 3.2 0c0.04,0 0.08,0.11 0.1,0.34l0.5 0c0.05,0.01 0.07,0.03 0.07,0.06 0,0.05 -0.02,0.07 -0.07,0.07l-0.37 0 -0.17 0.04 0 1.28 -5.52 0c-0.02,0 -0.04,-0.01 -0.04,-0.04l-0.07 0.04 -0.2 0c-0.03,0 -0.07,-0.03 -0.1,-0.1l0 -0.07c0,-0.02 0.01,-0.04 0.03,-0.04l-0.03 -0.06 0 -0.81 -0.17 -0.03 -0.3 0c-0.05,0 -0.07,-0.02 -0.07,-0.07l0 -0.07c0.01,-0.04 0.03,-0.06 0.07,-0.06 0.38,-0.02 0.67,-0.03 0.88,-0.03l0.13 0 0 -0.06 -0.34 -0.04 -0.13 0c-0.05,0 -0.07,-0.03 -0.07,-0.1l0.03 -0.07c-0.02,-0.04 -0.03,-0.08 -0.03,-0.13 0,-0.03 0.07,-0.06 0.2,-0.1 0.02,-0.04 0.03,-0.09 0.03,-0.14 0,-0.1 -0.08,-0.15 -0.24,-0.16l0 -1.15 0.03 -0.06 -0.06 -0.03 -0.44 0c-0.05,0 -0.07,-0.02 -0.07,-0.06 0.01,-0.05 0.03,-0.07 0.07,-0.07l0.4 0c0.04,0 0.06,-0.02 0.06,-0.07l0 -1.11c0,-0.05 0.03,-0.07 0.1,-0.07 0.07,0 0.28,-0.01 0.64,-0.03l0 -2.05c0,-0.07 -0.12,-0.11 -0.37,-0.11l-0.07 0 0 -0.54 0.24 -0.13 0 -0.07c0,-0.04 -0.02,-0.06 -0.07,-0.06l-0.4 0c-0.05,0 -0.07,-0.02 -0.07,-0.07l0 -1.18 0.03 -0.06c0.45,-0.02 0.79,-0.03 1.01,-0.03zm-1.28 4.04l0.17 0c0.04,0.01 0.06,0.03 0.06,0.06l0 0.17c0,0.04 -0.02,0.06 -0.06,0.06l-0.17 0c-0.05,0 -0.07,-0.02 -0.07,-0.06l0 -0.17c0.01,-0.04 0.03,-0.06 0.07,-0.06zm1.21 3.74l0.3 0 0 -0.06 -0.24 0c-0.04,0.01 -0.06,0.03 -0.06,0.06zm3.64 0.03l0 0.13c0.01,0.05 0.03,0.07 0.07,0.07l0.47 0c0,-0.03 0.01,-0.06 0.03,-0.1 -0.02,-0.04 -0.03,-0.08 -0.03,-0.1l-0.54 0zm2.63 -7.8c0.22,0 0.71,0.01 1.48,0.04 0.79,1.15 1.22,1.74 1.31,1.78 0.08,0 0.21,0.08 0.37,0.23l1.08 0c0.04,0.01 0.06,0.03 0.06,0.07 0,0.04 -0.02,0.06 -0.06,0.06l-0.1 0c-0.05,0 -0.09,-0.01 -0.13,-0.03 -0.04,0.02 -0.08,0.03 -0.14,0.03 -0.05,0 -0.09,-0.01 -0.13,-0.03l-0.2 0.03 -0.2 0 -0.06 -0.03 -0.04 0.06c0.27,0.35 0.92,1.29 1.95,2.79l-0.17 0.07c0.31,0.46 0.51,0.73 0.61,0.8l0.03 -0.17 0 -0.17c0,-0.13 -0.07,-0.29 -0.2,-0.47 0.11,-0.02 0.17,-0.05 0.17,-0.07 -0.11,-0.17 -0.17,-0.28 -0.17,-0.33 0.04,-0.02 0.08,-0.03 0.1,-0.03 -0.07,-0.08 -0.1,-0.16 -0.1,-0.23l0 -1.79c-0.11,0 -0.17,-0.01 -0.17,-0.03l-0.06 0.03c-0.05,0 -0.07,-0.02 -0.07,-0.06l0 -0.03c0.01,-0.05 0.03,-0.07 0.07,-0.07l0.23 0 0 -0.6c-0.14,0 -0.2,-0.02 -0.2,-0.07l0 -1.68 0.03 -0.06c0.45,-0.02 0.78,-0.04 1.01,-0.04l1.21 0c0.02,0 0.04,0.01 0.04,0.04l0.07 -0.04c0.04,0.01 0.06,0.03 0.06,0.07l0 1.75c0.15,0 0.23,0.03 0.24,0.1l0 0.47c0,0.03 -0.03,0.07 -0.1,0.1l-0.2 0 0 0.11 0.2 0c0.03,0 0.07,0.03 0.1,0.1l0 2.29 -0.24 0.13 0 1.31c0,0.03 -0.07,0.07 -0.2,0.13l0.03 0.24 0 0.81c0.11,0 0.17,0.02 0.17,0.06l0 1.24 0.03 0.17 -0.07 0.04 -1.51 0c-0.22,0 -0.56,-0.01 -1.01,-0.04 -0.62,-0.95 -0.97,-1.44 -1.07,-1.48 -0.1,0 -0.21,-0.12 -0.33,-0.37 -0.34,-0.43 -0.51,-0.68 -0.51,-0.74l0.1 0 0 -0.07 -0.94 -1.34c0.11,-0.02 0.17,-0.05 0.17,-0.07l-0.47 -0.67 0 -0.47c0,-0.13 -0.12,-0.35 -0.37,-0.67l-0.03 0 0 1.79 -0.2 0.13 0 0.06 0.37 0c0.04,0.01 0.06,0.03 0.06,0.07l0 0.1c0,0.03 -0.03,0.07 -0.1,0.1l-0.33 0 -0.04 0.4 0 1.01 0.04 0.17c-0.05,0.04 -0.12,0.06 -0.21,0.06l0 0.2 0.17 0.13 0 1.14 0.04 0.2c-0.02,0.04 -0.04,0.08 -0.04,0.13l0.04 0.17 -0.07 0.04 -1.48 0c-0.19,0 -0.5,-0.01 -0.91,-0.04l-0.03 -0.06 0 -0.04c0,-0.02 0.01,-0.03 0.03,-0.03l-0.03 -0.06 0 -1.45 -0.16 -0.13 0 -0.13 0.16 -0.13 0 -1.51c0,-0.03 0.03,-0.07 0.1,-0.1l0.3 0c0.05,0 0.07,-0.02 0.07,-0.06l0 -0.1c0,-0.05 -0.02,-0.07 -0.07,-0.07l-0.33 0c-0.05,0 -0.07,-0.02 -0.07,-0.06 0.01,-0.05 0.03,-0.07 0.07,-0.07l0.17 0 0 -0.06c0,-0.08 0.01,-0.13 0.03,-0.17l-0.03 -0.17 0.03 -0.13c0,-0.02 -0.01,-0.04 -0.03,-0.04l0.03 -0.17 0 -0.07c0,-0.09 -0.01,-0.13 -0.03,-0.13l0.03 -0.24 0 -0.13c0,-0.29 -0.01,-0.67 -0.03,-1.14l0.03 -0.07 -0.03 -0.07c0.02,-0.18 0.05,-0.27 0.1,-0.27l0.3 0c0.16,0 0.4,-0.01 0.74,-0.03l0 -0.07 -0.03 0c-0.17,0 -0.29,-0.01 -0.37,-0.04 -0.15,0.02 -0.29,0.04 -0.44,0.04 -0.22,0 -0.33,-0.08 -0.33,-0.23 -0.14,0 -0.2,-0.03 -0.2,-0.1l0 -1.65 0.03 -0.06c0.48,-0.02 0.82,-0.04 1.01,-0.04zm-1.21 2.45l0.06 0c0.05,0.01 0.07,0.03 0.07,0.07 0,0.05 -0.06,0.08 -0.17,0.1l-0.04 -0.06 0 -0.03c0.01,-0.05 0.03,-0.07 0.07,-0.07zm6.05 0l0.03 0c0.05,0.01 0.07,0.03 0.07,0.07l0 0.03c0,0.04 -0.02,0.06 -0.07,0.06 -0.03,0 -0.07,-0.03 -0.1,-0.1 0.01,-0.05 0.03,-0.07 0.06,-0.07zm0.84 2.36c0.01,0.04 0.03,0.06 0.07,0.06l0 -0.06 -0.07 0zm0.13 0.1l0 0.07 0.03 0 0 -0.07 -0.03 0zm3.38 -4.92l4.78 0c0.03,0 0.06,0.03 0.1,0.1l0 1.15c0,0.03 0.03,0.06 0.1,0.1l0.13 0c0.05,0 0.1,-0.01 0.14,-0.04 0.11,0.03 0.16,0.06 0.16,0.1l0 0.07c0,0.04 -0.02,0.06 -0.06,0.06l-0.17 0 0 0.17c0,0.05 -0.02,0.07 -0.07,0.07l-2.32 0c-0.24,0 -0.59,0.01 -1.07,0.04l0 0.3c0.01,0.04 0.03,0.06 0.06,0.06l0.3 0c0.05,0.01 0.07,0.03 0.07,0.07l0 1.45 2.93 0c0.04,0.01 0.06,0.03 0.06,0.06l0 0.51c0,0.04 -0.12,0.08 -0.37,0.1l-0.07 -0.04 -0.2 0.04c-0.05,-0.02 -0.08,-0.04 -0.1,-0.04l-0.04 0.17 0 0.57 0.04 0.34 -0.1 0.07 -2.86 0c0,0.08 -0.08,0.12 -0.23,0.13l-0.2 -0.03 -0.06 0c-0.05,0.01 -0.07,0.03 -0.07,0.07l0 0.03 0.2 0 0.34 0.04 0 1.11c0,0.12 0.07,0.18 0.2,0.2 0,0.05 0.01,0.1 0.04,0.13 -0.02,0.04 -0.04,0.08 -0.04,0.13l0 0.04 3.2 0c0.04,0 0.08,0.11 0.1,0.34l0.5 0c0.05,0.01 0.07,0.03 0.07,0.06 0,0.05 -0.02,0.07 -0.07,0.07l-0.37 0 -0.17 0.04 0 1.28 -5.52 0c-0.02,0 -0.04,-0.01 -0.04,-0.04l-0.07 0.04 -0.2 0c-0.03,0 -0.07,-0.03 -0.1,-0.1l0 -0.07c0,-0.02 0.01,-0.04 0.03,-0.04l-0.03 -0.06 0 -0.81 -0.17 -0.03 -0.3 0c-0.05,0 -0.07,-0.02 -0.07,-0.07l0 -0.07c0.01,-0.04 0.03,-0.06 0.07,-0.06 0.38,-0.02 0.67,-0.03 0.88,-0.03l0.13 0 0 -0.06 -0.34 -0.04 -0.13 0c-0.05,0 -0.07,-0.03 -0.07,-0.1l0.03 -0.07c-0.02,-0.04 -0.03,-0.08 -0.03,-0.13 0,-0.03 0.07,-0.06 0.2,-0.1 0.02,-0.04 0.03,-0.09 0.03,-0.14 0,-0.1 -0.08,-0.15 -0.24,-0.16l0 -1.15 0.03 -0.06 -0.06 -0.03 -0.44 0c-0.05,0 -0.07,-0.02 -0.07,-0.06 0.01,-0.05 0.03,-0.07 0.07,-0.07l0.4 0c0.04,0 0.06,-0.02 0.06,-0.07l0 -1.11c0,-0.05 0.03,-0.07 0.1,-0.07 0.07,0 0.28,-0.01 0.64,-0.03l0 -2.05c0,-0.07 -0.12,-0.11 -0.37,-0.11l-0.07 0 0 -0.54 0.24 -0.13 0 -0.07c0,-0.04 -0.02,-0.06 -0.07,-0.06l-0.4 0c-0.05,0 -0.07,-0.02 -0.07,-0.07l0 -1.18 0.03 -0.06c0.45,-0.02 0.79,-0.03 1.01,-0.03zm-1.28 4.04l0.17 0c0.04,0.01 0.06,0.03 0.06,0.06l0 0.17c0,0.04 -0.02,0.06 -0.06,0.06l-0.17 0c-0.05,0 -0.07,-0.02 -0.07,-0.06l0 -0.17c0.01,-0.04 0.03,-0.06 0.07,-0.06zm1.21 3.74l0.3 0 0 -0.06 -0.24 0c-0.04,0.01 -0.06,0.03 -0.06,0.06zm3.64 0.03l0 0.13c0.01,0.05 0.03,0.07 0.07,0.07l0.47 0c0,-0.03 0.01,-0.06 0.03,-0.1 -0.02,-0.04 -0.03,-0.08 -0.03,-0.1l-0.54 0zm2.34 -7.81c0.04,0 0.06,0.01 0.06,0.03 0.34,-0.02 0.59,-0.03 0.75,-0.03l2.36 0c0.86,0 1.43,0.08 1.72,0.23 0.2,0.06 0.33,0.13 0.37,0.2 -0.02,0.04 -0.04,0.08 -0.04,0.14 0.35,0.17 0.66,0.54 0.91,1.11 0.16,0.48 0.24,0.84 0.24,1.08 0,0.08 -0.03,0.35 -0.1,0.81 0.13,0 0.2,0.02 0.2,0.07 -0.26,0.7 -0.66,1.22 -1.21,1.55l-0.51 0.2 0 0.04c0.05,0.05 0.18,0.23 0.37,0.54 -0.07,0.04 -0.13,0.06 -0.17,0.06l0.04 0.07 0 0.04c-0.41,0.02 -0.68,0.03 -0.81,0.03l0 0.04c0.01,0.05 0.03,0.07 0.07,0.07l0.84 0 0.3 0.37c0.22,0 0.37,0.11 0.44,0.34l0 0.03c-0.11,0 -0.17,0.02 -0.17,0.07 0.7,1.01 1.05,1.52 1.05,1.55 -0.09,0.02 -0.13,0.04 -0.13,0.07 0.16,0.23 0.23,0.37 0.23,0.41l-0.06 0.03 -1.69 0c-0.19,0 -0.49,-0.01 -0.91,-0.03 -0.18,-0.26 -0.27,-0.39 -0.27,-0.41 0.04,-0.02 0.09,-0.04 0.17,-0.04l0 -0.03c-0.65,-0.99 -0.98,-1.53 -0.98,-1.62l0.13 0 0 -0.07c-0.07,-0.22 -0.2,-0.33 -0.4,-0.33 -0.18,-0.23 -0.31,-0.34 -0.41,-0.34l-0.61 0 0 0.17c0,0.02 -0.01,0.03 -0.03,0.03l0.03 0.07 0 1.55 0.37 0c0.05,0.01 0.07,0.03 0.07,0.07 0,0.04 -0.02,0.06 -0.07,0.06l-0.37 0c0,0.11 -0.01,0.17 -0.03,0.17l0.03 0.07 0 0.4c0,0.05 -0.01,0.09 -0.03,0.13 0.02,0.04 0.03,0.08 0.03,0.11l-0.06 0.03 -1.38 0c-0.22,0 -0.56,-0.01 -1.01,-0.03l0 -0.81c0.01,-0.05 0.03,-0.07 0.07,-0.07l0.37 0 0 -0.1 -0.37 0c-0.05,0 -0.07,-0.02 -0.07,-0.07l0 -1.75 -0.17 -0.03 -0.67 0c-0.05,0 -0.07,-0.02 -0.07,-0.07l0.07 -0.04c0.56,-0.01 0.84,-0.03 0.84,-0.06 0,-0.07 0.02,-0.1 0.07,-0.1 0.04,0.02 0.08,0.03 0.1,0.03l0.04 -0.06 0 -2.3c0.01,-0.04 0.03,-0.07 0.06,-0.07l0.17 0 0.04 -0.2c-0.04,-0.02 -0.08,-0.03 -0.1,-0.03 -0.2,0.02 -0.31,0.03 -0.34,0.03 0,-0.18 -0.09,-0.27 -0.27,-0.27l0 -0.17 0.23 -0.14 0 -2.26 0.2 -0.14 0 -0.34c0.01,-0.04 0.03,-0.06 0.06,-0.06l0.24 0c0.07,0 0.13,-0.01 0.17,-0.03zm1.79 1.79c0,0.02 -0.01,0.03 -0.03,0.03 0.02,0.23 0.03,0.39 0.03,0.51l0 0.2c0,0.02 -0.01,0.03 -0.03,0.03l0.03 0.06 0 0.04c0,0.2 -0.09,0.3 -0.27,0.3l0 0.2c0.18,0.01 0.27,0.05 0.27,0.1l-0.03 0c0.02,0.04 0.03,0.08 0.03,0.1l0.81 0 0 0.07 -0.3 0 -0.13 0.17 -0.17 0 0 0.34 1.04 0c0.45,0 0.76,-0.11 0.92,-0.34 0.22,0 0.33,-0.08 0.33,-0.24l-0.3 0 -0.06 -0.03c0.04,-0.15 0.06,-0.29 0.06,-0.41l0 -0.27c0,-0.24 -0.2,-0.49 -0.61,-0.78 -0.05,-0.05 -0.27,-0.08 -0.67,-0.1l-0.07 0.03 -0.07 -0.03c-0.02,0 -0.03,0.01 -0.03,0.03 -0.08,-0.02 -0.13,-0.03 -0.14,-0.03 -0.2,0.02 -0.31,0.03 -0.33,0.03 -0.13,-0.02 -0.22,-0.03 -0.27,-0.03zm-1.92 1.62l0 0.04 0.06 0 0 -0.04 -0.06 0zm0.17 0l0 0.04 0.06 0 0 -0.04 -0.06 0zm6.38 -0.03l0.1 0 0 0.07 -0.1 0 0 -0.07zm0.23 0l0.11 0 0 0.07 -0.11 0 0 -0.07zm0.17 0l0.3 0 0 0.07 -0.3 0 0 -0.07zm-4.93 2.67l-0.07 -0.03c0,0.05 -0.02,0.07 -0.06,0.07 0.02,0.04 0.03,0.08 0.03,0.1 0.23,-0.02 0.39,-0.03 0.51,-0.03l0.03 0 0.06 0.03 0.14 -0.23c-0.09,-0.2 -0.15,-0.3 -0.17,-0.3l-0.3 0c-0.05,0 -0.08,0.13 -0.1,0.4l-0.07 0zm-1.01 0.13l0 0.04c0.01,0.05 0.03,0.07 0.07,0.07l0.61 0c0.04,0 0.06,-0.02 0.06,-0.07l0 -0.04 -0.74 0zm2.7 2.53l0.06 0c0,0.04 0.02,0.08 0.07,0.13l0 0.07c-0.03,-0 -0.07,-0.06 -0.13,-0.17l0 -0.03zm0.23 0.34l0.04 0 0 0.07 -0.04 0 0 -0.07zm5.61 -9.04l1.98 0c0.04,0.01 0.22,0.48 0.54,1.41l0.1 0.06 0.34 0c0.06,0.05 0.33,0.77 0.8,2.16l0.24 0.67 -0.07 0.03 -0.78 0 0 0.04c0,0.12 0.07,0.18 0.2,0.2l0.2 -0.03 0.03 0c0.09,0.05 0.41,0.9 0.94,2.56l-0.07 0.04c-0.08,-0.02 -0.12,-0.04 -0.13,-0.04 -0.02,0 -0.03,0.01 -0.03,0.04l-0.24 -0.04 -0.17 0c-0.04,0.01 -0.06,0.03 -0.06,0.07 0.12,0.36 0.2,0.54 0.23,0.54l0.68 0c0.04,0.01 0.06,0.03 0.06,0.07l0 0.03c0,0.05 -0.02,0.07 -0.06,0.07l-0.74 0c-0.05,0 -0.1,-0.01 -0.13,-0.03 -0.04,0.02 -0.09,0.03 -0.14,0.03l-0.71 0 -0.23 -0.03 -0.03 0.07c0.01,0.04 0.03,0.06 0.07,0.06l2.02 0c0.07,0 0.21,0.37 0.44,1.11l0 0.04 -2.53 0c-0.04,-0 -0.17,-0.38 -0.4,-1.15l-1.79 0c-0.05,0 -0.09,-0.01 -0.13,-0.03 -0.04,0.02 -0.08,0.03 -0.13,0.03 -0.05,0 -0.07,-0.02 -0.07,-0.06 0.02,0 0.04,-0.01 0.04,-0.04 0.41,-0.02 0.72,-0.03 0.91,-0.03l1.08 0c0.04,0 0.06,-0.02 0.06,-0.06l-0.1 -0.07 -0.68 0c-0.03,0 -0.09,-0.1 -0.2,-0.3l-0.27 0 0 0.03c0,0.02 0.01,0.11 0.03,0.27l-0.3 0c-0.02,0 -0.1,-0.1 -0.23,-0.3l-1.95 0c-0.13,0 -0.21,0.09 -0.23,0.27l0.06 0.04 0.57 0c0.05,0.01 0.07,0.03 0.07,0.07l0 0.03 -0.44 1.32 -2.56 0 0 -0.04 0.47 -1.35 -1.01 -0.03c-0.05,0 -0.07,-0.02 -0.07,-0.07 0.11,-0.36 0.19,-0.54 0.24,-0.54l0.91 0c0.16,0 0.27,-0.19 0.33,-0.57 0.04,-0 0.15,-0.28 0.34,-0.84l0.37 -1.08 0 -0.03 -0.34 0c-0.05,-0.21 -0.05,-0.28 -0.03,-0.22 -0.03,-0.03 0.27,-0.05 0.9,-0.05 0.03,-0.01 0.21,-0.47 0.54,-1.38l0.47 -1.38 0 -0.04 -0.17 0 0 -0.03c0.17,-0.57 0.35,-1.06 0.54,-1.45l0.4 -0.03zm1.08 2.93c-0.24,0.94 -0.41,1.41 -0.51,1.41l-0.78 0c-0.04,0 -0.08,0.07 -0.1,0.2l0.2 0c0.13,0.01 0.2,0.05 0.2,0.1 -0.23,0.69 -0.34,1.05 -0.34,1.08l0.17 0.03 0.24 -0.03c0.04,0.02 0.08,0.03 0.1,0.03l0.2 -0.03c0.02,0 0.03,0.01 0.03,0.03l0.17 -0.03 0.57 0c0.02,0 0.03,0.01 0.03,0.03 0.23,-0.02 0.34,-0.05 0.34,-0.1l0 -0.04c-0.08,-0.15 -0.18,-0.44 -0.3,-0.88 0,-0.12 -0.1,-0.18 -0.3,-0.2 0,-0.06 -0.02,-0.11 -0.07,-0.17 0.01,-0.05 0.03,-0.07 0.07,-0.07l0.57 0c-0.11,-0.41 -0.26,-0.87 -0.44,-1.38l-0.06 0zm3.88 -2.93l5.6 0c0.05,0 0.09,0.01 0.13,0.04 0.04,-0.02 0.08,-0.04 0.13,-0.04 0.05,0.06 0.07,0.1 0.07,0.14l-0.03 0.07c0.02,0.12 0.07,0.21 0.13,0.27l0 1.27 -0.03 0.06 -0.17 -0.03 -0.7 0 -0.2 0.03c-0.04,-0.02 -0.09,-0.03 -0.16,-0.03l-0.23 0.03c-0.04,-0.02 -0.08,-0.03 -0.13,-0.03l-0.07 0.03c-0.02,0 -0.03,-0.01 -0.03,-0.03l-0.16 0.03 -0.34 0 0 1.17c0,0.05 -0.09,0.08 -0.27,0.11 0,0.09 -0.02,0.13 -0.06,0.13l-0.3 0c-0.04,0.01 -0.06,0.03 -0.06,0.07 0.01,0.04 0.03,0.06 0.06,0.06l0.34 0 0.06 0.04 -0.03 0.17 0 0.3 0.2 0.13c0,0.04 -0.13,0.08 -0.4,0.1l0 1.97c0,0.06 -0.11,0.11 -0.34,0.13l0 0.03 0.51 0c0.13,0.06 0.2,0.11 0.2,0.13l0 2.65c0,0.04 -0.02,0.06 -0.06,0.06l-1.34 0c-0.23,0 -0.56,-0.01 -1.01,-0.04 -0.02,-0.41 -0.03,-0.71 -0.03,-0.9l0 -1.81c-0.2,-0.04 -0.3,-0.09 -0.3,-0.13l-0.06 0.03 -0.3 0 0 -0.03c0.01,-0.04 0.03,-0.06 0.07,-0.06l0.16 0.03c0.04,-0.02 0.08,-0.03 0.11,-0.03l0 -2.02c0.01,-0.04 0.03,-0.06 0.06,-0.06l0.3 0 0 -0.13c-0.11,0 -0.17,-0.02 -0.17,-0.06l0 -0.44c0,-0.05 -0.02,-0.07 -0.07,-0.07l-0.3 0c-0.05,0 -0.07,-0.02 -0.07,-0.06 0.01,-0.05 0.03,-0.07 0.07,-0.07l0.3 0 0.13 -0.16 0.17 0 0.04 -0.3c0,-0.04 -0.01,-0.07 -0.04,-0.07l0.04 -0.17 0 -0.54c0,-0.09 -0.04,-0.16 -0.13,-0.2 -0.02,0 -0.04,0.01 -0.04,0.03l-0.17 -0.03 -1.94 0c-0.05,0 -0.07,-0.02 -0.07,-0.07l0 -1.27c-0.09,0 -0.13,-0.02 -0.13,-0.06l0 -0.03c0,-0.05 0.01,-0.09 0.04,-0.13 -0.02,-0.04 -0.04,-0.08 -0.04,-0.14 0.02,0 0.04,-0.01 0.04,-0.03 0.48,-0.02 0.84,-0.04 1.07,-0.04zm0.3 3.22l0.07 0c0.04,0.01 0.06,0.03 0.06,0.07 0,0.04 -0.02,0.06 -0.06,0.06l-0.07 0c-0.04,0 -0.06,-0.02 -0.06,-0.06 0.01,-0.05 0.03,-0.07 0.06,-0.07zm0.94 2.65l0 0.07 0.03 0 0 -0.07 -0.03 0zm9.32 -5.86c0.77,0 1.43,0.16 1.96,0.49 -0.04,0.02 -0.08,0.03 -0.13,0.03l0 0.06c0.08,0 0.38,0.21 0.91,0.62 0.13,0 0.26,0.04 0.39,0.13l0.36 0 0.16 0.04 0 0.03c0,0.04 -0.02,0.07 -0.06,0.07l-0.16 0c-0.02,0 -0.03,-0.01 -0.03,-0.04 -0.04,0.02 -0.09,0.04 -0.16,0.04l0 0.03c0.49,0.55 0.86,1.29 1.11,2.22l-0.1 0.06 -0.78 0 0 0.03c0.32,0 0.51,0.01 0.56,0.03 0.04,-0.02 0.09,-0.03 0.16,-0.03l0.06 0c0.09,0 0.13,0.21 0.13,0.62 0.01,0.04 0.03,0.07 0.06,0.07l0.33 0c0.02,0 0.03,0.01 0.03,0.03l0.07 -0.03 0.03 0c0.13,0.01 0.2,0.04 0.2,0.09 0,0.73 -0.21,1.46 -0.62,2.19l-0.06 0.03 -0.62 0 -0.13 0.1 -0.32 0c-0.04,0.01 -0.06,0.03 -0.06,0.06 0.24,0 0.36,0.01 0.36,0.04 -0.51,0.84 -1.29,1.45 -2.35,1.86 -0.52,0.13 -0.99,0.2 -1.41,0.2l-0.36 0c-0.25,0 -0.43,-0.02 -0.52,-0.07 -0.04,0.02 -0.08,0.03 -0.1,0.03 -0.96,-0.16 -1.71,-0.48 -2.25,-0.95 -0.42,-0.35 -0.76,-0.71 -1.02,-1.07 -0.04,-0.02 -0.08,-0.04 -0.13,-0.04l-0.29 0 0 -0.06 0.32 0c0,-0.07 0.02,-0.1 0.07,-0.1l0.42 0 0.16 -0.03c-0.34,-0.64 -0.52,-1.23 -0.56,-1.77l0 -0.1 0.04 -0.07c0.02,0 0.03,0.01 0.03,0.04 0.33,-0.02 0.57,-0.04 0.72,-0.04l0.49 0 0 -0.03c0,-0.04 -0.02,-0.06 -0.06,-0.06l-1.17 0c-0.03,0 -0.08,-0.08 -0.16,-0.23l-0.56 0c-0.04,0 -0.06,-0.02 -0.06,-0.06 0,-0.04 0.09,-0.08 0.26,-0.1l0 -0.13c-0.02,0 -0.06,-0.01 -0.1,-0.03 -0.04,0.02 -0.08,0.03 -0.1,0.03 -0.02,-0.04 -0.03,-0.08 -0.03,-0.1 0.06,-0.76 0.34,-1.52 0.85,-2.28 0.19,-0.26 0.37,-0.39 0.53,-0.39 0.28,0 0.42,-0.03 0.42,-0.1 -0.07,-0.04 -0.14,-0.06 -0.19,-0.06l-0.04 0 -0.16 0.03 -0.03 -0.06 0.03 -0.06c-0.09,0 -0.13,-0.02 -0.13,-0.06 0.16,-0.14 0.47,-0.35 0.92,-0.62l0.36 0c0.58,-0.35 1.43,-0.52 2.55,-0.52zm-2.71 4.08l0 0.06 0.2 0.13 0 0.06c0,0.04 -0.02,0.06 -0.07,0.06l-0.16 0 0 0.1 0.59 0c0.04,0 0.07,0.07 0.1,0.23 0.47,0.02 0.81,0.03 1.04,0.03l0.26 0 0 0.06c0,0.05 -0.02,0.07 -0.06,0.07 -0.04,-0.02 -0.07,-0.04 -0.1,-0.04 -0.02,0 -0.03,0.01 -0.03,0.04l-0.16 -0.04c-0.08,0 -0.38,0.01 -0.92,0.04l0 0.16c0.11,0.53 0.38,1.01 0.82,1.44 0.24,0.17 0.36,0.26 0.36,0.29l-0.06 0.03 -0.46 0 0.03 0.06 0 0.03 -0.19 0 0 0.06 0.39 0c0.39,0.11 0.65,0.16 0.78,0.16 0.13,0 0.33,-0.03 0.62,-0.1 0,-0.04 -0.02,-0.07 -0.06,-0.07l-0.16 0 0 -0.06 0.36 0c0.02,0 0.17,-0.03 0.46,-0.1l0.33 0c0.05,0 0.09,-0.01 0.13,-0.03 0.04,0.02 0.08,0.03 0.1,0.03 0.43,-0.18 0.81,-0.59 1.14,-1.21 0.13,-0.44 0.2,-0.69 0.2,-0.75l0 -0.26c0,-0.04 -0.11,-0.07 -0.32,-0.09l-0.06 0.03 -0.23 0c-0.09,0 -0.13,-0.22 -0.13,-0.65l-0.16 -0.03 -1.12 0 0 -0.06c0.33,-0.02 0.57,-0.03 0.72,-0.03l0.49 0 0 -0.03c-0.21,-0.58 -0.53,-1.03 -0.98,-1.34 -0.49,-0.31 -0.9,-0.46 -1.21,-0.46 -0.91,0 -1.65,0.47 -2.22,1.4 -0.15,0.39 -0.23,0.64 -0.23,0.75zm-2.25 0.69l0.36 0c0.04,0.01 0.06,0.03 0.06,0.06l-0.06 0.03 -0.36 0 0 -0.1zm8.04 0.13l-0.03 0.06 0 0.03 0.03 0c0,-0.04 0.02,-0.06 0.06,-0.06l0 -0.03 -0.06 0zm-4.02 0.49l0.03 0c0.04,0.01 0.06,0.03 0.06,0.06l0 0.1c0,0.04 -0.02,0.06 -0.06,0.06l-0.03 0c-0.04,0 -0.06,-0.02 -0.06,-0.06l0 -0.1c0.01,-0.04 0.03,-0.06 0.06,-0.06zm-3.83 0.36l0.2 0 0.03 0.16 -0.1 0.06 -0.1 0c-0.04,0 -0.07,-0.06 -0.1,-0.19l0.06 -0.04zm10.12 -5.76c0.04,0 0.06,0.01 0.06,0.03 0.34,-0.02 0.59,-0.03 0.75,-0.03l2.36 0c0.86,0 1.43,0.08 1.72,0.23 0.2,0.06 0.33,0.13 0.37,0.2 -0.02,0.04 -0.04,0.08 -0.04,0.14 0.35,0.17 0.66,0.54 0.91,1.11 0.16,0.48 0.24,0.84 0.24,1.08 0,0.08 -0.03,0.35 -0.1,0.81 0.13,0 0.2,0.02 0.2,0.07 -0.26,0.7 -0.66,1.22 -1.21,1.55l-0.51 0.2 0 0.04c0.05,0.05 0.18,0.23 0.37,0.54 -0.07,0.04 -0.13,0.06 -0.17,0.06l0.04 0.07 0 0.04c-0.41,0.02 -0.68,0.03 -0.81,0.03l0 0.04c0.01,0.05 0.03,0.07 0.07,0.07l0.84 0 0.3 0.37c0.22,0 0.37,0.11 0.44,0.34l0 0.03c-0.11,0 -0.17,0.02 -0.17,0.07 0.7,1.01 1.05,1.52 1.05,1.55 -0.09,0.02 -0.13,0.04 -0.13,0.07 0.16,0.23 0.23,0.37 0.23,0.41l-0.06 0.03 -1.69 0c-0.19,0 -0.49,-0.01 -0.91,-0.03 -0.18,-0.26 -0.27,-0.39 -0.27,-0.41 0.04,-0.02 0.09,-0.04 0.17,-0.04l0 -0.03c-0.65,-0.99 -0.98,-1.53 -0.98,-1.62l0.13 0 0 -0.07c-0.07,-0.22 -0.2,-0.33 -0.4,-0.33 -0.18,-0.23 -0.31,-0.34 -0.41,-0.34l-0.61 0 0 0.17c0,0.02 -0.01,0.03 -0.03,0.03l0.03 0.07 0 1.55 0.37 0c0.05,0.01 0.07,0.03 0.07,0.07 0,0.04 -0.02,0.06 -0.07,0.06l-0.37 0c0,0.11 -0.01,0.17 -0.03,0.17l0.03 0.07 0 0.4c0,0.05 -0.01,0.09 -0.03,0.13 0.02,0.04 0.03,0.08 0.03,0.11l-0.06 0.03 -1.38 0c-0.22,0 -0.56,-0.01 -1.01,-0.03l0 -0.81c0.01,-0.05 0.03,-0.07 0.07,-0.07l0.37 0 0 -0.1 -0.37 0c-0.05,0 -0.07,-0.02 -0.07,-0.07l0 -1.75 -0.17 -0.03 -0.67 0c-0.05,0 -0.07,-0.02 -0.07,-0.07l0.07 -0.04c0.56,-0.01 0.84,-0.03 0.84,-0.06 0,-0.07 0.02,-0.1 0.07,-0.1 0.04,0.02 0.08,0.03 0.1,0.03l0.04 -0.06 0 -2.3c0.01,-0.04 0.03,-0.07 0.06,-0.07l0.17 0 0.04 -0.2c-0.04,-0.02 -0.08,-0.03 -0.1,-0.03 -0.2,0.02 -0.31,0.03 -0.34,0.03 0,-0.18 -0.09,-0.27 -0.27,-0.27l0 -0.17 0.23 -0.14 0 -2.26 0.2 -0.14 0 -0.34c0.01,-0.04 0.03,-0.06 0.06,-0.06l0.24 0c0.07,0 0.13,-0.01 0.17,-0.03zm1.79 1.79c0,0.02 -0.01,0.03 -0.03,0.03 0.02,0.23 0.03,0.39 0.03,0.51l0 0.2c0,0.02 -0.01,0.03 -0.03,0.03l0.03 0.06 0 0.04c0,0.2 -0.09,0.3 -0.27,0.3l0 0.2c0.18,0.01 0.27,0.05 0.27,0.1l-0.03 0c0.02,0.04 0.03,0.08 0.03,0.1l0.81 0 0 0.07 -0.3 0 -0.13 0.17 -0.17 0 0 0.34 1.04 0c0.45,0 0.76,-0.11 0.92,-0.34 0.22,0 0.33,-0.08 0.33,-0.24l-0.3 0 -0.06 -0.03c0.04,-0.15 0.06,-0.29 0.06,-0.41l0 -0.27c0,-0.24 -0.2,-0.49 -0.61,-0.78 -0.05,-0.05 -0.27,-0.08 -0.67,-0.1l-0.07 0.03 -0.07 -0.03c-0.02,0 -0.03,0.01 -0.03,0.03 -0.08,-0.02 -0.13,-0.03 -0.14,-0.03 -0.2,0.02 -0.31,0.03 -0.33,0.03 -0.13,-0.02 -0.22,-0.03 -0.27,-0.03zm-1.92 1.62l0 0.04 0.06 0 0 -0.04 -0.06 0zm0.17 0l0 0.04 0.06 0 0 -0.04 -0.06 0zm6.38 -0.03l0.1 0 0 0.07 -0.1 0 0 -0.07zm0.23 0l0.11 0 0 0.07 -0.11 0 0 -0.07zm0.17 0l0.3 0 0 0.07 -0.3 0 0 -0.07zm-4.93 2.67l-0.07 -0.03c0,0.05 -0.02,0.07 -0.06,0.07 0.02,0.04 0.03,0.08 0.03,0.1 0.23,-0.02 0.39,-0.03 0.51,-0.03l0.03 0 0.06 0.03 0.14 -0.23c-0.09,-0.2 -0.15,-0.3 -0.17,-0.3l-0.3 0c-0.05,0 -0.08,0.13 -0.1,0.4l-0.07 0zm-1.01 0.13l0 0.04c0.01,0.05 0.03,0.07 0.07,0.07l0.61 0c0.04,0 0.06,-0.02 0.06,-0.07l0 -0.04 -0.74 0zm2.7 2.53l0.06 0c0,0.04 0.02,0.08 0.07,0.13l0 0.07c-0.03,-0 -0.07,-0.06 -0.13,-0.17l0 -0.03zm0.23 0.34l0.04 0 0 0.07 -0.04 0 0 -0.07zm8.04 -16.86l0 0.09 0.04 0 0 -0.09 -0.04 0zm1.26 -0.75l0.41 0 0 0.13 -0.29 -0.04 -0.12 0 0 -0.08zm-3.24 -3.32l0.12 0 0 0.08 -0.12 0 0 -0.08zm-0.21 0l0.08 0 0 0.08 -0.08 0 0 -0.08zm1.84 0l0 0.08 0.13 0c0,-0.05 -0.03,-0.08 -0.08,-0.08l-0.05 0zm-0.12 0l0 0.08 0.04 0 0 -0.08 -0.04 0zm2.44 -3.95c0.05,0.03 0.1,0.04 0.17,0.04l0.13 0c0.61,0 1.02,0.07 1.22,0.21l0.25 0c0.09,0 0.45,0.14 1.09,0.41l0.42 0c0.04,0 0.09,0.04 0.13,0.13 -0.03,0.03 -0.14,0.04 -0.34,0.04 0.51,0.45 0.76,0.7 0.76,0.75l0 0.05c-0.01,0.05 -0.55,0.56 -1.6,1.55l-0.59 0c-0.57,-0.55 -1.01,-0.84 -1.3,-0.88l-0.04 0c-0.56,0 -0.84,0.11 -0.84,0.34 -0.12,0 -0.19,0.19 -0.21,0.59l0.05 0.21 0.38 0c0.09,0 0.22,0.07 0.38,0.21 0.2,0.04 0.29,0.09 0.29,0.17l-0.04 0.08 0.08 0.04 1.01 0 0 0.13 -0.84 0 0 0.04c0.01,0.08 0.3,0.22 0.88,0.42 1.11,0.33 1.99,0.78 2.65,1.35 0,0.03 0.14,0.2 0.42,0.5 -0.34,0.03 -0.5,0.07 -0.5,0.12 0.06,0 0.11,0.07 0.13,0.21l0.51 0c0.08,0 0.16,0.17 0.25,0.5l-0.08 0.05 -0.42 0c-0.06,0.01 -0.08,0.03 -0.08,0.08l0.55 0c0.04,0 0.08,0.04 0.12,0.13l0 0.08c0,0.06 -0.03,0.09 -0.08,0.09l-0.42 0 0 0.04c0,0.14 0.02,0.38 0.04,0.72 0,0.46 -0.17,1.01 -0.5,1.64 -0.06,0.01 -0.08,0.04 -0.08,0.08l0 0.08 0.59 0c0.06,0.01 0.08,0.04 0.08,0.08 -0.03,0 -0.21,0.18 -0.54,0.55 -0.73,0.56 -1.73,0.84 -2.99,0.84l-0.04 0c-1.55,0 -2.81,-0.48 -3.79,-1.43 -0.73,-0.05 -1.09,-0.2 -1.09,-0.46 -0.27,-0.24 -0.41,-0.47 -0.42,-0.67 0.42,-0.28 0.74,-0.47 0.96,-0.59l0.17 0.04c0.08,-0.02 0.49,-0.26 1.22,-0.72l0.51 0c0.05,0 0.2,0.21 0.46,0.63l0 0.08 -0.13 0 0 0.08c0.48,0.42 0.95,0.63 1.43,0.63 0.73,-0.12 1.09,-0.47 1.09,-1.05 0,-0.09 -0.07,-0.29 -0.21,-0.59l0.42 0 0 -0.04c-0.07,-0.14 -0.18,-0.21 -0.33,-0.21l-0.42 0c-0.12,0 -0.27,-0.02 -0.47,-0.04l-0.08 0.04c-0.05,-0.03 -0.1,-0.04 -0.13,-0.04l0 -0.08 0.04 0c0.08,0 0.36,-0.02 0.84,-0.05l0 -0.08 -1.18 -0.38c-0.09,0 -0.18,-0.02 -0.29,-0.04 -0.05,0.03 -0.1,0.04 -0.17,0.04 -0.18,-0.09 -0.43,-0.17 -0.76,-0.26l0 -0.08 0.3 0 0 -0.08c-0.87,-0.32 -1.46,-0.76 -1.77,-1.3 -0.21,-0.29 -0.34,-0.61 -0.37,-0.96l0.08 -0.05 0.17 0c0.03,0 0.04,0.02 0.04,0.05 0.04,-0.03 0.13,-0.05 0.25,-0.05l0 -0.08 -0.54 0 0 -0.08c0.14,0 0.21,-0.03 0.21,-0.08l-0.29 -0.17c-0.04,-0.11 -0.09,-0.17 -0.13,-0.17l-0.47 0 0 -0.34c0,-0.88 0.41,-1.65 1.22,-2.31l0.13 0c0.03,0 0.05,0.02 0.05,0.04l0.08 -0.04 0.08 0.04c0.17,-0.03 0.26,-0.07 0.26,-0.13l-0.09 -0.05 -0.25 0 0 -0.04c0.36,-0.21 0.54,-0.33 0.54,-0.38 0,-0.08 0.34,-0.15 1.01,-0.21l0.63 0c0.06,0 0.12,-0.02 0.17,-0.04zm-5.37 -5.69l-0.92 4.22 -2.15 0 1.17 -4.22 1.9 0zm-9.3 6.99c-0.42,1.66 -0.72,2.49 -0.89,2.49l-1.36 0c-0.07,0 -0.13,0.12 -0.17,0.36l0.36 0c0.23,0.02 0.35,0.08 0.35,0.18 -0.4,1.22 -0.59,1.85 -0.59,1.9l0.3 0.05 0.42 -0.05c0.08,0.03 0.13,0.05 0.18,0.05l0.36 -0.05c0.04,0 0.05,0.01 0.05,0.05l0.3 -0.05 1.01 0c0.04,0 0.06,0.01 0.06,0.05 0.4,-0.04 0.6,-0.09 0.6,-0.17l0 -0.06c-0.15,-0.26 -0.33,-0.78 -0.53,-1.54 0,-0.2 -0.18,-0.32 -0.53,-0.35 0,-0.1 -0.04,-0.2 -0.12,-0.3 0.02,-0.08 0.06,-0.12 0.12,-0.12l1.01 0c-0.2,-0.73 -0.45,-1.53 -0.77,-2.43l-0.11 0zm-1.9 -5.16l3.49 0c0.07,0.01 0.39,0.84 0.95,2.49l0.17 0.11 0.6 0c0.1,0.08 0.58,1.35 1.42,3.8l0.42 1.18 -0.12 0.06 -1.36 0 0 0.06c0,0.21 0.12,0.33 0.36,0.35l0.36 -0.05 0.05 0c0.17,0.09 0.72,1.59 1.66,4.5l-0.12 0.06c-0.13,-0.04 -0.21,-0.06 -0.24,-0.06 -0.04,0 -0.05,0.02 -0.05,0.06l-0.42 -0.06 -0.3 0c-0.07,0.01 -0.11,0.05 -0.11,0.12 0.21,0.63 0.35,0.95 0.41,0.95l1.19 0c0.08,0.01 0.11,0.05 0.11,0.12l0 0.05c0,0.08 -0.04,0.12 -0.11,0.12l-1.3 0c-0.09,0 -0.17,-0.02 -0.24,-0.06 -0.07,0.04 -0.15,0.06 -0.24,0.06l-1.24 0 -0.41 -0.06 -0.06 0.12c0.01,0.07 0.05,0.11 0.12,0.11l3.55 0c0.12,0 0.37,0.65 0.77,1.96l0 0.06 -4.44 0c-0.07,-0 -0.3,-0.68 -0.71,-2.02l-3.14 0c-0.09,0 -0.16,-0.02 -0.24,-0.05 -0.07,0.04 -0.15,0.05 -0.24,0.05 -0.08,0 -0.12,-0.04 -0.12,-0.11 0.04,0 0.06,-0.02 0.06,-0.06 0.73,-0.04 1.26,-0.06 1.6,-0.06l1.9 0c0.07,0 0.11,-0.04 0.11,-0.11l-0.18 -0.12 -1.19 0c-0.05,0 -0.16,-0.18 -0.35,-0.53l-0.48 0 0 0.06c0,0.04 0.02,0.19 0.05,0.48l-0.53 0c-0.04,0 -0.18,-0.18 -0.41,-0.53l-3.44 0c-0.23,0 -0.36,0.16 -0.41,0.47l0.11 0.06 1.01 0c0.08,0.01 0.12,0.05 0.12,0.12l0 0.05 -0.77 2.32 -4.51 0 0 -0.06 0.83 -2.37 -1.78 -0.06c-0.08,0 -0.12,-0.04 -0.12,-0.12 0.2,-0.63 0.34,-0.95 0.42,-0.95l1.6 0c0.29,0 0.48,-0.33 0.59,-1.01 0.07,-0.01 0.27,-0.5 0.6,-1.48l0.65 -1.9 0 -0.06 -0.59 0c-0.08,-0.37 -0.1,-0.5 -0.04,-0.39 -0.05,-0.06 0.48,-0.09 1.59,-0.09 0.06,-0.01 0.37,-0.82 0.94,-2.43l0.83 -2.43 0 -0.06 -0.3 0 0 -0.06c0.3,-1.01 0.62,-1.86 0.95,-2.55l0.71 -0.05zm-13.09 5.85l0.12 0 0 0.12 -0.12 0 0 -0.12zm-1.36 0l0.53 0 0 0.12 -0.53 0 0 -0.12zm-1.66 -3.25l0 0.12c0.08,0 0.11,0.04 0.11,0.11l0.06 0 0 -0.11 -0.18 -0.12zm-1.3 -0.36l0.11 0 0 0.77 -0.11 0 0 -0.77zm0.65 -0.3l0 0.12 0.06 0 0 -0.12 -0.06 0zm0.53 -1.95l12.21 0 0 0.17 -0.65 0c-0.14,0.07 -0.52,0.72 -1.13,1.96 0.28,0 0.42,0.04 0.42,0.11 -0.96,1.94 -1.62,3.15 -1.96,3.61 -0.39,0 -0.59,0.02 -0.6,0.06 -0.06,-0.04 -0.14,-0.06 -0.24,-0.06l-0.11 0c0,0.02 0.04,0.09 0.11,0.19l0 0.06 -0.05 0.12 0.41 0.06c0.12,0 0.17,-0.02 0.17,-0.06l0.3 0.06 0.89 0c0.07,0.01 0.11,0.05 0.11,0.11l-0.11 0.06 -0.6 0c-0.14,0 -0.32,0.02 -0.53,0.06 -0.05,-0.04 -0.19,-0.06 -0.41,-0.06 -0.28,0.36 -0.91,1.52 -1.9,3.5l0.11 0.06 0.59 0c0.08,0.01 0.12,0.05 0.12,0.11 -0.02,0.12 -0.18,0.18 -0.47,0.18l-0.48 0 -0.35 0.36 -0.77 0c-0.1,0.16 -0.34,0.24 -0.72,0.24l0.36 0.24c-0.46,0.89 -0.74,1.46 -0.83,1.72l0.59 0 0.36 0.05c0.04,0 0.05,-0.02 0.05,-0.05l0.42 0.05c0.23,0 0.35,-0.02 0.35,-0.05l0.6 0.05 2.9 0c0.27,0 0.71,-0.02 1.31,-0.05 0.11,0.27 0.19,0.41 0.24,0.41l0.71 0c0.08,0.01 0.12,0.05 0.12,0.12l0 1.89 -0.06 0.71c-0.39,0.04 -4.62,0.04 -12.68,0l-0.18 0c-0.08,0 -0.12,-0.04 -0.12,-0.11 0.65,-1.17 1.09,-2.02 1.31,-2.55l0 -0.06 -0.06 0 -0.53 -0.06c-0.07,0.04 -0.13,0.06 -0.17,0.06l-0.06 -0.12 1.07 -1.95 0 -0.18 -0.3 0 0 -0.12 0.36 0 0.35 -0.3 0.78 0c0.02,0 0.14,-0.12 0.35,-0.35l0.77 0c0.08,0 0.12,-0.04 0.12,-0.12 0,-0.07 -0.04,-0.11 -0.12,-0.11l-0.59 0 -0.11 -0.06 1.84 -3.44c0.65,-0.04 1.15,-0.06 1.48,-0.06l0.12 0c0.08,0 0.11,-0.04 0.11,-0.11l0 -0.06 -0.06 0c-0.39,0 -0.98,-0.02 -1.78,-0.06l0 -0.06c0,-0.23 0.32,-0.35 0.95,-0.35l1.36 -2.49 0 -0.18 -4.86 0c-0.09,0 -0.16,-0.02 -0.24,-0.06 -0.04,0 -0.06,0.02 -0.06,0.06l-0.41 -0.06 -0.42 0c-0.08,0 -0.12,-0.04 -0.12,-0.11l0 -0.72 0.06 -0.11c-0.36,0 -0.53,-0.08 -0.53,-0.24l0.05 -0.36 -0.05 -0.36 0.05 -0.35 -0.05 -0.59 0.11 -0.06 0.53 0 0.24 -0.17zm-9.45 9.71c0,0.04 -0.02,0.05 -0.06,0.05 0.27,0.78 0.47,1.22 0.59,1.31l0.3 -1.01c-0.08,-0.13 -0.12,-0.23 -0.12,-0.3l-0.71 -0.05zm0.3 -1.42l0 0.19 0.06 0c0.08,0 0.11,-0.04 0.11,-0.13l0 -0.17 -0.05 0c-0.08,0.01 -0.12,0.05 -0.12,0.11zm-5.27 -1.59l0 3.02 0.77 0 0 -0.89c-0.24,-0.95 -0.5,-1.66 -0.77,-2.13zm6.04 -3.26l0.6 0 0 0.19 -0.6 0c-0.08,0 -0.12,-0.04 -0.12,-0.12l0.12 -0.06zm-1.6 0l0.36 0c0.04,0 0.06,0.02 0.06,0.06l0.11 -0.06 0.06 0 0 0.19 -0.6 0c-0.07,0 -0.11,-0.04 -0.11,-0.12l0.11 -0.06zm-7.4 -3.43c0.22,0.04 0.39,0.06 0.53,0.06l1.9 0c0.09,0 0.17,-0.02 0.24,-0.06 0.51,0 0.77,0.18 0.77,0.53l1.12 2.9 0.53 0 0 0.19 -0.35 0c-0.08,0.01 -0.12,0.05 -0.12,0.11 0,0.07 0.18,0.13 0.53,0.18l0.06 0.11 0 0.3 -0.24 0c0.31,0.97 1.02,2.79 2.13,5.44l0.3 -0.05 0.36 0 -0.06 -0.42 0 -0.24c0.08,-0.26 0.12,-0.45 0.12,-0.59 -0.08,0 -0.12,-0.04 -0.12,-0.13l0 -0.06c0.01,-0.07 0.05,-0.11 0.12,-0.11l0.05 0 0.12 0.06 1.89 -4.62 0.3 0.06c0.02,0 0.1,-0.02 0.24,-0.06l0 -0.19 -0.29 0c-0.08,0 -0.12,-0.04 -0.12,-0.11l1.24 -3.19 0.12 -0.06 3.9 0c0.08,0.01 0.12,0.05 0.12,0.11l0 3.26 0.35 0c0.08,0.02 0.12,0.06 0.12,0.12l-0.12 0.06 -0.35 0 0 4.56 0.3 0c0.07,0.01 0.11,0.05 0.11,0.11l0 0.06c0,0.06 -0.06,0.12 -0.18,0.18l-0.06 0 -0.12 -0.05 -0.05 0.11 0 1.13 0.65 0c0.08,0.01 0.12,0.05 0.12,0.12l0 3.79c0,0.08 -0.04,0.12 -0.12,0.12l-0.65 0 0 2.25c0,0.08 -0.04,0.11 -0.12,0.11l-1.95 0c-0.4,0 -0.99,-0.02 -1.78,-0.05l0 -1.96 -0.06 -0.29 0.13 -0.06 0.41 0 0.3 -0.06 0 -3.2c0.16,-0.24 0.24,-0.48 0.24,-0.72 -0.43,-0.03 -0.65,-0.09 -0.65,-0.17 0.23,-0.75 0.41,-1.12 0.53,-1.12 0.16,0 0.24,-0.04 0.24,-0.13l0 -0.11c-0.27,0 -0.41,-0.06 -0.41,-0.18l0 -1.07 -0.06 0c-0.05,0 -0.21,0.38 -0.47,1.13 0.24,0.05 0.36,0.11 0.36,0.18 0,0.1 -0.14,0.18 -0.42,0.24 0,-0.04 -0.02,-0.05 -0.05,-0.05 -0.16,0.28 -0.32,0.7 -0.47,1.24l0.59 0c0.08,0.01 0.12,0.05 0.12,0.12 -0.6,1.48 -0.97,2.46 -1.13,2.97 -0.26,0.63 -0.42,0.94 -0.47,0.94l-0.71 0 -0.89 2.36 -1.06 0c-0.4,0 -0.99,-0.02 -1.78,-0.05 -0.51,-1.28 -0.77,-2.06 -0.77,-2.31l0.53 0c0.07,0 0.11,-0.04 0.11,-0.12 -0.72,-1.81 -1.1,-2.83 -1.13,-3.08l0 -0.77c-0.02,0 -0.28,-0.02 -0.76,-0.05l-0.06 0.12 0 3.79c0,0.08 -0.04,0.12 -0.12,0.12l-0.53 0c-0.07,0.01 -0.11,0.05 -0.11,0.11l0 0.19 0.3 0c0.07,0.01 0.11,0.05 0.11,0.11 0,0.08 -0.04,0.12 -0.11,0.12l-0.3 0 0 1.71c0,0.08 -0.04,0.11 -0.12,0.11l-2.07 0c-0.33,0 -0.86,-0.02 -1.6,-0.05l-0.06 -0.12 0 -1.54 0.36 -0.24 -0.36 -0.24 0 -0.06c0.01,-0.07 0.05,-0.11 0.12,-0.11l0.65 0 0.06 -0.3 0 -3.44 -0.06 -0.29 -0.65 0c-0.08,0 -0.12,-0.04 -0.12,-0.12l0 -5.16c0.01,-0.07 0.05,-0.11 0.12,-0.11l0.29 0 0 -0.47 -0.29 0c-0.08,0 -0.12,-0.04 -0.12,-0.12l0 -0.05 0.41 0c0.08,0 0.12,-0.04 0.12,-0.12l0 -0.12c-0.09,0 -0.17,-0.02 -0.24,-0.05 -0.07,0.04 -0.15,0.05 -0.24,0.05l-0.06 -0.11 0 -1.31c0,-0.09 0.02,-0.16 0.06,-0.24 -0.04,-0.07 -0.06,-0.15 -0.06,-0.24l0 -1.36c0.01,-0.07 0.05,-0.11 0.12,-0.11l0.35 0c0.23,0 0.36,-0.02 0.41,-0.06zm-17.48 10.14l0.35 0 0.05 0.29 -0.17 0.11 -0.18 0c-0.07,0 -0.13,-0.11 -0.17,-0.34l0.11 -0.06zm6.73 -0.63l0.06 0c0.08,0.01 0.11,0.05 0.11,0.11l0 0.18c0,0.07 -0.04,0.11 -0.11,0.11l-0.06 0c-0.08,0 -0.11,-0.04 -0.11,-0.11l0 -0.18c0.01,-0.07 0.05,-0.11 0.11,-0.11zm7.07 -0.86l-0.05 0.11 0 0.05 0.05 0c0,-0.08 0.04,-0.11 0.11,-0.11l0 -0.05 -0.11 0zm-14.14 -0.24l0.63 0c0.07,0.01 0.11,0.05 0.11,0.11l-0.11 0.06 -0.63 0 0 -0.17zm3.96 -1.21l0 0.11 0.35 0.24 0 0.11c0,0.07 -0.04,0.11 -0.12,0.11l-0.28 0 0 0.18 1.03 0c0.06,0 0.12,0.13 0.18,0.4 0.82,0.04 1.43,0.05 1.84,0.05l0.45 0 0 0.11c0,0.08 -0.04,0.12 -0.11,0.12 -0.07,-0.04 -0.13,-0.06 -0.17,-0.06 -0.04,0 -0.06,0.02 -0.06,0.06l-0.29 -0.06c-0.14,0 -0.68,0.02 -1.61,0.06l0 0.28c0.19,0.94 0.67,1.78 1.44,2.54 0.42,0.29 0.64,0.47 0.64,0.52l-0.11 0.05 -0.8 0 0.05 0.11 0 0.06 -0.34 0 0 0.11 0.69 0c0.68,0.19 1.14,0.29 1.37,0.29 0.22,0 0.59,-0.06 1.09,-0.17 0,-0.08 -0.04,-0.12 -0.11,-0.12l-0.29 0 0 -0.11 0.63 0c0.04,0 0.31,-0.06 0.81,-0.17l0.58 0c0.09,0 0.16,-0.02 0.23,-0.05 0.07,0.04 0.13,0.05 0.18,0.05 0.75,-0.32 1.42,-1.03 2.01,-2.13 0.23,-0.77 0.34,-1.21 0.34,-1.32l0 -0.46c0,-0.06 -0.19,-0.12 -0.57,-0.16l-0.11 0.05 -0.4 0c-0.16,0 -0.24,-0.38 -0.24,-1.15l-0.28 -0.06 -1.96 0 0 -0.11c0.58,-0.04 1,-0.05 1.27,-0.05l0.86 0 0 -0.06c-0.36,-1.02 -0.94,-1.81 -1.72,-2.35 -0.87,-0.54 -1.58,-0.81 -2.13,-0.81 -1.6,0 -2.91,0.82 -3.91,2.47 -0.27,0.68 -0.4,1.12 -0.4,1.32zm4.78 -7.19c1.36,0 2.51,0.29 3.45,0.87 -0.07,0.04 -0.15,0.05 -0.23,0.05l0 0.11c0.14,0 0.67,0.36 1.6,1.09 0.23,0 0.46,0.08 0.69,0.23l0.64 0 0.28 0.06 0 0.06c0,0.08 -0.04,0.12 -0.11,0.12l-0.29 0c-0.04,0 -0.05,-0.02 -0.05,-0.06 -0.06,0.04 -0.16,0.06 -0.29,0.06l0 0.05c0.87,0.97 1.52,2.27 1.95,3.91l-0.17 0.11 -1.38 0 0 0.06c0.56,0 0.89,0.02 0.98,0.05 0.06,-0.04 0.16,-0.05 0.29,-0.05l0.11 0c0.15,0 0.23,0.36 0.23,1.09 0.01,0.08 0.05,0.12 0.11,0.12l0.58 0c0.04,0 0.05,0.01 0.05,0.05l0.12 -0.05 0.05 0c0.23,0.02 0.35,0.08 0.35,0.16 0,1.28 -0.36,2.57 -1.09,3.86l-0.11 0.05 -1.09 0 -0.24 0.17 -0.57 0c-0.07,0.01 -0.11,0.05 -0.11,0.11 0.42,0 0.63,0.02 0.63,0.06 -0.89,1.47 -2.27,2.56 -4.14,3.27 -0.91,0.23 -1.74,0.35 -2.48,0.35l-0.63 0c-0.45,0 -0.76,-0.04 -0.92,-0.12 -0.08,0.04 -0.13,0.06 -0.18,0.06 -1.68,-0.28 -3.01,-0.84 -3.96,-1.67 -0.74,-0.62 -1.34,-1.25 -1.79,-1.89 -0.06,-0.04 -0.14,-0.06 -0.23,-0.06l-0.52 0 0 -0.11 0.57 0c0,-0.12 0.04,-0.17 0.12,-0.17l0.74 0 0.29 -0.05c-0.6,-1.13 -0.92,-2.17 -0.98,-3.11l0 -0.17 0.06 -0.12c0.04,0 0.05,0.02 0.05,0.06 0.58,-0.04 1,-0.06 1.27,-0.06l0.86 0 0 -0.06c0,-0.07 -0.04,-0.11 -0.11,-0.11l-2.06 0c-0.05,0 -0.14,-0.13 -0.29,-0.4l-0.98 0c-0.07,0 -0.11,-0.04 -0.11,-0.11 0,-0.07 0.16,-0.13 0.46,-0.17l0 -0.23c-0.04,0 -0.1,-0.02 -0.17,-0.05 -0.08,0.03 -0.13,0.05 -0.18,0.05 -0.04,-0.07 -0.05,-0.13 -0.05,-0.17 0.11,-1.33 0.61,-2.67 1.49,-4.02 0.34,-0.46 0.65,-0.69 0.93,-0.69 0.5,0 0.74,-0.06 0.74,-0.18 -0.13,-0.07 -0.24,-0.11 -0.34,-0.11l-0.06 0 -0.29 0.05 -0.05 -0.11 0.05 -0.11c-0.15,0 -0.23,-0.04 -0.23,-0.11 0.28,-0.25 0.82,-0.62 1.61,-1.09l0.63 0c1.02,-0.61 2.52,-0.92 4.49,-0.92zm-15.98 7.51l0.65 0c0.08,0.01 0.12,0.05 0.12,0.12l0 0.06c0,0.07 -0.04,0.11 -0.12,0.11l-0.53 0c-0.08,0 -0.11,-0.04 -0.11,-0.11l0 -0.19zm-3.86 -4.21l0 0.65c0.01,0.08 0.05,0.12 0.11,0.12l0.72 0c0.07,0.01 0.11,0.05 0.11,0.12l0 3.14c0,0.03 -0.06,0.09 -0.18,0.18l-0.3 -0.05 -0.36 0 -0.24 0.41 -0.53 0c-0.08,0.01 -0.11,0.05 -0.11,0.12l0 0.35 0.65 0c0.03,0 0.1,0.06 0.18,0.19l-0.06 0.3 0 2.31c0,0.09 0.02,0.17 0.06,0.24 -0.04,0.07 -0.06,0.15 -0.06,0.24l0 0.24 0.06 0.3 0.71 0c0.09,0 0.17,0.02 0.24,0.06 0.07,-0.04 0.15,-0.06 0.24,-0.06l0.06 0.12 -0.24 0.11c-0.08,0 -0.12,-0.02 -0.12,-0.05l-0.41 0.05 -0.47 0 -0.06 0.3 0 0.12c0.01,0.08 0.05,0.12 0.11,0.12l1.25 0c0.39,0 1.02,-0.18 1.9,-0.54 0.6,-0.04 1.03,-0.05 1.31,-0.05l0.06 -0.12c-0.39,-0.04 -0.69,-0.06 -0.89,-0.06l-0.11 0 0 -0.11c0.73,-0.53 1.26,-1.31 1.6,-2.32l0.3 -1.24 -0.18 -0.12 -0.53 0c-0.07,0 -0.11,-0.04 -0.11,-0.11l0 -0.24c0,-0.06 0.06,-0.12 0.18,-0.18 0.04,0 0.06,0.02 0.06,0.06 0.37,0 0.6,-0.12 0.71,-0.36l0.36 0 0.41 -0.05 0 -0.12c-0.15,-1.16 -0.72,-2.23 -1.71,-3.2 -0.87,-0.07 -1.41,-0.21 -1.61,-0.42 -0.64,-0.36 -1.17,-0.53 -1.6,-0.53l-1.37 0c-0.08,0.01 -0.11,0.05 -0.11,0.12z"/>
 </g>
</svg>
